<svg width="218" height="65" viewBox="0 0 218 65" fill="none" xmlns="http://www.w3.org/2000/svg">
<rect width="218" height="65" rx="10" fill="black"/>
<g clip-path="url(#clip0_695_315)">
<path d="M42.7319 23.8007L20.3635 11.117C20.0824 10.9551 19.7288 10.9641 19.4568 11.126C19.1757 11.2879 19.0034 11.5758 19.0034 11.8996C19.0034 11.8996 19.0125 13.0691 19.0216 14.9941L35.3151 31.159L42.7319 23.8007Z" fill="url(#paint0_linear_695_315)"/>
<path d="M19.0215 14.9941C19.0487 21.9387 19.1303 38.7962 19.1666 47.189L35.3241 31.1591L19.0215 14.9941Z" fill="url(#paint1_linear_695_315)"/>
<path d="M55.5343 31.0602L42.7316 23.8008L35.3057 31.1591L43.6836 39.4709L55.5433 32.6164C55.8244 32.4545 55.9967 32.1576 55.9967 31.8428C55.9967 31.5189 55.8153 31.2221 55.5343 31.0602V31.0602Z" fill="url(#paint2_linear_695_315)"/>
<path d="M19.1572 47.189C19.1754 50.1845 19.1844 52.1005 19.1844 52.1005C19.1844 52.4243 19.3567 52.7212 19.6378 52.8741C19.9189 53.036 20.2634 53.036 20.5445 52.8741L43.6927 39.4798L35.3147 31.168L19.1572 47.189Z" fill="url(#paint3_linear_695_315)"/>
</g>
<path d="M70.8478 28.9999C70.6424 28.9999 70.4838 28.9486 70.3718 28.8459C70.2691 28.7339 70.2178 28.5752 70.2178 28.3699V19.7599C70.2178 19.5546 70.2691 19.4006 70.3718 19.2979C70.4838 19.1859 70.6424 19.1299 70.8478 19.1299H73.5498C75.1458 19.1299 76.3778 19.5499 77.2458 20.3899C78.1138 21.2299 78.5478 22.4526 78.5478 24.0579C78.5478 24.8606 78.4358 25.5699 78.2118 26.1859C77.9971 26.7926 77.6751 27.3059 77.2458 27.7259C76.8164 28.1459 76.2938 28.4632 75.6778 28.6779C75.0618 28.8926 74.3524 28.9999 73.5498 28.9999H70.8478ZM71.3658 28.0199H73.4658C74.1191 28.0199 74.6838 27.9359 75.1598 27.7679C75.6451 27.5999 76.0464 27.3526 76.3638 27.0259C76.6904 26.6992 76.9331 26.2886 77.0918 25.7939C77.2504 25.2899 77.3298 24.7112 77.3298 24.0579C77.3298 22.7419 77.0078 21.7572 76.3638 21.1039C75.7198 20.4412 74.7538 20.1099 73.4658 20.1099H71.3658V28.0199Z" fill="white"/>
<path d="M81.2384 28.9999C81.0331 28.9999 80.8744 28.9486 80.7624 28.8459C80.6597 28.7339 80.6084 28.5752 80.6084 28.3699V19.7599C80.6084 19.5546 80.6597 19.4006 80.7624 19.2979C80.8744 19.1859 81.0331 19.1299 81.2384 19.1299H86.4464C86.6051 19.1299 86.7264 19.1719 86.8104 19.2559C86.8944 19.3399 86.9364 19.4566 86.9364 19.6059C86.9364 19.7646 86.8944 19.8859 86.8104 19.9699C86.7264 20.0539 86.6051 20.0959 86.4464 20.0959H81.7284V23.5119H86.1524C86.3111 23.5119 86.4324 23.5539 86.5164 23.6379C86.6004 23.7126 86.6424 23.8292 86.6424 23.9879C86.6424 24.1466 86.6004 24.2679 86.5164 24.3519C86.4324 24.4359 86.3111 24.4779 86.1524 24.4779H81.7284V28.0339H86.4464C86.6051 28.0339 86.7264 28.0759 86.8104 28.1599C86.8944 28.2439 86.9364 28.3606 86.9364 28.5099C86.9364 28.6686 86.8944 28.7899 86.8104 28.8739C86.7264 28.9579 86.6051 28.9999 86.4464 28.9999H81.2384Z" fill="white"/>
<path d="M91.8258 29.1259C91.3871 29.1259 90.9578 29.0886 90.5378 29.0139C90.1178 28.9392 89.7258 28.8319 89.3618 28.6919C89.0071 28.5519 88.6851 28.3746 88.3958 28.1599C88.2838 28.0759 88.2045 27.9826 88.1578 27.8799C88.1205 27.7679 88.1111 27.6606 88.1298 27.5579C88.1578 27.4459 88.2045 27.3526 88.2698 27.2779C88.3445 27.2032 88.4331 27.1612 88.5358 27.1519C88.6385 27.1426 88.7505 27.1752 88.8718 27.2499C89.2918 27.5486 89.7398 27.7679 90.2158 27.9079C90.6918 28.0386 91.2285 28.1039 91.8258 28.1039C92.6658 28.1039 93.2865 27.9499 93.6878 27.6419C94.0985 27.3246 94.3038 26.9092 94.3038 26.3959C94.3038 25.9759 94.1545 25.6492 93.8558 25.4159C93.5665 25.1732 93.0765 24.9819 92.3858 24.8419L90.9298 24.5479C90.0525 24.3612 89.3945 24.0579 88.9558 23.6379C88.5265 23.2086 88.3118 22.6392 88.3118 21.9299C88.3118 21.4912 88.4005 21.0946 88.5778 20.7399C88.7551 20.3759 89.0025 20.0679 89.3198 19.8159C89.6371 19.5546 90.0151 19.3539 90.4538 19.2139C90.8925 19.0739 91.3778 19.0039 91.9098 19.0039C92.4978 19.0039 93.0438 19.0879 93.5478 19.2559C94.0611 19.4146 94.5231 19.6572 94.9338 19.9839C95.0365 20.0679 95.1065 20.1659 95.1438 20.2779C95.1811 20.3806 95.1858 20.4832 95.1578 20.5859C95.1298 20.6792 95.0785 20.7586 95.0038 20.8239C94.9385 20.8892 94.8498 20.9266 94.7378 20.9359C94.6351 20.9452 94.5185 20.9079 94.3878 20.8239C94.0145 20.5439 93.6271 20.3432 93.2258 20.2219C92.8245 20.0912 92.3811 20.0259 91.8958 20.0259C91.4011 20.0259 90.9718 20.1006 90.6078 20.2499C90.2531 20.3992 89.9731 20.6186 89.7678 20.9079C89.5718 21.1879 89.4738 21.5146 89.4738 21.8879C89.4738 22.3359 89.6091 22.6906 89.8798 22.9519C90.1598 23.2132 90.6125 23.4046 91.2378 23.5259L92.6938 23.8339C93.6365 24.0299 94.3318 24.3286 94.7798 24.7299C95.2371 25.1219 95.4658 25.6586 95.4658 26.3399C95.4658 26.7506 95.3818 27.1286 95.2138 27.4739C95.0458 27.8192 94.8031 28.1179 94.4858 28.3699C94.1685 28.6126 93.7858 28.7992 93.3378 28.9299C92.8898 29.0606 92.3858 29.1259 91.8258 29.1259Z" fill="white"/>
<path d="M101.517 29.1259C100.546 29.1259 99.7157 28.9206 99.0251 28.5099C98.3344 28.0992 97.8024 27.5159 97.4291 26.7599C97.0651 26.0039 96.8831 25.1032 96.8831 24.0579C96.8831 23.2739 96.9857 22.5739 97.1911 21.9579C97.4057 21.3326 97.7091 20.8052 98.1011 20.3759C98.5024 19.9372 98.9924 19.6012 99.5711 19.3679C100.15 19.1252 100.798 19.0039 101.517 19.0039C102.096 19.0039 102.646 19.0879 103.169 19.2559C103.692 19.4146 104.144 19.6526 104.527 19.9699C104.648 20.0632 104.728 20.1706 104.765 20.2919C104.812 20.4039 104.816 20.5159 104.779 20.6279C104.751 20.7306 104.695 20.8192 104.611 20.8939C104.536 20.9592 104.443 20.9919 104.331 20.9919C104.219 20.9919 104.093 20.9452 103.953 20.8519C103.617 20.5812 103.248 20.3806 102.847 20.2499C102.446 20.1192 102.012 20.0539 101.545 20.0539C100.808 20.0539 100.182 20.2126 99.6691 20.5299C99.1557 20.8379 98.7684 21.2906 98.5071 21.8879C98.2457 22.4852 98.1151 23.2086 98.1151 24.0579C98.1151 24.9072 98.2457 25.6352 98.5071 26.2419C98.7684 26.8392 99.1557 27.2966 99.6691 27.6139C100.182 27.9219 100.808 28.0759 101.545 28.0759C102.002 28.0759 102.436 28.0106 102.847 27.8799C103.258 27.7399 103.636 27.5346 103.981 27.2639C104.121 27.1706 104.247 27.1286 104.359 27.1379C104.471 27.1379 104.564 27.1706 104.639 27.2359C104.714 27.3012 104.765 27.3852 104.793 27.4879C104.83 27.5906 104.83 27.6979 104.793 27.8099C104.765 27.9219 104.695 28.0199 104.583 28.1039C104.191 28.4399 103.729 28.6966 103.197 28.8739C102.674 29.0419 102.114 29.1259 101.517 29.1259Z" fill="white"/>
<path d="M106.211 29.0979C106.062 29.0979 105.94 29.0652 105.847 28.9999C105.763 28.9252 105.712 28.8319 105.693 28.7199C105.684 28.5986 105.712 28.4632 105.777 28.3139L109.627 19.5499C109.711 19.3632 109.809 19.2326 109.921 19.1579C110.042 19.0739 110.173 19.0319 110.313 19.0319C110.453 19.0319 110.579 19.0739 110.691 19.1579C110.812 19.2326 110.91 19.3632 110.985 19.5499L114.849 28.3139C114.924 28.4632 114.952 28.5986 114.933 28.7199C114.924 28.8412 114.877 28.9346 114.793 28.9999C114.709 29.0652 114.592 29.0979 114.443 29.0979C114.275 29.0979 114.14 29.0559 114.037 28.9719C113.934 28.8786 113.85 28.7479 113.785 28.5799L112.749 26.1859L113.309 26.4799H107.289L107.863 26.1859L106.841 28.5799C106.757 28.7572 106.668 28.8879 106.575 28.9719C106.482 29.0559 106.36 29.0979 106.211 29.0979ZM110.299 20.4739L108.045 25.7799L107.709 25.5139H112.889L112.581 25.7799L110.327 20.4739H110.299Z" fill="white"/>
<path d="M117.194 29.0979C117.007 29.0979 116.863 29.0466 116.76 28.9439C116.667 28.8319 116.62 28.6826 116.62 28.4959V19.7179C116.62 19.5219 116.671 19.3772 116.774 19.2839C116.877 19.1812 117.021 19.1299 117.208 19.1299H120.526C121.581 19.1299 122.393 19.3772 122.962 19.8719C123.531 20.3666 123.816 21.0712 123.816 21.9859C123.816 22.5646 123.685 23.0686 123.424 23.4979C123.172 23.9179 122.799 24.2399 122.304 24.4639C121.809 24.6786 121.217 24.7859 120.526 24.7859L120.666 24.6039H120.946C121.31 24.6039 121.627 24.6972 121.898 24.8839C122.169 25.0706 122.416 25.3692 122.64 25.7799L123.984 28.2859C124.059 28.4166 124.091 28.5472 124.082 28.6779C124.082 28.7992 124.04 28.9019 123.956 28.9859C123.872 29.0606 123.751 29.0979 123.592 29.0979C123.433 29.0979 123.303 29.0606 123.2 28.9859C123.097 28.9112 123.009 28.8039 122.934 28.6639L121.408 25.8359C121.193 25.4346 120.946 25.1686 120.666 25.0379C120.386 24.8979 120.017 24.8279 119.56 24.8279H117.768V28.4959C117.768 28.6826 117.721 28.8319 117.628 28.9439C117.535 29.0466 117.39 29.0979 117.194 29.0979ZM117.768 23.9179H120.358C121.123 23.9179 121.702 23.7592 122.094 23.4419C122.486 23.1152 122.682 22.6299 122.682 21.9859C122.682 21.3606 122.486 20.8892 122.094 20.5719C121.702 20.2452 121.123 20.0819 120.358 20.0819H117.768V23.9179Z" fill="white"/>
<path d="M130.425 29.1259C129.37 29.1259 128.479 28.9252 127.751 28.5239C127.032 28.1226 126.486 27.5439 126.113 26.7879C125.74 26.0319 125.553 25.1266 125.553 24.0719C125.553 23.2879 125.656 22.5832 125.861 21.9579C126.076 21.3326 126.384 20.8052 126.785 20.3759C127.196 19.9372 127.69 19.6012 128.269 19.3679C128.857 19.1252 129.52 19.0039 130.257 19.0039C130.845 19.0039 131.414 19.0879 131.965 19.2559C132.516 19.4146 133.006 19.6712 133.435 20.0259C133.547 20.1099 133.617 20.2032 133.645 20.3059C133.673 20.4086 133.668 20.5112 133.631 20.6139C133.603 20.7166 133.552 20.8052 133.477 20.8799C133.412 20.9452 133.323 20.9826 133.211 20.9919C133.108 21.0012 133.001 20.9686 132.889 20.8939C132.506 20.5952 132.1 20.3806 131.671 20.2499C131.242 20.1099 130.766 20.0399 130.243 20.0399C129.496 20.0399 128.862 20.1986 128.339 20.5159C127.826 20.8332 127.434 21.2906 127.163 21.8879C126.902 22.4852 126.771 23.2132 126.771 24.0719C126.771 25.3786 127.074 26.3772 127.681 27.0679C128.297 27.7586 129.221 28.1039 130.453 28.1039C130.901 28.1039 131.34 28.0619 131.769 27.9779C132.198 27.8846 132.604 27.7586 132.987 27.5999L132.735 28.2579V24.7719H130.733C130.565 24.7719 130.439 24.7299 130.355 24.6459C130.271 24.5619 130.229 24.4499 130.229 24.3099C130.229 24.1606 130.271 24.0486 130.355 23.9739C130.439 23.8992 130.565 23.8619 130.733 23.8619H133.239C133.398 23.8619 133.519 23.9039 133.603 23.9879C133.687 24.0719 133.729 24.1932 133.729 24.3519V28.0059C133.729 28.1459 133.706 28.2626 133.659 28.3559C133.612 28.4492 133.533 28.5192 133.421 28.5659C133.029 28.7246 132.558 28.8599 132.007 28.9719C131.466 29.0746 130.938 29.1259 130.425 29.1259Z" fill="white"/>
<path d="M135.865 29.0979C135.716 29.0979 135.595 29.0652 135.501 28.9999C135.417 28.9252 135.366 28.8319 135.347 28.7199C135.338 28.5986 135.366 28.4632 135.431 28.3139L139.281 19.5499C139.365 19.3632 139.463 19.2326 139.575 19.1579C139.697 19.0739 139.827 19.0319 139.967 19.0319C140.107 19.0319 140.233 19.0739 140.345 19.1579C140.467 19.2326 140.565 19.3632 140.639 19.5499L144.503 28.3139C144.578 28.4632 144.606 28.5986 144.587 28.7199C144.578 28.8412 144.531 28.9346 144.447 28.9999C144.363 29.0652 144.247 29.0979 144.097 29.0979C143.929 29.0979 143.794 29.0559 143.691 28.9719C143.589 28.8786 143.505 28.7479 143.439 28.5799L142.403 26.1859L142.963 26.4799H136.943L137.517 26.1859L136.495 28.5799C136.411 28.7572 136.323 28.8879 136.229 28.9719C136.136 29.0559 136.015 29.0979 135.865 29.0979ZM139.953 20.4739L137.699 25.7799L137.363 25.5139H142.543L142.235 25.7799L139.981 20.4739H139.953Z" fill="white"/>
<path d="M146.848 29.0979C146.662 29.0979 146.517 29.0466 146.414 28.9439C146.321 28.8319 146.274 28.6826 146.274 28.4959V19.7179C146.274 19.5219 146.326 19.3772 146.428 19.2839C146.531 19.1812 146.676 19.1299 146.862 19.1299H150.18C151.235 19.1299 152.047 19.3772 152.616 19.8719C153.186 20.3666 153.47 21.0712 153.47 21.9859C153.47 22.5646 153.34 23.0686 153.078 23.4979C152.826 23.9179 152.453 24.2399 151.958 24.4639C151.464 24.6786 150.871 24.7859 150.18 24.7859L150.32 24.6039H150.6C150.964 24.6039 151.282 24.6972 151.552 24.8839C151.823 25.0706 152.07 25.3692 152.294 25.7799L153.638 28.2859C153.713 28.4166 153.746 28.5472 153.736 28.6779C153.736 28.7992 153.694 28.9019 153.61 28.9859C153.526 29.0606 153.405 29.0979 153.246 29.0979C153.088 29.0979 152.957 29.0606 152.854 28.9859C152.752 28.9112 152.663 28.8039 152.588 28.6639L151.062 25.8359C150.848 25.4346 150.6 25.1686 150.32 25.0379C150.04 24.8979 149.672 24.8279 149.214 24.8279H147.422V28.4959C147.422 28.6826 147.376 28.8319 147.282 28.9439C147.189 29.0466 147.044 29.0979 146.848 29.0979ZM147.422 23.9179H150.012C150.778 23.9179 151.356 23.7592 151.748 23.4419C152.14 23.1152 152.336 22.6299 152.336 21.9859C152.336 21.3606 152.14 20.8892 151.748 20.5719C151.356 20.2452 150.778 20.0819 150.012 20.0819H147.422V23.9179Z" fill="white"/>
<path d="M159.879 28.9999C159.674 28.9999 159.515 28.9486 159.403 28.8459C159.3 28.7339 159.249 28.5752 159.249 28.3699V19.7599C159.249 19.5546 159.3 19.4006 159.403 19.2979C159.515 19.1859 159.674 19.1299 159.879 19.1299H162.581C164.177 19.1299 165.409 19.5499 166.277 20.3899C167.145 21.2299 167.579 22.4526 167.579 24.0579C167.579 24.8606 167.467 25.5699 167.243 26.1859C167.028 26.7926 166.706 27.3059 166.277 27.7259C165.848 28.1459 165.325 28.4632 164.709 28.6779C164.093 28.8926 163.384 28.9999 162.581 28.9999H159.879ZM160.397 28.0199H162.497C163.15 28.0199 163.715 27.9359 164.191 27.7679C164.676 27.5999 165.078 27.3526 165.395 27.0259C165.722 26.6992 165.964 26.2886 166.123 25.7939C166.282 25.2899 166.361 24.7112 166.361 24.0579C166.361 22.7419 166.039 21.7572 165.395 21.1039C164.751 20.4412 163.785 20.1099 162.497 20.1099H160.397V28.0199Z" fill="white"/>
<path d="M170.27 28.9999C170.064 28.9999 169.906 28.9486 169.794 28.8459C169.691 28.7339 169.64 28.5752 169.64 28.3699V19.7599C169.64 19.5546 169.691 19.4006 169.794 19.2979C169.906 19.1859 170.064 19.1299 170.27 19.1299H175.478C175.636 19.1299 175.758 19.1719 175.842 19.2559C175.926 19.3399 175.968 19.4566 175.968 19.6059C175.968 19.7646 175.926 19.8859 175.842 19.9699C175.758 20.0539 175.636 20.0959 175.478 20.0959H170.76V23.5119H175.184C175.342 23.5119 175.464 23.5539 175.548 23.6379C175.632 23.7126 175.674 23.8292 175.674 23.9879C175.674 24.1466 175.632 24.2679 175.548 24.3519C175.464 24.4359 175.342 24.4779 175.184 24.4779H170.76V28.0339H175.478C175.636 28.0339 175.758 28.0759 175.842 28.1599C175.926 28.2439 175.968 28.3606 175.968 28.5099C175.968 28.6686 175.926 28.7899 175.842 28.8739C175.758 28.9579 175.636 28.9999 175.478 28.9999H170.27Z" fill="white"/>
<path d="M76.3201 50.2002C74.7601 50.2002 73.4401 49.9069 72.3601 49.3202C71.2934 48.7335 70.4801 47.9002 69.9201 46.8202C69.3601 45.7402 69.0801 44.4602 69.0801 42.9802C69.0801 41.8602 69.2401 40.8535 69.5601 39.9602C69.8934 39.0669 70.3667 38.3069 70.9801 37.6802C71.6067 37.0402 72.3667 36.5535 73.2601 36.2202C74.1534 35.8735 75.1667 35.7002 76.3001 35.7002C77.0467 35.7002 77.7934 35.7935 78.5401 35.9802C79.3001 36.1535 80.0134 36.4535 80.6801 36.8802C80.9067 37.0269 81.0534 37.2069 81.1201 37.4202C81.2001 37.6335 81.2134 37.8535 81.1601 38.0802C81.1067 38.2935 81.0067 38.4802 80.8601 38.6402C80.7134 38.8002 80.5267 38.9002 80.3001 38.9402C80.0867 38.9802 79.8467 38.9269 79.5801 38.7802C79.0734 38.4869 78.5601 38.2735 78.0401 38.1402C77.5201 38.0069 76.9401 37.9402 76.3001 37.9402C75.3134 37.9402 74.4801 38.1402 73.8001 38.5402C73.1201 38.9269 72.6067 39.4935 72.2601 40.2402C71.9267 40.9869 71.7601 41.9002 71.7601 42.9802C71.7601 44.6202 72.1534 45.8669 72.9401 46.7202C73.7267 47.5735 74.8934 48.0002 76.4401 48.0002C76.9734 48.0002 77.5134 47.9469 78.0601 47.8402C78.6067 47.7335 79.1401 47.5869 79.6601 47.4002L79.1601 48.5402V44.2802H76.9601C76.6267 44.2802 76.3667 44.1935 76.1801 44.0202C76.0067 43.8469 75.9201 43.6135 75.9201 43.3202C75.9201 43.0135 76.0067 42.7802 76.1801 42.6202C76.3667 42.4602 76.6267 42.3802 76.9601 42.3802H80.2601C80.5934 42.3802 80.8467 42.4735 81.0201 42.6602C81.2067 42.8335 81.3001 43.0869 81.3001 43.4202V48.2802C81.3001 48.5735 81.2401 48.8202 81.1201 49.0202C81.0134 49.2202 80.8334 49.3669 80.5801 49.4602C79.9934 49.6735 79.3201 49.8535 78.5601 50.0002C77.8001 50.1335 77.0534 50.2002 76.3201 50.2002Z" fill="white"/>
<path d="M89.9866 50.2002C88.6266 50.2002 87.4333 49.9002 86.4066 49.3002C85.3933 48.7002 84.6066 47.8602 84.0466 46.7802C83.4866 45.6869 83.2066 44.4069 83.2066 42.9402C83.2066 41.8335 83.3666 40.8402 83.6866 39.9602C84.0066 39.0669 84.46 38.3069 85.0466 37.6802C85.6466 37.0402 86.36 36.5535 87.1866 36.2202C88.0266 35.8735 88.96 35.7002 89.9866 35.7002C91.36 35.7002 92.5533 36.0002 93.5666 36.6002C94.58 37.1869 95.3666 38.0202 95.9266 39.1002C96.4866 40.1802 96.7666 41.4535 96.7666 42.9202C96.7666 44.0269 96.6066 45.0269 96.2866 45.9202C95.9666 46.8135 95.5066 47.5802 94.9066 48.2202C94.32 48.8602 93.6066 49.3535 92.7666 49.7002C91.94 50.0335 91.0133 50.2002 89.9866 50.2002ZM89.9866 48.0002C90.8533 48.0002 91.5866 47.8002 92.1866 47.4002C92.8 47.0002 93.2666 46.4202 93.5866 45.6602C93.92 44.9002 94.0866 43.9935 94.0866 42.9402C94.0866 41.3402 93.7266 40.1002 93.0066 39.2202C92.3 38.3402 91.2933 37.9002 89.9866 37.9002C89.1333 37.9002 88.4 38.1002 87.7866 38.5002C87.1733 38.8869 86.7 39.4602 86.3666 40.2202C86.0466 40.9669 85.8866 41.8735 85.8866 42.9402C85.8866 44.5269 86.2466 45.7669 86.9666 46.6602C87.6866 47.5535 88.6933 48.0002 89.9866 48.0002Z" fill="white"/>
<path d="M105.09 50.2002C103.73 50.2002 102.536 49.9002 101.51 49.3002C100.496 48.7002 99.7098 47.8602 99.1498 46.7802C98.5898 45.6869 98.3098 44.4069 98.3098 42.9402C98.3098 41.8335 98.4698 40.8402 98.7898 39.9602C99.1098 39.0669 99.5631 38.3069 100.15 37.6802C100.75 37.0402 101.463 36.5535 102.29 36.2202C103.13 35.8735 104.063 35.7002 105.09 35.7002C106.463 35.7002 107.656 36.0002 108.67 36.6002C109.683 37.1869 110.47 38.0202 111.03 39.1002C111.59 40.1802 111.87 41.4535 111.87 42.9202C111.87 44.0269 111.71 45.0269 111.39 45.9202C111.07 46.8135 110.61 47.5802 110.01 48.2202C109.423 48.8602 108.71 49.3535 107.87 49.7002C107.043 50.0335 106.116 50.2002 105.09 50.2002ZM105.09 48.0002C105.956 48.0002 106.69 47.8002 107.29 47.4002C107.903 47.0002 108.37 46.4202 108.69 45.6602C109.023 44.9002 109.19 43.9935 109.19 42.9402C109.19 41.3402 108.83 40.1002 108.11 39.2202C107.403 38.3402 106.396 37.9002 105.09 37.9002C104.236 37.9002 103.503 38.1002 102.89 38.5002C102.276 38.8869 101.803 39.4602 101.47 40.2202C101.15 40.9669 100.99 41.8735 100.99 42.9402C100.99 44.5269 101.35 45.7669 102.07 46.6602C102.79 47.5535 103.796 48.0002 105.09 48.0002Z" fill="white"/>
<path d="M120.653 50.2002C119.093 50.2002 117.773 49.9069 116.693 49.3202C115.626 48.7335 114.813 47.9002 114.253 46.8202C113.693 45.7402 113.413 44.4602 113.413 42.9802C113.413 41.8602 113.573 40.8535 113.893 39.9602C114.226 39.0669 114.7 38.3069 115.313 37.6802C115.94 37.0402 116.7 36.5535 117.593 36.2202C118.486 35.8735 119.5 35.7002 120.633 35.7002C121.38 35.7002 122.126 35.7935 122.873 35.9802C123.633 36.1535 124.346 36.4535 125.013 36.8802C125.24 37.0269 125.386 37.2069 125.453 37.4202C125.533 37.6335 125.546 37.8535 125.493 38.0802C125.44 38.2935 125.34 38.4802 125.193 38.6402C125.046 38.8002 124.86 38.9002 124.633 38.9402C124.42 38.9802 124.18 38.9269 123.913 38.7802C123.406 38.4869 122.893 38.2735 122.373 38.1402C121.853 38.0069 121.273 37.9402 120.633 37.9402C119.646 37.9402 118.813 38.1402 118.133 38.5402C117.453 38.9269 116.94 39.4935 116.593 40.2402C116.26 40.9869 116.093 41.9002 116.093 42.9802C116.093 44.6202 116.486 45.8669 117.273 46.7202C118.06 47.5735 119.226 48.0002 120.773 48.0002C121.306 48.0002 121.846 47.9469 122.393 47.8402C122.94 47.7335 123.473 47.5869 123.993 47.4002L123.493 48.5402V44.2802H121.293C120.96 44.2802 120.7 44.1935 120.513 44.0202C120.34 43.8469 120.253 43.6135 120.253 43.3202C120.253 43.0135 120.34 42.7802 120.513 42.6202C120.7 42.4602 120.96 42.3802 121.293 42.3802H124.593C124.926 42.3802 125.18 42.4735 125.353 42.6602C125.54 42.8335 125.633 43.0869 125.633 43.4202V48.2802C125.633 48.5735 125.573 48.8202 125.453 49.0202C125.346 49.2202 125.166 49.3669 124.913 49.4602C124.326 49.6735 123.653 49.8535 122.893 50.0002C122.133 50.1335 121.386 50.2002 120.653 50.2002Z" fill="white"/>
<path d="M129.299 50.0002C128.886 50.0002 128.566 49.8869 128.339 49.6602C128.113 49.4202 127.999 49.0935 127.999 48.6802V37.1402C127.999 36.7135 128.106 36.3935 128.319 36.1802C128.546 35.9535 128.866 35.8402 129.279 35.8402C129.693 35.8402 130.006 35.9535 130.219 36.1802C130.446 36.3935 130.559 36.7135 130.559 37.1402V47.8202H136.359C136.719 47.8202 136.993 47.9135 137.179 48.1002C137.379 48.2869 137.479 48.5535 137.479 48.9002C137.479 49.2469 137.379 49.5202 137.179 49.7202C136.993 49.9069 136.719 50.0002 136.359 50.0002H129.299Z" fill="white"/>
<path d="M139.99 50.0002C139.55 50.0002 139.21 49.8869 138.97 49.6602C138.743 49.4202 138.63 49.0802 138.63 48.6402V37.2602C138.63 36.8202 138.743 36.4869 138.97 36.2602C139.21 36.0202 139.55 35.9002 139.99 35.9002H147.13C147.463 35.9002 147.717 35.9869 147.89 36.1602C148.077 36.3335 148.17 36.5802 148.17 36.9002C148.17 37.2335 148.077 37.4935 147.89 37.6802C147.717 37.8535 147.463 37.9402 147.13 37.9402H141.09V41.8202H146.69C147.037 41.8202 147.297 41.9069 147.47 42.0802C147.643 42.2535 147.73 42.5069 147.73 42.8402C147.73 43.1735 147.643 43.4269 147.47 43.6002C147.297 43.7735 147.037 43.8602 146.69 43.8602H141.09V47.9602H147.13C147.463 47.9602 147.717 48.0469 147.89 48.2202C148.077 48.3935 148.17 48.6469 148.17 48.9802C148.17 49.3135 148.077 49.5669 147.89 49.7402C147.717 49.9135 147.463 50.0002 147.13 50.0002H139.99Z" fill="white"/>
<path d="M156.073 50.1602C155.66 50.1602 155.34 50.0469 155.113 49.8202C154.9 49.5802 154.793 49.2535 154.793 48.8402V37.2002C154.793 36.7735 154.907 36.4535 155.133 36.2402C155.36 36.0135 155.68 35.9002 156.093 35.9002H160.913C162.46 35.9002 163.653 36.2869 164.493 37.0602C165.333 37.8335 165.753 38.9135 165.753 40.3002C165.753 41.6869 165.333 42.7735 164.493 43.5602C163.653 44.3335 162.46 44.7202 160.913 44.7202H157.353V48.8402C157.353 49.2535 157.247 49.5802 157.033 49.8202C156.82 50.0469 156.5 50.1602 156.073 50.1602ZM157.353 42.7002H160.513C161.42 42.7002 162.107 42.5002 162.573 42.1002C163.04 41.6869 163.273 41.0869 163.273 40.3002C163.273 39.5135 163.04 38.9202 162.573 38.5202C162.107 38.1202 161.42 37.9202 160.513 37.9202H157.353V42.7002Z" fill="white"/>
<path d="M168.54 50.0002C168.127 50.0002 167.807 49.8869 167.58 49.6602C167.353 49.4202 167.24 49.0935 167.24 48.6802V37.1402C167.24 36.7135 167.347 36.3935 167.56 36.1802C167.787 35.9535 168.107 35.8402 168.52 35.8402C168.933 35.8402 169.247 35.9535 169.46 36.1802C169.687 36.3935 169.8 36.7135 169.8 37.1402V47.8202H175.6C175.96 47.8202 176.233 47.9135 176.42 48.1002C176.62 48.2869 176.72 48.5535 176.72 48.9002C176.72 49.2469 176.62 49.5202 176.42 49.7202C176.233 49.9069 175.96 50.0002 175.6 50.0002H168.54Z" fill="white"/>
<path d="M177.718 50.1602C177.398 50.1602 177.138 50.0869 176.938 49.9402C176.751 49.7935 176.638 49.6002 176.598 49.3602C176.558 49.1069 176.604 48.8269 176.738 48.5202L182.018 36.8202C182.191 36.4335 182.398 36.1602 182.638 36.0002C182.891 35.8269 183.178 35.7402 183.498 35.7402C183.804 35.7402 184.078 35.8269 184.318 36.0002C184.571 36.1602 184.784 36.4335 184.958 36.8202L190.258 48.5202C190.404 48.8269 190.458 49.1069 190.418 49.3602C190.378 49.6135 190.264 49.8135 190.078 49.9602C189.891 50.0935 189.644 50.1602 189.338 50.1602C188.964 50.1602 188.671 50.0735 188.458 49.9002C188.258 49.7135 188.078 49.4335 187.918 49.0602L186.618 46.0402L187.698 46.7402H179.258L180.338 46.0402L179.058 49.0602C178.884 49.4469 178.704 49.7269 178.518 49.9002C178.331 50.0735 178.064 50.1602 177.718 50.1602ZM183.458 38.6802L180.658 45.3402L180.138 44.7002H186.818L186.318 45.3402L183.498 38.6802H183.458Z" fill="white"/>
<path d="M195.192 50.1602C194.778 50.1602 194.458 50.0469 194.232 49.8202C194.018 49.5802 193.912 49.2469 193.912 48.8202V42.7402L194.452 44.2802L189.632 37.5002C189.458 37.2602 189.378 37.0069 189.392 36.7402C189.418 36.4602 189.532 36.2269 189.732 36.0402C189.932 35.8402 190.212 35.7402 190.572 35.7402C190.838 35.7402 191.078 35.8069 191.292 35.9402C191.518 36.0735 191.732 36.2802 191.932 36.5602L195.512 41.6402H194.952L198.552 36.5602C198.765 36.2669 198.972 36.0602 199.172 35.9402C199.372 35.8069 199.618 35.7402 199.912 35.7402C200.258 35.7402 200.525 35.8335 200.712 36.0202C200.912 36.1935 201.012 36.4135 201.012 36.6802C201.025 36.9469 200.932 37.2269 200.732 37.5202L195.952 44.2802L196.472 42.7402V48.8202C196.472 49.7135 196.045 50.1602 195.192 50.1602Z" fill="white"/>
<defs>
<linearGradient id="paint0_linear_695_315" x1="19.0034" y1="21.0835" x2="42.7361" y2="21.0835" gradientUnits="userSpaceOnUse">
<stop stop-color="#63BE6B"/>
<stop offset="0.506" stop-color="#5BBC6A"/>
<stop offset="1" stop-color="#4AB96A"/>
</linearGradient>
<linearGradient id="paint1_linear_695_315" x1="19.0171" y1="31.0955" x2="35.3146" y2="31.0955" gradientUnits="userSpaceOnUse">
<stop stop-color="#3EC6F2"/>
<stop offset="1" stop-color="#45AFE3"/>
</linearGradient>
<linearGradient id="paint2_linear_695_315" x1="35.3144" y1="31.6416" x2="55.9945" y2="31.6416" gradientUnits="userSpaceOnUse">
<stop stop-color="#FAA51A"/>
<stop offset="0.387" stop-color="#FAB716"/>
<stop offset="0.741" stop-color="#FAC412"/>
<stop offset="1" stop-color="#FAC80F"/>
</linearGradient>
<linearGradient id="paint3_linear_695_315" x1="19.1612" y1="42.0814" x2="43.6923" y2="42.0814" gradientUnits="userSpaceOnUse">
<stop stop-color="#EC3B50"/>
<stop offset="1" stop-color="#E7515B"/>
</linearGradient>
<clipPath id="clip0_695_315">
<rect width="37" height="42" fill="white" transform="translate(19 11)"/>
</clipPath>
</defs>
</svg>
