<svg width="218" height="65" viewBox="0 0 218 65" fill="none" xmlns="http://www.w3.org/2000/svg">
<rect width="218" height="65" rx="10" fill="black"/>
<path d="M53 42.1119C52.3333 44.1959 51.2857 46.422 49.7619 48.6954C47.4762 52.2002 45.1905 53.9053 42.9048 53.9053C42 53.9053 40.8095 53.6211 39.1905 53.0527C37.619 52.4844 36.2857 52.2002 35.1905 52.2002C34.1429 52.2002 32.8571 52.4844 31.4286 53.1001C29.9524 53.6685 28.7619 54 27.9048 54C25.1905 54 22.5238 51.6792 19.9048 47.1324C17.3333 42.5856 16 38.1808 16 33.8235C16 29.7976 17 26.5296 19 23.972C21 21.4144 23.4762 20.1356 26.5714 20.1356C27.8571 20.1356 29.381 20.4198 31.2381 20.9408C33.0952 21.4618 34.3333 21.746 34.9048 21.746C35.7143 21.746 36.9524 21.4618 38.7143 20.8461C40.4762 20.2304 42 19.9462 43.3333 19.9462C45.4286 19.9462 47.3333 20.5145 49 21.6512C49.9048 22.267 50.8571 23.1668 51.7619 24.3036C50.381 25.4403 49.3333 26.4822 48.7143 27.4295C47.5714 29.0398 47 30.887 47 32.8762C47 35.0549 47.619 37.0441 48.8095 38.7966C50 40.549 51.4286 41.6383 53 42.1119V42.1119ZM43.0476 11.0893C43.0476 12.1787 42.7619 13.4101 42.2381 14.6889C41.7143 16.0151 40.9048 17.2465 39.7619 18.3358C38.8095 19.2831 37.8571 19.9462 36.9048 20.2304C36.2857 20.4198 35.381 20.6093 34.1429 20.704C34.1905 18.099 34.9048 15.8256 36.2381 13.8837C37.5714 11.9419 39.7619 10.7104 42.8571 10C42.9048 10.2368 42.9524 10.4263 43 10.5684C43 10.7578 43.0476 10.8999 43.0476 11.0893V11.0893Z" fill="white"/>
<path d="M70.8478 28.9999C70.6424 28.9999 70.4838 28.9486 70.3718 28.8459C70.2691 28.7339 70.2178 28.5752 70.2178 28.3699V19.7599C70.2178 19.5546 70.2691 19.4006 70.3718 19.2979C70.4838 19.1859 70.6424 19.1299 70.8478 19.1299H73.5498C75.1458 19.1299 76.3778 19.5499 77.2458 20.3899C78.1138 21.2299 78.5478 22.4526 78.5478 24.0579C78.5478 24.8606 78.4358 25.5699 78.2118 26.1859C77.9971 26.7926 77.6751 27.3059 77.2458 27.7259C76.8164 28.1459 76.2938 28.4632 75.6778 28.6779C75.0618 28.8926 74.3524 28.9999 73.5498 28.9999H70.8478ZM71.3658 28.0199H73.4658C74.1191 28.0199 74.6838 27.9359 75.1598 27.7679C75.6451 27.5999 76.0464 27.3526 76.3638 27.0259C76.6904 26.6992 76.9331 26.2886 77.0918 25.7939C77.2504 25.2899 77.3298 24.7112 77.3298 24.0579C77.3298 22.7419 77.0078 21.7572 76.3638 21.1039C75.7198 20.4412 74.7538 20.1099 73.4658 20.1099H71.3658V28.0199Z" fill="white"/>
<path d="M81.2384 28.9999C81.0331 28.9999 80.8744 28.9486 80.7624 28.8459C80.6597 28.7339 80.6084 28.5752 80.6084 28.3699V19.7599C80.6084 19.5546 80.6597 19.4006 80.7624 19.2979C80.8744 19.1859 81.0331 19.1299 81.2384 19.1299H86.4464C86.6051 19.1299 86.7264 19.1719 86.8104 19.2559C86.8944 19.3399 86.9364 19.4566 86.9364 19.6059C86.9364 19.7646 86.8944 19.8859 86.8104 19.9699C86.7264 20.0539 86.6051 20.0959 86.4464 20.0959H81.7284V23.5119H86.1524C86.3111 23.5119 86.4324 23.5539 86.5164 23.6379C86.6004 23.7126 86.6424 23.8292 86.6424 23.9879C86.6424 24.1466 86.6004 24.2679 86.5164 24.3519C86.4324 24.4359 86.3111 24.4779 86.1524 24.4779H81.7284V28.0339H86.4464C86.6051 28.0339 86.7264 28.0759 86.8104 28.1599C86.8944 28.2439 86.9364 28.3606 86.9364 28.5099C86.9364 28.6686 86.8944 28.7899 86.8104 28.8739C86.7264 28.9579 86.6051 28.9999 86.4464 28.9999H81.2384Z" fill="white"/>
<path d="M91.8258 29.1259C91.3871 29.1259 90.9578 29.0886 90.5378 29.0139C90.1178 28.9392 89.7258 28.8319 89.3618 28.6919C89.0071 28.5519 88.6851 28.3746 88.3958 28.1599C88.2838 28.0759 88.2045 27.9826 88.1578 27.8799C88.1205 27.7679 88.1111 27.6606 88.1298 27.5579C88.1578 27.4459 88.2045 27.3526 88.2698 27.2779C88.3445 27.2032 88.4331 27.1612 88.5358 27.1519C88.6385 27.1426 88.7505 27.1752 88.8718 27.2499C89.2918 27.5486 89.7398 27.7679 90.2158 27.9079C90.6918 28.0386 91.2285 28.1039 91.8258 28.1039C92.6658 28.1039 93.2865 27.9499 93.6878 27.6419C94.0985 27.3246 94.3038 26.9092 94.3038 26.3959C94.3038 25.9759 94.1545 25.6492 93.8558 25.4159C93.5665 25.1732 93.0765 24.9819 92.3858 24.8419L90.9298 24.5479C90.0525 24.3612 89.3945 24.0579 88.9558 23.6379C88.5265 23.2086 88.3118 22.6392 88.3118 21.9299C88.3118 21.4912 88.4005 21.0946 88.5778 20.7399C88.7551 20.3759 89.0025 20.0679 89.3198 19.8159C89.6371 19.5546 90.0151 19.3539 90.4538 19.2139C90.8925 19.0739 91.3778 19.0039 91.9098 19.0039C92.4978 19.0039 93.0438 19.0879 93.5478 19.2559C94.0611 19.4146 94.5231 19.6572 94.9338 19.9839C95.0365 20.0679 95.1065 20.1659 95.1438 20.2779C95.1811 20.3806 95.1858 20.4832 95.1578 20.5859C95.1298 20.6792 95.0785 20.7586 95.0038 20.8239C94.9385 20.8892 94.8498 20.9266 94.7378 20.9359C94.6351 20.9452 94.5185 20.9079 94.3878 20.8239C94.0145 20.5439 93.6271 20.3432 93.2258 20.2219C92.8245 20.0912 92.3811 20.0259 91.8958 20.0259C91.4011 20.0259 90.9718 20.1006 90.6078 20.2499C90.2531 20.3992 89.9731 20.6186 89.7678 20.9079C89.5718 21.1879 89.4738 21.5146 89.4738 21.8879C89.4738 22.3359 89.6091 22.6906 89.8798 22.9519C90.1598 23.2132 90.6125 23.4046 91.2378 23.5259L92.6938 23.8339C93.6365 24.0299 94.3318 24.3286 94.7798 24.7299C95.2371 25.1219 95.4658 25.6586 95.4658 26.3399C95.4658 26.7506 95.3818 27.1286 95.2138 27.4739C95.0458 27.8192 94.8031 28.1179 94.4858 28.3699C94.1685 28.6126 93.7858 28.7992 93.3378 28.9299C92.8898 29.0606 92.3858 29.1259 91.8258 29.1259Z" fill="white"/>
<path d="M101.517 29.1259C100.546 29.1259 99.7157 28.9206 99.0251 28.5099C98.3344 28.0992 97.8024 27.5159 97.4291 26.7599C97.0651 26.0039 96.8831 25.1032 96.8831 24.0579C96.8831 23.2739 96.9857 22.5739 97.1911 21.9579C97.4057 21.3326 97.7091 20.8052 98.1011 20.3759C98.5024 19.9372 98.9924 19.6012 99.5711 19.3679C100.15 19.1252 100.798 19.0039 101.517 19.0039C102.096 19.0039 102.646 19.0879 103.169 19.2559C103.692 19.4146 104.144 19.6526 104.527 19.9699C104.648 20.0632 104.728 20.1706 104.765 20.2919C104.812 20.4039 104.816 20.5159 104.779 20.6279C104.751 20.7306 104.695 20.8192 104.611 20.8939C104.536 20.9592 104.443 20.9919 104.331 20.9919C104.219 20.9919 104.093 20.9452 103.953 20.8519C103.617 20.5812 103.248 20.3806 102.847 20.2499C102.446 20.1192 102.012 20.0539 101.545 20.0539C100.808 20.0539 100.182 20.2126 99.6691 20.5299C99.1557 20.8379 98.7684 21.2906 98.5071 21.8879C98.2457 22.4852 98.1151 23.2086 98.1151 24.0579C98.1151 24.9072 98.2457 25.6352 98.5071 26.2419C98.7684 26.8392 99.1557 27.2966 99.6691 27.6139C100.182 27.9219 100.808 28.0759 101.545 28.0759C102.002 28.0759 102.436 28.0106 102.847 27.8799C103.258 27.7399 103.636 27.5346 103.981 27.2639C104.121 27.1706 104.247 27.1286 104.359 27.1379C104.471 27.1379 104.564 27.1706 104.639 27.2359C104.714 27.3012 104.765 27.3852 104.793 27.4879C104.83 27.5906 104.83 27.6979 104.793 27.8099C104.765 27.9219 104.695 28.0199 104.583 28.1039C104.191 28.4399 103.729 28.6966 103.197 28.8739C102.674 29.0419 102.114 29.1259 101.517 29.1259Z" fill="white"/>
<path d="M106.211 29.0979C106.062 29.0979 105.94 29.0652 105.847 28.9999C105.763 28.9252 105.712 28.8319 105.693 28.7199C105.684 28.5986 105.712 28.4632 105.777 28.3139L109.627 19.5499C109.711 19.3632 109.809 19.2326 109.921 19.1579C110.042 19.0739 110.173 19.0319 110.313 19.0319C110.453 19.0319 110.579 19.0739 110.691 19.1579C110.812 19.2326 110.91 19.3632 110.985 19.5499L114.849 28.3139C114.924 28.4632 114.952 28.5986 114.933 28.7199C114.924 28.8412 114.877 28.9346 114.793 28.9999C114.709 29.0652 114.592 29.0979 114.443 29.0979C114.275 29.0979 114.14 29.0559 114.037 28.9719C113.934 28.8786 113.85 28.7479 113.785 28.5799L112.749 26.1859L113.309 26.4799H107.289L107.863 26.1859L106.841 28.5799C106.757 28.7572 106.668 28.8879 106.575 28.9719C106.482 29.0559 106.36 29.0979 106.211 29.0979ZM110.299 20.4739L108.045 25.7799L107.709 25.5139H112.889L112.581 25.7799L110.327 20.4739H110.299Z" fill="white"/>
<path d="M117.194 29.0979C117.007 29.0979 116.863 29.0466 116.76 28.9439C116.667 28.8319 116.62 28.6826 116.62 28.4959V19.7179C116.62 19.5219 116.671 19.3772 116.774 19.2839C116.877 19.1812 117.021 19.1299 117.208 19.1299H120.526C121.581 19.1299 122.393 19.3772 122.962 19.8719C123.531 20.3666 123.816 21.0712 123.816 21.9859C123.816 22.5646 123.685 23.0686 123.424 23.4979C123.172 23.9179 122.799 24.2399 122.304 24.4639C121.809 24.6786 121.217 24.7859 120.526 24.7859L120.666 24.6039H120.946C121.31 24.6039 121.627 24.6972 121.898 24.8839C122.169 25.0706 122.416 25.3692 122.64 25.7799L123.984 28.2859C124.059 28.4166 124.091 28.5472 124.082 28.6779C124.082 28.7992 124.04 28.9019 123.956 28.9859C123.872 29.0606 123.751 29.0979 123.592 29.0979C123.433 29.0979 123.303 29.0606 123.2 28.9859C123.097 28.9112 123.009 28.8039 122.934 28.6639L121.408 25.8359C121.193 25.4346 120.946 25.1686 120.666 25.0379C120.386 24.8979 120.017 24.8279 119.56 24.8279H117.768V28.4959C117.768 28.6826 117.721 28.8319 117.628 28.9439C117.535 29.0466 117.39 29.0979 117.194 29.0979ZM117.768 23.9179H120.358C121.123 23.9179 121.702 23.7592 122.094 23.4419C122.486 23.1152 122.682 22.6299 122.682 21.9859C122.682 21.3606 122.486 20.8892 122.094 20.5719C121.702 20.2452 121.123 20.0819 120.358 20.0819H117.768V23.9179Z" fill="white"/>
<path d="M130.425 29.1259C129.37 29.1259 128.479 28.9252 127.751 28.5239C127.032 28.1226 126.486 27.5439 126.113 26.7879C125.74 26.0319 125.553 25.1266 125.553 24.0719C125.553 23.2879 125.656 22.5832 125.861 21.9579C126.076 21.3326 126.384 20.8052 126.785 20.3759C127.196 19.9372 127.69 19.6012 128.269 19.3679C128.857 19.1252 129.52 19.0039 130.257 19.0039C130.845 19.0039 131.414 19.0879 131.965 19.2559C132.516 19.4146 133.006 19.6712 133.435 20.0259C133.547 20.1099 133.617 20.2032 133.645 20.3059C133.673 20.4086 133.668 20.5112 133.631 20.6139C133.603 20.7166 133.552 20.8052 133.477 20.8799C133.412 20.9452 133.323 20.9826 133.211 20.9919C133.108 21.0012 133.001 20.9686 132.889 20.8939C132.506 20.5952 132.1 20.3806 131.671 20.2499C131.242 20.1099 130.766 20.0399 130.243 20.0399C129.496 20.0399 128.862 20.1986 128.339 20.5159C127.826 20.8332 127.434 21.2906 127.163 21.8879C126.902 22.4852 126.771 23.2132 126.771 24.0719C126.771 25.3786 127.074 26.3772 127.681 27.0679C128.297 27.7586 129.221 28.1039 130.453 28.1039C130.901 28.1039 131.34 28.0619 131.769 27.9779C132.198 27.8846 132.604 27.7586 132.987 27.5999L132.735 28.2579V24.7719H130.733C130.565 24.7719 130.439 24.7299 130.355 24.6459C130.271 24.5619 130.229 24.4499 130.229 24.3099C130.229 24.1606 130.271 24.0486 130.355 23.9739C130.439 23.8992 130.565 23.8619 130.733 23.8619H133.239C133.398 23.8619 133.519 23.9039 133.603 23.9879C133.687 24.0719 133.729 24.1932 133.729 24.3519V28.0059C133.729 28.1459 133.706 28.2626 133.659 28.3559C133.612 28.4492 133.533 28.5192 133.421 28.5659C133.029 28.7246 132.558 28.8599 132.007 28.9719C131.466 29.0746 130.938 29.1259 130.425 29.1259Z" fill="white"/>
<path d="M135.865 29.0979C135.716 29.0979 135.595 29.0652 135.501 28.9999C135.417 28.9252 135.366 28.8319 135.347 28.7199C135.338 28.5986 135.366 28.4632 135.431 28.3139L139.281 19.5499C139.365 19.3632 139.463 19.2326 139.575 19.1579C139.697 19.0739 139.827 19.0319 139.967 19.0319C140.107 19.0319 140.233 19.0739 140.345 19.1579C140.467 19.2326 140.565 19.3632 140.639 19.5499L144.503 28.3139C144.578 28.4632 144.606 28.5986 144.587 28.7199C144.578 28.8412 144.531 28.9346 144.447 28.9999C144.363 29.0652 144.247 29.0979 144.097 29.0979C143.929 29.0979 143.794 29.0559 143.691 28.9719C143.589 28.8786 143.505 28.7479 143.439 28.5799L142.403 26.1859L142.963 26.4799H136.943L137.517 26.1859L136.495 28.5799C136.411 28.7572 136.323 28.8879 136.229 28.9719C136.136 29.0559 136.015 29.0979 135.865 29.0979ZM139.953 20.4739L137.699 25.7799L137.363 25.5139H142.543L142.235 25.7799L139.981 20.4739H139.953Z" fill="white"/>
<path d="M146.848 29.0979C146.662 29.0979 146.517 29.0466 146.414 28.9439C146.321 28.8319 146.274 28.6826 146.274 28.4959V19.7179C146.274 19.5219 146.326 19.3772 146.428 19.2839C146.531 19.1812 146.676 19.1299 146.862 19.1299H150.18C151.235 19.1299 152.047 19.3772 152.616 19.8719C153.186 20.3666 153.47 21.0712 153.47 21.9859C153.47 22.5646 153.34 23.0686 153.078 23.4979C152.826 23.9179 152.453 24.2399 151.958 24.4639C151.464 24.6786 150.871 24.7859 150.18 24.7859L150.32 24.6039H150.6C150.964 24.6039 151.282 24.6972 151.552 24.8839C151.823 25.0706 152.07 25.3692 152.294 25.7799L153.638 28.2859C153.713 28.4166 153.746 28.5472 153.736 28.6779C153.736 28.7992 153.694 28.9019 153.61 28.9859C153.526 29.0606 153.405 29.0979 153.246 29.0979C153.088 29.0979 152.957 29.0606 152.854 28.9859C152.752 28.9112 152.663 28.8039 152.588 28.6639L151.062 25.8359C150.848 25.4346 150.6 25.1686 150.32 25.0379C150.04 24.8979 149.672 24.8279 149.214 24.8279H147.422V28.4959C147.422 28.6826 147.376 28.8319 147.282 28.9439C147.189 29.0466 147.044 29.0979 146.848 29.0979ZM147.422 23.9179H150.012C150.778 23.9179 151.356 23.7592 151.748 23.4419C152.14 23.1152 152.336 22.6299 152.336 21.9859C152.336 21.3606 152.14 20.8892 151.748 20.5719C151.356 20.2452 150.778 20.0819 150.012 20.0819H147.422V23.9179Z" fill="white"/>
<path d="M159.879 28.9999C159.674 28.9999 159.515 28.9486 159.403 28.8459C159.3 28.7339 159.249 28.5752 159.249 28.3699V19.7599C159.249 19.5546 159.3 19.4006 159.403 19.2979C159.515 19.1859 159.674 19.1299 159.879 19.1299H162.581C164.177 19.1299 165.409 19.5499 166.277 20.3899C167.145 21.2299 167.579 22.4526 167.579 24.0579C167.579 24.8606 167.467 25.5699 167.243 26.1859C167.028 26.7926 166.706 27.3059 166.277 27.7259C165.848 28.1459 165.325 28.4632 164.709 28.6779C164.093 28.8926 163.384 28.9999 162.581 28.9999H159.879ZM160.397 28.0199H162.497C163.15 28.0199 163.715 27.9359 164.191 27.7679C164.676 27.5999 165.078 27.3526 165.395 27.0259C165.722 26.6992 165.964 26.2886 166.123 25.7939C166.282 25.2899 166.361 24.7112 166.361 24.0579C166.361 22.7419 166.039 21.7572 165.395 21.1039C164.751 20.4412 163.785 20.1099 162.497 20.1099H160.397V28.0199Z" fill="white"/>
<path d="M170.27 28.9999C170.064 28.9999 169.906 28.9486 169.794 28.8459C169.691 28.7339 169.64 28.5752 169.64 28.3699V19.7599C169.64 19.5546 169.691 19.4006 169.794 19.2979C169.906 19.1859 170.064 19.1299 170.27 19.1299H175.478C175.636 19.1299 175.758 19.1719 175.842 19.2559C175.926 19.3399 175.968 19.4566 175.968 19.6059C175.968 19.7646 175.926 19.8859 175.842 19.9699C175.758 20.0539 175.636 20.0959 175.478 20.0959H170.76V23.5119H175.184C175.342 23.5119 175.464 23.5539 175.548 23.6379C175.632 23.7126 175.674 23.8292 175.674 23.9879C175.674 24.1466 175.632 24.2679 175.548 24.3519C175.464 24.4359 175.342 24.4779 175.184 24.4779H170.76V28.0339H175.478C175.636 28.0339 175.758 28.0759 175.842 28.1599C175.926 28.2439 175.968 28.3606 175.968 28.5099C175.968 28.6686 175.926 28.7899 175.842 28.8739C175.758 28.9579 175.636 28.9999 175.478 28.9999H170.27Z" fill="white"/>
<path d="M69.6802 50.1602C69.3602 50.1602 69.1002 50.0869 68.9002 49.9402C68.7136 49.7935 68.6002 49.6002 68.5602 49.3602C68.5202 49.1069 68.5669 48.8269 68.7002 48.5202L73.9802 36.8202C74.1536 36.4335 74.3602 36.1602 74.6002 36.0002C74.8536 35.8269 75.1402 35.7402 75.4602 35.7402C75.7669 35.7402 76.0402 35.8269 76.2802 36.0002C76.5336 36.1602 76.7469 36.4335 76.9202 36.8202L82.2202 48.5202C82.3669 48.8269 82.4202 49.1069 82.3802 49.3602C82.3402 49.6135 82.2269 49.8135 82.0402 49.9602C81.8536 50.0935 81.6069 50.1602 81.3002 50.1602C80.9269 50.1602 80.6336 50.0735 80.4202 49.9002C80.2202 49.7135 80.0402 49.4335 79.8802 49.0602L78.5802 46.0402L79.6602 46.7402H71.2202L72.3002 46.0402L71.0202 49.0602C70.8469 49.4469 70.6669 49.7269 70.4802 49.9002C70.2936 50.0735 70.0269 50.1602 69.6802 50.1602ZM75.4202 38.6802L72.6202 45.3402L72.1002 44.7002H78.7802L78.2802 45.3402L75.4602 38.6802H75.4202Z" fill="white"/>
<path d="M86.103 50.1602C85.6897 50.1602 85.3697 50.0469 85.143 49.8202C84.9297 49.5802 84.823 49.2535 84.823 48.8402V37.2002C84.823 36.7735 84.9364 36.4535 85.163 36.2402C85.3897 36.0135 85.7097 35.9002 86.123 35.9002H90.943C92.4897 35.9002 93.683 36.2869 94.523 37.0602C95.363 37.8335 95.783 38.9135 95.783 40.3002C95.783 41.6869 95.363 42.7735 94.523 43.5602C93.683 44.3335 92.4897 44.7202 90.943 44.7202H87.383V48.8402C87.383 49.2535 87.2764 49.5802 87.063 49.8202C86.8497 50.0469 86.5297 50.1602 86.103 50.1602ZM87.383 42.7002H90.543C91.4497 42.7002 92.1364 42.5002 92.603 42.1002C93.0697 41.6869 93.303 41.0869 93.303 40.3002C93.303 39.5135 93.0697 38.9202 92.603 38.5202C92.1364 38.1202 91.4497 37.9202 90.543 37.9202H87.383V42.7002Z" fill="white"/>
<path d="M99.5499 50.1602C99.1366 50.1602 98.8166 50.0469 98.5899 49.8202C98.3766 49.5802 98.2699 49.2535 98.2699 48.8402V37.2002C98.2699 36.7735 98.3833 36.4535 98.6099 36.2402C98.8366 36.0135 99.1566 35.9002 99.5699 35.9002H104.39C105.937 35.9002 107.13 36.2869 107.97 37.0602C108.81 37.8335 109.23 38.9135 109.23 40.3002C109.23 41.6869 108.81 42.7735 107.97 43.5602C107.13 44.3335 105.937 44.7202 104.39 44.7202H100.83V48.8402C100.83 49.2535 100.723 49.5802 100.51 49.8202C100.297 50.0469 99.9766 50.1602 99.5499 50.1602ZM100.83 42.7002H103.99C104.897 42.7002 105.583 42.5002 106.05 42.1002C106.517 41.6869 106.75 41.0869 106.75 40.3002C106.75 39.5135 106.517 38.9202 106.05 38.5202C105.583 38.1202 104.897 37.9202 103.99 37.9202H100.83V42.7002Z" fill="white"/>
<path d="M122.406 50.2002C121.82 50.2002 121.233 50.1535 120.646 50.0602C120.06 49.9802 119.506 49.8535 118.986 49.6802C118.466 49.4935 118 49.2669 117.586 49.0002C117.346 48.8402 117.18 48.6469 117.086 48.4202C116.993 48.1935 116.96 47.9735 116.986 47.7602C117.026 47.5335 117.113 47.3402 117.246 47.1802C117.393 47.0069 117.573 46.9002 117.786 46.8602C118 46.8202 118.233 46.8802 118.486 47.0402C119.073 47.3869 119.693 47.6402 120.346 47.8002C121 47.9602 121.686 48.0402 122.406 48.0402C123.46 48.0402 124.226 47.8669 124.706 47.5202C125.186 47.1602 125.426 46.7002 125.426 46.1402C125.426 45.6735 125.253 45.3069 124.906 45.0402C124.573 44.7735 123.993 44.5535 123.166 44.3802L120.966 43.9202C119.7 43.6535 118.753 43.2069 118.126 42.5802C117.513 41.9402 117.206 41.1002 117.206 40.0602C117.206 39.4069 117.34 38.8135 117.606 38.2802C117.873 37.7469 118.246 37.2869 118.726 36.9002C119.22 36.5135 119.8 36.2202 120.466 36.0202C121.146 35.8069 121.893 35.7002 122.706 35.7002C123.506 35.7002 124.266 35.8002 124.986 36.0002C125.706 36.2002 126.353 36.4935 126.926 36.8802C127.14 37.0269 127.28 37.2069 127.346 37.4202C127.426 37.6335 127.446 37.8469 127.406 38.0602C127.366 38.2602 127.273 38.4335 127.126 38.5802C126.98 38.7269 126.793 38.8135 126.566 38.8402C126.353 38.8669 126.106 38.8002 125.826 38.6402C125.333 38.3602 124.833 38.1602 124.326 38.0402C123.82 37.9202 123.273 37.8602 122.686 37.8602C122.073 37.8602 121.546 37.9469 121.106 38.1202C120.666 38.2935 120.326 38.5402 120.086 38.8602C119.86 39.1669 119.746 39.5335 119.746 39.9602C119.746 40.4402 119.906 40.8269 120.226 41.1202C120.546 41.4002 121.093 41.6202 121.866 41.7802L124.046 42.2402C125.366 42.5202 126.346 42.9602 126.986 43.5602C127.64 44.1602 127.966 44.9602 127.966 45.9602C127.966 46.6002 127.833 47.1802 127.566 47.7002C127.313 48.2202 126.94 48.6669 126.446 49.0402C125.966 49.4135 125.386 49.7002 124.706 49.9002C124.026 50.1002 123.26 50.2002 122.406 50.2002Z" fill="white"/>
<path d="M134.951 50.1602C134.537 50.1602 134.217 50.0469 133.991 49.8202C133.777 49.5802 133.671 49.2535 133.671 48.8402V38.0402H129.771C129.424 38.0402 129.151 37.9469 128.951 37.7602C128.764 37.5602 128.671 37.2935 128.671 36.9602C128.671 36.6135 128.764 36.3535 128.951 36.1802C129.151 35.9935 129.424 35.9002 129.771 35.9002H140.131C140.477 35.9002 140.744 35.9935 140.931 36.1802C141.131 36.3535 141.231 36.6135 141.231 36.9602C141.231 37.2935 141.131 37.5602 140.931 37.7602C140.744 37.9469 140.477 38.0402 140.131 38.0402H136.231V48.8402C136.231 49.2535 136.124 49.5802 135.911 49.8202C135.697 50.0469 135.377 50.1602 134.951 50.1602Z" fill="white"/>
<path d="M148.553 50.2002C147.193 50.2002 146 49.9002 144.973 49.3002C143.96 48.7002 143.173 47.8602 142.613 46.7802C142.053 45.6869 141.773 44.4069 141.773 42.9402C141.773 41.8335 141.933 40.8402 142.253 39.9602C142.573 39.0669 143.027 38.3069 143.613 37.6802C144.213 37.0402 144.927 36.5535 145.753 36.2202C146.593 35.8735 147.527 35.7002 148.553 35.7002C149.927 35.7002 151.12 36.0002 152.133 36.6002C153.147 37.1869 153.933 38.0202 154.493 39.1002C155.053 40.1802 155.333 41.4535 155.333 42.9202C155.333 44.0269 155.173 45.0269 154.853 45.9202C154.533 46.8135 154.073 47.5802 153.473 48.2202C152.887 48.8602 152.173 49.3535 151.333 49.7002C150.507 50.0335 149.58 50.2002 148.553 50.2002ZM148.553 48.0002C149.42 48.0002 150.153 47.8002 150.753 47.4002C151.367 47.0002 151.833 46.4202 152.153 45.6602C152.487 44.9002 152.653 43.9935 152.653 42.9402C152.653 41.3402 152.293 40.1002 151.573 39.2202C150.867 38.3402 149.86 37.9002 148.553 37.9002C147.7 37.9002 146.967 38.1002 146.353 38.5002C145.74 38.8869 145.267 39.4602 144.933 40.2202C144.613 40.9669 144.453 41.8735 144.453 42.9402C144.453 44.5269 144.813 45.7669 145.533 46.6602C146.253 47.5535 147.26 48.0002 148.553 48.0002Z" fill="white"/>
<path d="M159.616 50.1602C159.203 50.1602 158.883 50.0469 158.656 49.8202C158.443 49.5802 158.336 49.2535 158.336 48.8402V37.2002C158.336 36.7735 158.45 36.4535 158.676 36.2402C158.903 36.0135 159.223 35.9002 159.636 35.9002H164.456C166.003 35.9002 167.196 36.2735 168.036 37.0202C168.876 37.7535 169.296 38.7869 169.296 40.1202C169.296 40.9869 169.103 41.7335 168.716 42.3602C168.343 42.9869 167.796 43.4669 167.076 43.8002C166.356 44.1335 165.483 44.3002 164.456 44.3002L164.636 44.0002H165.296C165.843 44.0002 166.316 44.1335 166.716 44.4002C167.13 44.6669 167.49 45.0869 167.796 45.6602L169.296 48.4402C169.456 48.7202 169.53 48.9935 169.516 49.2602C169.503 49.5269 169.403 49.7469 169.216 49.9202C169.03 50.0802 168.756 50.1602 168.396 50.1602C168.036 50.1602 167.743 50.0869 167.516 49.9402C167.29 49.7802 167.09 49.5402 166.916 49.2202L164.896 45.5002C164.656 45.0469 164.37 44.7469 164.036 44.6002C163.716 44.4402 163.303 44.3602 162.796 44.3602H160.896V48.8402C160.896 49.2535 160.79 49.5802 160.576 49.8202C160.363 50.0469 160.043 50.1602 159.616 50.1602ZM160.896 42.4602H164.016C164.936 42.4602 165.63 42.2735 166.096 41.9002C166.576 41.5135 166.816 40.9402 166.816 40.1802C166.816 39.4335 166.576 38.8735 166.096 38.5002C165.63 38.1135 164.936 37.9202 164.016 37.9202H160.896V42.4602Z" fill="white"/>
<path d="M173.807 50.0002C173.367 50.0002 173.027 49.8869 172.787 49.6602C172.561 49.4202 172.447 49.0802 172.447 48.6402V37.2602C172.447 36.8202 172.561 36.4869 172.787 36.2602C173.027 36.0202 173.367 35.9002 173.807 35.9002H180.947C181.281 35.9002 181.534 35.9869 181.707 36.1602C181.894 36.3335 181.987 36.5802 181.987 36.9002C181.987 37.2335 181.894 37.4935 181.707 37.6802C181.534 37.8535 181.281 37.9402 180.947 37.9402H174.907V41.8202H180.507C180.854 41.8202 181.114 41.9069 181.287 42.0802C181.461 42.2535 181.547 42.5069 181.547 42.8402C181.547 43.1735 181.461 43.4269 181.287 43.6002C181.114 43.7735 180.854 43.8602 180.507 43.8602H174.907V47.9602H180.947C181.281 47.9602 181.534 48.0469 181.707 48.2202C181.894 48.3935 181.987 48.6469 181.987 48.9802C181.987 49.3135 181.894 49.5669 181.707 49.7402C181.534 49.9135 181.281 50.0002 180.947 50.0002H173.807Z" fill="white"/>
</svg>
