<svg width="194" height="141" viewBox="0 0 194 141" fill="none" xmlns="http://www.w3.org/2000/svg">
<path d="M159.669 34.8844V54.3908H108.744V34.8844V34.599L108.503 34.4456C104.134 31.6631 101.232 26.8016 101.232 21.2414C101.232 12.5884 108.257 5.54319 116.906 5.54319C118.919 5.54319 120.834 5.95396 122.632 6.65683L123.027 6.81093L123.258 6.45624C125.591 2.87315 129.622 0.52018 134.206 0.52018C138.789 0.52018 142.801 2.87199 145.179 6.4597L145.412 6.81109L145.804 6.65608C147.579 5.95407 149.493 5.54319 151.507 5.54319C160.156 5.54319 167.181 12.5884 167.181 21.2414C167.181 26.8016 164.279 31.6631 159.91 34.4456L159.669 34.599V34.8844Z" stroke="#293E8F" stroke-width="1.04036"/>
<path d="M160.189 63.2072C160.189 63.2072 165.296 61.5684 165.296 66.8894C165.296 72.2104 162.296 76.2117 159.87 74.6154L159.593 74.3813C158.465 81.0645 155.742 87.0027 151.932 91.5149C147.293 97.07 141.058 100.433 134.228 100.433C127.397 100.433 121.14 97.0487 116.501 91.5149C112.714 87.0027 109.99 81.0645 108.841 74.3813L108.585 74.6154C106.159 76.2117 103.138 72.2104 103.138 66.8894C103.138 61.5684 108.245 63.2072 108.245 63.2072V59.1207H160.21V63.2072H160.189Z" fill="#FFD0C0"/>
<path d="M111.99 101.22L115.799 99.6453C115.544 101.412 115.118 103.2 114.544 104.711C112.714 102.731 111.99 101.22 111.99 101.22Z" fill="#293E8F"/>
<path d="M115.778 99.6452C116.48 95.4949 116.48 91.5148 116.48 91.5148C121.119 97.0486 127.354 100.433 134.206 100.433C141.058 100.433 147.272 97.0699 151.911 91.5361C151.911 91.9192 151.996 95.7077 152.613 99.6452C152.933 101.497 153.337 103.412 153.933 104.988C151.294 108.436 148.038 111.202 144.506 113.416C127.269 115.183 118.438 108.904 114.522 104.711C115.097 103.2 115.501 101.433 115.778 99.6452Z" fill="#FB7447"/>
<path d="M152.635 99.6453L156.444 101.22C155.72 102.54 154.89 103.838 153.975 105.009C153.38 103.413 152.954 101.518 152.656 99.6666L152.635 99.6453Z" fill="#293E8F"/>
<path d="M155.442 101.086L157.507 106.769L183.553 117.751C183.553 117.751 193.129 122.115 193.129 131.288V140.887" stroke="#293E8F" stroke-width="1.04036"/>
<path d="M75.5723 141V131.401C75.5723 122.228 85.1056 117.864 85.1056 117.864L111.152 106.882L112.33 102.587" stroke="#293E8F" stroke-width="1.04036"/>
<path d="M138.888 136.126C139.867 136.126 140.654 136.914 140.654 137.893C140.654 138.872 139.867 139.659 138.888 139.659C137.909 139.659 137.079 138.872 137.079 137.893C137.079 136.914 137.888 136.126 138.888 136.126Z" fill="#F3B300"/>
<path d="M137.035 124.633C137.993 124.633 138.802 125.441 138.802 126.442C138.802 127.442 137.993 128.208 137.035 128.208C136.078 128.208 135.227 127.421 135.227 126.442C135.227 125.463 136.035 124.633 137.035 124.633Z" fill="#F3B300"/>
<path d="M127.864 136.126C128.843 136.126 129.651 136.914 129.651 137.893C129.651 138.872 128.843 139.659 127.864 139.659C126.885 139.659 126.098 138.872 126.098 137.893C126.098 136.914 126.885 136.126 127.864 136.126Z" fill="#F3B300"/>
<path d="M126.013 124.633C127.013 124.633 127.779 125.441 127.779 126.442C127.779 127.442 126.992 128.208 126.013 128.208C125.034 128.208 124.226 127.421 124.226 126.442C124.226 125.463 125.034 124.633 126.013 124.633Z" fill="#F3B300"/>
<path d="M108.744 53.8303H159.669V58.6005H108.744V53.8303Z" fill="#FB7447" stroke="#293E8F" stroke-width="1.04036"/>
<path d="M138.526 113.693C125.205 113.629 117.948 108.372 114.522 104.711C112.692 102.731 111.969 101.22 111.969 101.22L109.926 106.882C109.926 106.882 113.671 112.628 122.055 117.886C117.608 121.334 114.522 122.589 114.522 122.589C114.65 122.589 131.355 121.738 144.506 113.416C142.378 113.629 140.399 113.714 138.505 113.693H138.526Z" fill="#8D9AC9"/>
<path d="M127.779 126.442C127.779 125.463 126.97 124.654 125.992 124.654C125.013 124.654 124.204 125.441 124.204 126.442C124.204 127.442 125.013 128.23 125.992 128.23C126.97 128.23 127.779 127.421 127.779 126.442Z" fill="#683C11"/>
<path d="M129.652 137.892C129.652 136.913 128.844 136.105 127.865 136.105C126.886 136.105 126.077 136.892 126.077 137.892C126.077 138.893 126.886 139.68 127.865 139.68C128.844 139.68 129.652 138.872 129.652 137.892Z" fill="#683C11"/>
<path d="M138.802 126.442C138.802 125.463 137.993 124.654 137.014 124.654C136.035 124.654 135.227 125.441 135.227 126.442C135.227 127.442 136.035 128.23 137.014 128.23C137.993 128.23 138.802 127.421 138.802 126.442Z" fill="#683C11"/>
<path d="M140.674 137.892C140.674 136.913 139.865 136.105 138.886 136.105C137.907 136.105 137.099 136.892 137.099 137.892C137.099 138.893 137.886 139.68 138.886 139.68C139.886 139.68 140.674 138.872 140.674 137.892Z" fill="#683C11"/>
<g clip-path="url(#clip0_528_217)">
<path d="M34.8037 109.588C43.0195 107.471 64.6143 109.663 68.025 106.393C71.4168 103.104 67.177 97.8671 67.177 97.8671C67.177 97.8671 77.4845 96.7707 79.9153 93.3679C82.3461 89.9651 79.0674 86.5624 79.0674 86.5624C79.0674 86.5624 90.9577 84.1237 91.1273 79.2464C91.2969 74.3691 82.9491 74.5014 82.9491 74.5014C82.9491 74.5014 91.8622 63.9718 85.6249 58.4328C79.6703 54.652 70.5689 65.8622 70.5689 65.8622C70.5689 65.8622 70.6819 57.4876 65.8391 57.6577C60.9775 57.8279 58.5655 69.7565 58.5655 69.7565C58.5655 69.7565 55.1737 66.4671 51.763 68.9058C48.3711 71.3444 47.2782 81.6851 47.2782 81.6851C47.2782 81.6851 42.0585 77.4316 38.7797 80.8344C35.5009 84.2371 36.9142 101.346 34.8037 109.607" fill="#FB7447"/>
<path d="M56.9834 102.877H44.2451L43.2087 90.2866C43.1522 89.6438 43.6233 89.0956 44.2639 89.0389C44.8669 89.0011 45.4511 89.4548 45.5076 90.0975L46.3744 100.552H56.9834C57.6241 100.552 58.1328 101.062 58.1328 101.705C58.1328 102.347 57.6241 102.858 56.9834 102.858V102.877Z" fill="#FFFEFA"/>
<path d="M55.5883 93.3302L54.7403 79.6813C54.7026 79.0385 55.1926 78.4903 55.8144 78.4525C56.5305 78.3958 57.0016 78.9062 57.0392 79.53L57.7365 90.8348L68.5338 90.003C69.0992 89.9652 69.721 90.4378 69.7775 91.0616C69.8341 91.7044 69.3441 92.2526 68.7034 92.3093L55.5694 93.3113L55.5883 93.3302Z" fill="#FFFEFA"/>
<path d="M65.2378 82.9706L64.3898 70.4182C64.3521 69.7754 64.8232 69.2272 65.4639 69.1894C66.1046 69.1516 66.651 69.6242 66.6887 70.2669L67.3671 80.4185L76.9397 79.4166C77.5615 79.341 78.1456 79.8136 78.2022 80.4374C78.2775 81.0802 77.8065 81.6473 77.1658 81.704L65.2189 82.9517L65.2378 82.9706Z" fill="#FFFEFA"/>
<path d="M26.6455 115.694C26.2686 115.694 25.9106 115.505 25.6844 115.164C25.3264 114.635 25.4772 113.917 26.0236 113.558C64.9545 87.8667 78.8611 64.0284 78.993 63.7827C79.3134 63.2345 80.0106 63.0454 80.557 63.3479C81.1035 63.6693 81.3108 64.3687 80.9904 64.9358C80.8585 65.1816 66.7447 89.4736 27.2861 115.486C27.0977 115.618 26.8716 115.675 26.6455 115.675V115.694Z" fill="#FFFEFA"/>
<path d="M88.9423 104.011C88.9423 106.45 86.9825 108.416 84.5517 108.416C82.1209 108.416 80.1611 106.45 80.1611 104.011C80.1611 101.572 82.1209 99.6063 84.5517 99.6063C86.9825 99.6063 88.9423 101.572 88.9423 104.011Z" fill="#F3B300"/>
<path d="M29.98 62.6296C33.0138 60.8337 36.9333 61.8356 38.7234 64.8792C40.5135 67.9228 39.5148 71.8549 36.481 73.6508C36.2926 73.7642 36.0853 73.8587 35.878 73.9532L34.0313 70.7962L28.8305 74.7094L25.3633 68.8113L31.299 66.1269L29.4335 62.9699C29.6219 62.8375 29.7915 62.7052 29.9988 62.5918L29.98 62.6296Z" fill="#FFD0C0"/>
<path d="M91.9188 96.7518C89.6388 94.8614 88.4704 92.8008 88.4516 90.6079C88.4139 87.432 90.8447 85.2769 90.9578 85.1824L92.4653 86.9405C92.4653 86.9405 90.7317 88.5095 90.7694 90.6079C90.7882 92.0824 91.6739 93.557 93.4075 94.9748L91.9377 96.7707L91.9188 96.7518Z" fill="#293E8F"/>
<path d="M54.4013 59.9073C53.8548 58.584 53.0634 57.7144 51.9893 57.2796C49.973 56.4479 47.5987 57.4498 47.561 57.4498L46.6377 55.3325C46.7696 55.2758 49.8976 53.9336 52.8372 55.1435C54.4955 55.824 55.7203 57.1284 56.5117 59.0377L54.3824 59.9262L54.4013 59.9073Z" fill="#293E8F"/>
<path d="M15.7725 86.241C15.5464 85.636 15.8668 84.9744 16.4698 84.7475C17.0728 84.5396 17.7323 84.8421 17.9584 85.447L25.5712 106.601C28.6804 102.347 38.2153 86.2977 14.0955 76.4675C1.05568 99.0014 18.2787 105.845 23.3665 107.319L15.7725 86.2221V86.241Z" fill="#FB7447"/>
<path d="M0 93.7271C0 109.985 7.59398 124.447 19.3901 133.823H82.5727C94.3688 124.447 101.963 109.985 101.963 93.7271C101.963 92.3471 0 92.3471 0 93.7271Z" fill="#FFD0C0"/>
<path d="M6.44434 99.2471C7.14155 104.881 8.89401 110.155 11.4567 114.938Z" fill="#1D1D1B"/>
<path d="M14.4346 119.683C14.8303 120.25 15.2448 120.798 15.6782 121.346Z" fill="#1D1D1B"/>
<path d="M11.4757 116.091C11.0612 116.091 10.6655 115.864 10.4582 115.486C7.7447 110.457 6.01109 105.051 5.31388 99.3984C5.2385 98.7557 5.69075 98.1885 6.31259 98.1129C6.93443 98.0184 7.51858 98.4721 7.59395 99.1149C8.27232 104.484 9.91172 109.626 12.4744 114.39C12.7759 114.957 12.5687 115.656 12.0034 115.959C11.8338 116.053 11.6453 116.091 11.4569 116.091H11.4757Z" fill="white"/>
<path d="M15.658 122.499C15.3189 122.499 14.9797 122.348 14.7535 122.065C14.3201 121.516 13.9056 120.949 13.491 120.363C13.1142 119.834 13.2461 119.116 13.7548 118.738C14.2636 118.359 14.9985 118.492 15.3754 119.002C15.7711 119.55 16.1668 120.099 16.5814 120.628C16.9771 121.138 16.8829 121.857 16.3929 122.254C16.1857 122.424 15.9218 122.499 15.6769 122.499H15.658Z" fill="white"/>
</g>
<defs>
<clipPath id="clip0_528_217">
<rect width="101.963" height="79.1711" fill="white" transform="translate(0 54.652)"/>
</clipPath>
</defs>
</svg>
