<svg width="344" height="127" viewBox="0 0 344 127" fill="none" xmlns="http://www.w3.org/2000/svg">
<g clip-path="url(#clip0_594_328)">
<path d="M337.924 4.09583H223.075C221.982 4.09583 221.096 4.98188 221.096 6.07488V120.918C221.096 122.011 221.982 122.897 223.075 122.897H337.924C339.017 122.897 339.904 122.011 339.904 120.918V6.07488C339.904 4.98188 339.017 4.09583 337.924 4.09583Z" fill="url(#paint0_linear_594_328)"/>
<path d="M337.888 4.67578H223.111C222.318 4.67578 221.676 5.31841 221.676 6.11114V120.882C221.676 121.674 222.318 122.317 223.111 122.317H337.888C338.681 122.317 339.324 121.674 339.324 120.882V6.11114C339.324 5.31841 338.681 4.67578 337.888 4.67578Z" fill="url(#paint1_linear_594_328)"/>
<path d="M324.73 15.8832V8.27147C324.73 7.82926 324.367 7.4668 323.925 7.4668H237.023C236.581 7.4668 236.219 7.82926 236.219 8.27147V15.8832C236.219 17.7245 234.725 19.2179 232.884 19.2179H225.272C224.829 19.2179 224.467 19.5803 224.467 20.0225V106.97C224.467 107.413 224.829 107.775 225.272 107.775H232.884C234.725 107.775 236.219 109.268 236.219 111.11V118.721C236.219 119.164 236.581 119.526 237.023 119.526H323.925C324.367 119.526 324.73 119.164 324.73 118.721V111.11C324.73 109.268 326.223 107.775 328.065 107.775H335.728C336.17 107.775 336.532 107.413 336.532 106.97V20.0298C336.532 19.5876 336.17 19.2251 335.728 19.2251H328.065C326.223 19.2251 324.73 17.7318 324.73 15.8905V15.8832Z" fill="url(#paint2_linear_594_328)"/>
<g style="mix-blend-mode:multiply" opacity="0.5">
<path d="M233.406 14.6653C233.406 15.6295 232.623 16.4052 231.666 16.4052H226.707C226.424 16.4052 226.192 16.6371 226.192 16.9199C226.192 17.2026 226.424 17.4346 226.707 17.4346H231.666C233.196 17.4346 234.435 16.1949 234.435 14.6653V9.70684C234.435 9.42412 234.203 9.19214 233.921 9.19214C233.638 9.19214 233.406 9.42412 233.406 9.70684V14.6653Z" fill="#999999"/>
</g>
<path d="M226.134 7.4668H231.68C232.63 7.4668 233.398 8.23522 233.398 9.18487V14.6798C233.398 15.6295 232.63 16.3979 231.68 16.3979H226.185C225.235 16.3979 224.467 15.6295 224.467 14.6798V9.13413C224.467 8.21347 225.214 7.4668 226.134 7.4668Z" fill="url(#paint3_linear_594_328)"/>
<path d="M231.738 110.595H226.134C225.213 110.595 224.467 111.341 224.467 112.262V117.866C224.467 118.787 225.213 119.533 226.134 119.533H231.738C232.659 119.533 233.406 118.787 233.406 117.866V112.262C233.406 111.341 232.659 110.595 231.738 110.595Z" fill="url(#paint4_linear_594_328)"/>
<path d="M335.09 110.595H329.486C328.565 110.595 327.818 111.341 327.818 112.262V117.866C327.818 118.787 328.565 119.533 329.486 119.533H335.09C336.011 119.533 336.757 118.787 336.757 117.866V112.262C336.757 111.341 336.011 110.595 335.09 110.595Z" fill="url(#paint5_linear_594_328)"/>
<path d="M335.098 7.45947H329.494C328.573 7.45947 327.826 8.20596 327.826 9.12681V14.7305C327.826 15.6513 328.573 16.3978 329.494 16.3978H335.098C336.019 16.3978 336.765 15.6513 336.765 14.7305V9.12681C336.765 8.20596 336.019 7.45947 335.098 7.45947Z" fill="url(#paint6_linear_594_328)"/>
<path d="M240.75 17.8549C240.242 17.8549 239.829 17.4417 239.829 16.9343V11.0479C239.829 10.5404 240.242 10.1272 240.75 10.1272C241.257 10.1272 241.671 10.5404 241.671 11.0479V16.9343C241.671 17.4417 241.257 17.8549 240.75 17.8549Z" fill="url(#paint7_linear_594_328)"/>
<path d="M245.723 17.8549C245.216 17.8549 244.803 17.4417 244.803 16.9343V11.0479C244.803 10.5404 245.216 10.1272 245.723 10.1272C246.231 10.1272 246.644 10.5404 246.644 11.0479V16.9343C246.644 17.4417 246.231 17.8549 245.723 17.8549Z" fill="url(#paint8_linear_594_328)"/>
<path d="M250.689 17.8549C250.182 17.8549 249.769 17.4417 249.769 16.9343V11.0479C249.769 10.5404 250.182 10.1272 250.689 10.1272C251.197 10.1272 251.61 10.5404 251.61 11.0479V16.9343C251.61 17.4417 251.197 17.8549 250.689 17.8549Z" fill="url(#paint9_linear_594_328)"/>
<path d="M255.655 17.8549C255.148 17.8549 254.734 17.4417 254.734 16.9343V11.0479C254.734 10.5404 255.148 10.1272 255.655 10.1272C256.163 10.1272 256.576 10.5404 256.576 11.0479V16.9343C256.576 17.4417 256.163 17.8549 255.655 17.8549Z" fill="url(#paint10_linear_594_328)"/>
<path d="M260.629 17.8549C260.121 17.8549 259.708 17.4417 259.708 16.9343V11.0479C259.708 10.5404 260.121 10.1272 260.629 10.1272C261.136 10.1272 261.549 10.5404 261.549 11.0479V16.9343C261.549 17.4417 261.136 17.8549 260.629 17.8549Z" fill="url(#paint11_linear_594_328)"/>
<path d="M265.595 17.8549C265.087 17.8549 264.674 17.4417 264.674 16.9343V11.0479C264.674 10.5404 265.087 10.1272 265.595 10.1272C266.102 10.1272 266.515 10.5404 266.515 11.0479V16.9343C266.515 17.4417 266.102 17.8549 265.595 17.8549Z" fill="url(#paint12_linear_594_328)"/>
<path d="M270.568 17.8549C270.061 17.8549 269.647 17.4417 269.647 16.9343V11.0479C269.647 10.5404 270.061 10.1272 270.568 10.1272C271.076 10.1272 271.489 10.5404 271.489 11.0479V16.9343C271.489 17.4417 271.076 17.8549 270.568 17.8549Z" fill="url(#paint13_linear_594_328)"/>
<path d="M275.534 17.8549C275.027 17.8549 274.613 17.4417 274.613 16.9343V11.0479C274.613 10.5404 275.027 10.1272 275.534 10.1272C276.041 10.1272 276.455 10.5404 276.455 11.0479V16.9343C276.455 17.4417 276.041 17.8549 275.534 17.8549Z" fill="url(#paint14_linear_594_328)"/>
<path d="M280.5 17.8549C279.992 17.8549 279.579 17.4417 279.579 16.9343V11.0479C279.579 10.5404 279.992 10.1272 280.5 10.1272C281.007 10.1272 281.421 10.5404 281.421 11.0479V16.9343C281.421 17.4417 281.007 17.8549 280.5 17.8549Z" fill="url(#paint15_linear_594_328)"/>
<path d="M285.473 17.8549C284.966 17.8549 284.553 17.4417 284.553 16.9343V11.0479C284.553 10.5404 284.966 10.1272 285.473 10.1272C285.981 10.1272 286.394 10.5404 286.394 11.0479V16.9343C286.394 17.4417 285.981 17.8549 285.473 17.8549Z" fill="url(#paint16_linear_594_328)"/>
<path d="M290.439 17.8549C289.932 17.8549 289.519 17.4417 289.519 16.9343V11.0479C289.519 10.5404 289.932 10.1272 290.439 10.1272C290.947 10.1272 291.36 10.5404 291.36 11.0479V16.9343C291.36 17.4417 290.947 17.8549 290.439 17.8549Z" fill="url(#paint17_linear_594_328)"/>
<path d="M295.413 17.8549C294.905 17.8549 294.492 17.4417 294.492 16.9343V11.0479C294.492 10.5404 294.905 10.1272 295.413 10.1272C295.92 10.1272 296.334 10.5404 296.334 11.0479V16.9343C296.334 17.4417 295.92 17.8549 295.413 17.8549Z" fill="url(#paint18_linear_594_328)"/>
<path d="M300.379 17.8549C299.871 17.8549 299.458 17.4417 299.458 16.9343V11.0479C299.458 10.5404 299.871 10.1272 300.379 10.1272C300.886 10.1272 301.299 10.5404 301.299 11.0479V16.9343C301.299 17.4417 300.886 17.8549 300.379 17.8549Z" fill="url(#paint19_linear_594_328)"/>
<path d="M305.345 17.8549C304.837 17.8549 304.424 17.4417 304.424 16.9343V11.0479C304.424 10.5404 304.837 10.1272 305.345 10.1272C305.852 10.1272 306.265 10.5404 306.265 11.0479V16.9343C306.265 17.4417 305.852 17.8549 305.345 17.8549Z" fill="url(#paint20_linear_594_328)"/>
<path d="M310.318 17.8549C309.811 17.8549 309.397 17.4417 309.397 16.9343V11.0479C309.397 10.5404 309.811 10.1272 310.318 10.1272C310.826 10.1272 311.239 10.5404 311.239 11.0479V16.9343C311.239 17.4417 310.826 17.8549 310.318 17.8549Z" fill="url(#paint21_linear_594_328)"/>
<path d="M315.284 17.8549C314.777 17.8549 314.363 17.4417 314.363 16.9343V11.0479C314.363 10.5404 314.777 10.1272 315.284 10.1272C315.791 10.1272 316.205 10.5404 316.205 11.0479V16.9343C316.205 17.4417 315.791 17.8549 315.284 17.8549Z" fill="url(#paint22_linear_594_328)"/>
<path d="M320.258 17.8549C319.75 17.8549 319.337 17.4417 319.337 16.9343V11.0479C319.337 10.5404 319.75 10.1272 320.258 10.1272C320.765 10.1272 321.178 10.5404 321.178 11.0479V16.9343C321.178 17.4417 320.765 17.8549 320.258 17.8549Z" fill="url(#paint23_linear_594_328)"/>
<path d="M240.75 116.88C240.242 116.88 239.829 116.467 239.829 115.959V110.073C239.829 109.566 240.242 109.152 240.75 109.152C241.257 109.152 241.671 109.566 241.671 110.073V115.959C241.671 116.467 241.257 116.88 240.75 116.88Z" fill="url(#paint24_linear_594_328)"/>
<path d="M245.723 116.88C245.216 116.88 244.803 116.467 244.803 115.959V110.073C244.803 109.566 245.216 109.152 245.723 109.152C246.231 109.152 246.644 109.566 246.644 110.073V115.959C246.644 116.467 246.231 116.88 245.723 116.88Z" fill="url(#paint25_linear_594_328)"/>
<path d="M250.689 116.88C250.182 116.88 249.769 116.467 249.769 115.959V110.073C249.769 109.566 250.182 109.152 250.689 109.152C251.197 109.152 251.61 109.566 251.61 110.073V115.959C251.61 116.467 251.197 116.88 250.689 116.88Z" fill="url(#paint26_linear_594_328)"/>
<path d="M255.655 116.88C255.148 116.88 254.734 116.467 254.734 115.959V110.073C254.734 109.566 255.148 109.152 255.655 109.152C256.163 109.152 256.576 109.566 256.576 110.073V115.959C256.576 116.467 256.163 116.88 255.655 116.88Z" fill="url(#paint27_linear_594_328)"/>
<path d="M260.629 116.88C260.121 116.88 259.708 116.467 259.708 115.959V110.073C259.708 109.566 260.121 109.152 260.629 109.152C261.136 109.152 261.549 109.566 261.549 110.073V115.959C261.549 116.467 261.136 116.88 260.629 116.88Z" fill="url(#paint28_linear_594_328)"/>
<path d="M265.595 116.88C265.087 116.88 264.674 116.467 264.674 115.959V110.073C264.674 109.566 265.087 109.152 265.595 109.152C266.102 109.152 266.515 109.566 266.515 110.073V115.959C266.515 116.467 266.102 116.88 265.595 116.88Z" fill="url(#paint29_linear_594_328)"/>
<path d="M270.568 116.88C270.061 116.88 269.647 116.467 269.647 115.959V110.073C269.647 109.566 270.061 109.152 270.568 109.152C271.076 109.152 271.489 109.566 271.489 110.073V115.959C271.489 116.467 271.076 116.88 270.568 116.88Z" fill="url(#paint30_linear_594_328)"/>
<path d="M275.534 116.88C275.027 116.88 274.613 116.467 274.613 115.959V110.073C274.613 109.566 275.027 109.152 275.534 109.152C276.041 109.152 276.455 109.566 276.455 110.073V115.959C276.455 116.467 276.041 116.88 275.534 116.88Z" fill="url(#paint31_linear_594_328)"/>
<path d="M280.5 116.88C279.992 116.88 279.579 116.467 279.579 115.959V110.073C279.579 109.566 279.992 109.152 280.5 109.152C281.007 109.152 281.421 109.566 281.421 110.073V115.959C281.421 116.467 281.007 116.88 280.5 116.88Z" fill="url(#paint32_linear_594_328)"/>
<path d="M285.473 116.88C284.966 116.88 284.553 116.467 284.553 115.959V110.073C284.553 109.566 284.966 109.152 285.473 109.152C285.981 109.152 286.394 109.566 286.394 110.073V115.959C286.394 116.467 285.981 116.88 285.473 116.88Z" fill="url(#paint33_linear_594_328)"/>
<path d="M290.439 116.88C289.932 116.88 289.519 116.467 289.519 115.959V110.073C289.519 109.566 289.932 109.152 290.439 109.152C290.947 109.152 291.36 109.566 291.36 110.073V115.959C291.36 116.467 290.947 116.88 290.439 116.88Z" fill="url(#paint34_linear_594_328)"/>
<path d="M295.413 116.88C294.905 116.88 294.492 116.467 294.492 115.959V110.073C294.492 109.566 294.905 109.152 295.413 109.152C295.92 109.152 296.334 109.566 296.334 110.073V115.959C296.334 116.467 295.92 116.88 295.413 116.88Z" fill="url(#paint35_linear_594_328)"/>
<path d="M300.379 116.88C299.871 116.88 299.458 116.467 299.458 115.959V110.073C299.458 109.566 299.871 109.152 300.379 109.152C300.886 109.152 301.299 109.566 301.299 110.073V115.959C301.299 116.467 300.886 116.88 300.379 116.88Z" fill="url(#paint36_linear_594_328)"/>
<path d="M305.345 116.88C304.837 116.88 304.424 116.467 304.424 115.959V110.073C304.424 109.566 304.837 109.152 305.345 109.152C305.852 109.152 306.265 109.566 306.265 110.073V115.959C306.265 116.467 305.852 116.88 305.345 116.88Z" fill="url(#paint37_linear_594_328)"/>
<path d="M310.318 116.88C309.811 116.88 309.397 116.467 309.397 115.959V110.073C309.397 109.566 309.811 109.152 310.318 109.152C310.826 109.152 311.239 109.566 311.239 110.073V115.959C311.239 116.467 310.826 116.88 310.318 116.88Z" fill="url(#paint38_linear_594_328)"/>
<path d="M315.284 116.88C314.777 116.88 314.363 116.467 314.363 115.959V110.073C314.363 109.566 314.777 109.152 315.284 109.152C315.791 109.152 316.205 109.566 316.205 110.073V115.959C316.205 116.467 315.791 116.88 315.284 116.88Z" fill="url(#paint39_linear_594_328)"/>
<path d="M320.258 116.88C319.75 116.88 319.337 116.467 319.337 115.959V110.073C319.337 109.566 319.75 109.152 320.258 109.152C320.765 109.152 321.178 109.566 321.178 110.073V115.959C321.178 116.467 320.765 116.88 320.258 116.88Z" fill="url(#paint40_linear_594_328)"/>
<path d="M326.151 23.7487C326.151 23.2412 326.565 22.828 327.072 22.828H332.959C333.466 22.828 333.88 23.2412 333.88 23.7487C333.88 24.2561 333.466 24.6693 332.959 24.6693H327.072C326.565 24.6693 326.151 24.2561 326.151 23.7487Z" fill="url(#paint41_linear_594_328)"/>
<path d="M326.151 28.7216C326.151 28.2141 326.565 27.8009 327.072 27.8009H332.959C333.466 27.8009 333.88 28.2141 333.88 28.7216C333.88 29.229 333.466 29.6422 332.959 29.6422H327.072C326.565 29.6422 326.151 29.229 326.151 28.7216Z" fill="url(#paint42_linear_594_328)"/>
<path d="M326.151 33.6874C326.151 33.1799 326.565 32.7667 327.072 32.7667H332.959C333.466 32.7667 333.88 33.1799 333.88 33.6874C333.88 34.1948 333.466 34.608 332.959 34.608H327.072C326.565 34.608 326.151 34.1948 326.151 33.6874Z" fill="url(#paint43_linear_594_328)"/>
<path d="M326.151 38.6604C326.151 38.153 326.565 37.7397 327.072 37.7397H332.959C333.466 37.7397 333.88 38.153 333.88 38.6604C333.88 39.1679 333.466 39.5811 332.959 39.5811H327.072C326.565 39.5811 326.151 39.1679 326.151 38.6604Z" fill="url(#paint44_linear_594_328)"/>
<path d="M326.151 43.6261C326.151 43.1187 326.565 42.7054 327.072 42.7054H332.959C333.466 42.7054 333.88 43.1187 333.88 43.6261C333.88 44.1336 333.466 44.5468 332.959 44.5468H327.072C326.565 44.5468 326.151 44.1336 326.151 43.6261Z" fill="url(#paint45_linear_594_328)"/>
<path d="M326.151 48.5919C326.151 48.0845 326.565 47.6713 327.072 47.6713H332.959C333.466 47.6713 333.88 48.0845 333.88 48.5919C333.88 49.0994 333.466 49.5126 332.959 49.5126H327.072C326.565 49.5126 326.151 49.0994 326.151 48.5919Z" fill="url(#paint46_linear_594_328)"/>
<path d="M326.151 53.5648C326.151 53.0574 326.565 52.6442 327.072 52.6442H332.959C333.466 52.6442 333.88 53.0574 333.88 53.5648C333.88 54.0723 333.466 54.4855 332.959 54.4855H327.072C326.565 54.4855 326.151 54.0723 326.151 53.5648Z" fill="url(#paint47_linear_594_328)"/>
<path d="M326.151 58.5306C326.151 58.0232 326.565 57.61 327.072 57.61H332.959C333.466 57.61 333.88 58.0232 333.88 58.5306C333.88 59.0381 333.466 59.4513 332.959 59.4513H327.072C326.565 59.4513 326.151 59.0381 326.151 58.5306Z" fill="url(#paint48_linear_594_328)"/>
<path d="M326.151 63.5037C326.151 62.9962 326.565 62.583 327.072 62.583H332.959C333.466 62.583 333.88 62.9962 333.88 63.5037C333.88 64.0111 333.466 64.4243 332.959 64.4243H327.072C326.565 64.4243 326.151 64.0111 326.151 63.5037Z" fill="url(#paint49_linear_594_328)"/>
<path d="M326.151 68.4694C326.151 67.9619 326.565 67.5487 327.072 67.5487H332.959C333.466 67.5487 333.88 67.9619 333.88 68.4694C333.88 68.9768 333.466 69.39 332.959 69.39H327.072C326.565 69.39 326.151 68.9768 326.151 68.4694Z" fill="url(#paint50_linear_594_328)"/>
<path d="M326.151 73.4351C326.151 72.9276 326.565 72.5144 327.072 72.5144H332.959C333.466 72.5144 333.88 72.9276 333.88 73.4351C333.88 73.9425 333.466 74.3557 332.959 74.3557H327.072C326.565 74.3557 326.151 73.9425 326.151 73.4351Z" fill="url(#paint51_linear_594_328)"/>
<path d="M326.151 78.4081C326.151 77.9006 326.565 77.4874 327.072 77.4874H332.959C333.466 77.4874 333.88 77.9006 333.88 78.4081C333.88 78.9155 333.466 79.3287 332.959 79.3287H327.072C326.565 79.3287 326.151 78.9155 326.151 78.4081Z" fill="url(#paint52_linear_594_328)"/>
<path d="M326.151 83.3739C326.151 82.8665 326.565 82.4532 327.072 82.4532H332.959C333.466 82.4532 333.88 82.8665 333.88 83.3739C333.88 83.8814 333.466 84.2946 332.959 84.2946H327.072C326.565 84.2946 326.151 83.8814 326.151 83.3739Z" fill="url(#paint53_linear_594_328)"/>
<path d="M326.151 88.3469C326.151 87.8395 326.565 87.4263 327.072 87.4263H332.959C333.466 87.4263 333.88 87.8395 333.88 88.3469C333.88 88.8544 333.466 89.2676 332.959 89.2676H327.072C326.565 89.2676 326.151 88.8544 326.151 88.3469Z" fill="url(#paint54_linear_594_328)"/>
<path d="M326.151 93.3126C326.151 92.8052 326.565 92.392 327.072 92.392H332.959C333.466 92.392 333.88 92.8052 333.88 93.3126C333.88 93.8201 333.466 94.2333 332.959 94.2333H327.072C326.565 94.2333 326.151 93.8201 326.151 93.3126Z" fill="url(#paint55_linear_594_328)"/>
<path d="M326.151 98.2783C326.151 97.7709 326.565 97.3577 327.072 97.3577H332.959C333.466 97.3577 333.88 97.7709 333.88 98.2783C333.88 98.7858 333.466 99.199 332.959 99.199H327.072C326.565 99.199 326.151 98.7858 326.151 98.2783Z" fill="url(#paint56_linear_594_328)"/>
<path d="M326.151 103.251C326.151 102.744 326.565 102.331 327.072 102.331H332.959C333.466 102.331 333.88 102.744 333.88 103.251C333.88 103.759 333.466 104.172 332.959 104.172H327.072C326.565 104.172 326.151 103.759 326.151 103.251Z" fill="url(#paint57_linear_594_328)"/>
<path d="M227.12 23.7487C227.12 23.2412 227.533 22.828 228.041 22.828H233.928C234.435 22.828 234.848 23.2412 234.848 23.7487C234.848 24.2561 234.435 24.6693 233.928 24.6693H228.041C227.533 24.6693 227.12 24.2561 227.12 23.7487Z" fill="url(#paint58_linear_594_328)"/>
<path d="M227.12 28.7216C227.12 28.2141 227.533 27.8009 228.041 27.8009H233.928C234.435 27.8009 234.848 28.2141 234.848 28.7216C234.848 29.229 234.435 29.6422 233.928 29.6422H228.041C227.533 29.6422 227.12 29.229 227.12 28.7216Z" fill="url(#paint59_linear_594_328)"/>
<path d="M227.12 33.6874C227.12 33.1799 227.533 32.7667 228.041 32.7667H233.928C234.435 32.7667 234.848 33.1799 234.848 33.6874C234.848 34.1948 234.435 34.608 233.928 34.608H228.041C227.533 34.608 227.12 34.1948 227.12 33.6874Z" fill="url(#paint60_linear_594_328)"/>
<path d="M227.12 38.6604C227.12 38.153 227.533 37.7397 228.041 37.7397H233.928C234.435 37.7397 234.848 38.153 234.848 38.6604C234.848 39.1679 234.435 39.5811 233.928 39.5811H228.041C227.533 39.5811 227.12 39.1679 227.12 38.6604Z" fill="url(#paint61_linear_594_328)"/>
<path d="M227.12 43.6261C227.12 43.1187 227.533 42.7054 228.041 42.7054H233.928C234.435 42.7054 234.848 43.1187 234.848 43.6261C234.848 44.1336 234.435 44.5468 233.928 44.5468H228.041C227.533 44.5468 227.12 44.1336 227.12 43.6261Z" fill="url(#paint62_linear_594_328)"/>
<path d="M227.12 48.5919C227.12 48.0845 227.533 47.6713 228.041 47.6713H233.928C234.435 47.6713 234.848 48.0845 234.848 48.5919C234.848 49.0994 234.435 49.5126 233.928 49.5126H228.041C227.533 49.5126 227.12 49.0994 227.12 48.5919Z" fill="url(#paint63_linear_594_328)"/>
<path d="M227.12 53.5648C227.12 53.0574 227.533 52.6442 228.041 52.6442H233.928C234.435 52.6442 234.848 53.0574 234.848 53.5648C234.848 54.0723 234.435 54.4855 233.928 54.4855H228.041C227.533 54.4855 227.12 54.0723 227.12 53.5648Z" fill="url(#paint64_linear_594_328)"/>
<path d="M227.12 58.5306C227.12 58.0232 227.533 57.61 228.041 57.61H233.928C234.435 57.61 234.848 58.0232 234.848 58.5306C234.848 59.0381 234.435 59.4513 233.928 59.4513H228.041C227.533 59.4513 227.12 59.0381 227.12 58.5306Z" fill="url(#paint65_linear_594_328)"/>
<path d="M227.12 63.5037C227.12 62.9962 227.533 62.583 228.041 62.583H233.928C234.435 62.583 234.848 62.9962 234.848 63.5037C234.848 64.0111 234.435 64.4243 233.928 64.4243H228.041C227.533 64.4243 227.12 64.0111 227.12 63.5037Z" fill="url(#paint66_linear_594_328)"/>
<path d="M227.12 68.4694C227.12 67.9619 227.533 67.5487 228.041 67.5487H233.928C234.435 67.5487 234.848 67.9619 234.848 68.4694C234.848 68.9768 234.435 69.39 233.928 69.39H228.041C227.533 69.39 227.12 68.9768 227.12 68.4694Z" fill="url(#paint67_linear_594_328)"/>
<path d="M227.12 73.4351C227.12 72.9276 227.533 72.5144 228.041 72.5144H233.928C234.435 72.5144 234.848 72.9276 234.848 73.4351C234.848 73.9425 234.435 74.3557 233.928 74.3557H228.041C227.533 74.3557 227.12 73.9425 227.12 73.4351Z" fill="url(#paint68_linear_594_328)"/>
<path d="M227.12 78.4081C227.12 77.9006 227.533 77.4874 228.041 77.4874H233.928C234.435 77.4874 234.848 77.9006 234.848 78.4081C234.848 78.9155 234.435 79.3287 233.928 79.3287H228.041C227.533 79.3287 227.12 78.9155 227.12 78.4081Z" fill="url(#paint69_linear_594_328)"/>
<path d="M227.12 83.3739C227.12 82.8665 227.533 82.4532 228.041 82.4532H233.928C234.435 82.4532 234.848 82.8665 234.848 83.3739C234.848 83.8814 234.435 84.2946 233.928 84.2946H228.041C227.533 84.2946 227.12 83.8814 227.12 83.3739Z" fill="url(#paint70_linear_594_328)"/>
<path d="M227.12 88.3469C227.12 87.8395 227.533 87.4263 228.041 87.4263H233.928C234.435 87.4263 234.848 87.8395 234.848 88.3469C234.848 88.8544 234.435 89.2676 233.928 89.2676H228.041C227.533 89.2676 227.12 88.8544 227.12 88.3469Z" fill="url(#paint71_linear_594_328)"/>
<path d="M227.12 93.3126C227.12 92.8052 227.533 92.392 228.041 92.392H233.928C234.435 92.392 234.848 92.8052 234.848 93.3126C234.848 93.8201 234.435 94.2333 233.928 94.2333H228.041C227.533 94.2333 227.12 93.8201 227.12 93.3126Z" fill="url(#paint72_linear_594_328)"/>
<path d="M227.12 98.2783C227.12 97.7709 227.533 97.3577 228.041 97.3577H233.928C234.435 97.3577 234.848 97.7709 234.848 98.2783C234.848 98.7858 234.435 99.199 233.928 99.199H228.041C227.533 99.199 227.12 98.7858 227.12 98.2783Z" fill="url(#paint73_linear_594_328)"/>
<path d="M227.12 103.251C227.12 102.744 227.533 102.331 228.041 102.331H233.928C234.435 102.331 234.848 102.744 234.848 103.251C234.848 103.759 234.435 104.172 233.928 104.172H228.041C227.533 104.172 227.12 103.759 227.12 103.251Z" fill="url(#paint74_linear_594_328)"/>
<g style="mix-blend-mode:multiply" opacity="0.5">
<path d="M336.765 14.6653C336.765 15.6295 335.982 16.4052 335.025 16.4052H330.066C329.784 16.4052 329.552 16.6371 329.552 16.9199C329.552 17.2026 329.784 17.4346 330.066 17.4346H335.025C336.555 17.4346 337.795 16.1949 337.795 14.6653V9.70684C337.795 9.42412 337.563 9.19214 337.28 9.19214C336.997 9.19214 336.765 9.42412 336.765 9.70684V14.6653Z" fill="#999999"/>
</g>
<path d="M241.149 22.828H319.858C320.583 22.828 321.178 23.4224 321.178 24.1474V102.86C321.178 103.585 320.583 104.179 319.858 104.179H241.149C240.424 104.179 239.829 103.585 239.829 102.86V24.1474C239.829 23.4224 240.424 22.828 241.149 22.828Z" fill="url(#paint75_linear_594_328)"/>
<path d="M241.816 24.1473H319.184C319.554 24.1473 319.859 24.4518 319.859 24.8215V102.186C319.859 102.555 319.554 102.86 319.184 102.86H241.816C241.446 102.86 241.142 102.555 241.142 102.186V24.8215C241.142 24.4518 241.446 24.1473 241.816 24.1473Z" fill="url(#paint76_linear_594_328)"/>
<path d="M284.713 43.2057H294.391L309.913 81.9531H299.843L296.726 73.9716H282.371L279.254 81.9531H269.126L284.706 43.2057H284.713ZM294.282 66.4324L289.556 53.4054L284.771 66.4324H294.282Z" fill="#9F80FF"/>
<path d="M254.617 43.2057H264.47V81.9531H254.617V43.2057Z" fill="#9F80FF"/>
<path d="M237.474 0H245.086C245.774 0 246.34 0.558194 246.34 1.25412V4.10309H236.227V1.25412C236.227 0.565443 236.785 0 237.481 0H237.474Z" fill="url(#paint77_linear_594_328)"/>
<path d="M253.154 0H260.766C261.455 0 262.021 0.558194 262.021 1.25412V4.10309H251.907V1.25412C251.907 0.565443 252.465 0 253.161 0H253.154Z" fill="url(#paint78_linear_594_328)"/>
<path d="M268.835 0H276.447C277.136 0 277.701 0.558194 277.701 1.25412V4.10309H267.588V1.25412C267.588 0.565443 268.146 0 268.842 0H268.835Z" fill="url(#paint79_linear_594_328)"/>
<path d="M284.509 0H292.121C292.81 0 293.375 0.558194 293.375 1.25412V4.10309H283.262V1.25412C283.262 0.565443 283.82 0 284.516 0H284.509Z" fill="url(#paint80_linear_594_328)"/>
<path d="M300.19 0H307.802C308.491 0 309.057 0.558194 309.057 1.25412V4.10309H298.943V1.25412C298.943 0.565443 299.502 0 300.198 0H300.19Z" fill="url(#paint81_linear_594_328)"/>
<path d="M315.871 0H323.483C324.172 0 324.737 0.558194 324.737 1.25412V4.10309H314.624V1.25412C314.624 0.565443 315.182 0 315.878 0H315.871Z" fill="url(#paint82_linear_594_328)"/>
<path d="M323.476 127H315.864C315.175 127 314.609 126.442 314.609 125.746V122.897H324.723V125.746C324.723 126.435 324.164 127 323.468 127H323.476Z" fill="url(#paint83_linear_594_328)"/>
<path d="M307.802 127H300.19C299.501 127 298.936 126.442 298.936 125.746V122.897H309.049V125.746C309.049 126.435 308.491 127 307.795 127H307.802Z" fill="url(#paint84_linear_594_328)"/>
<path d="M292.121 127H284.509C283.82 127 283.255 126.442 283.255 125.746V122.897H293.368V125.746C293.368 126.435 292.81 127 292.114 127H292.121Z" fill="url(#paint85_linear_594_328)"/>
<path d="M276.441 127H268.828C268.14 127 267.574 126.442 267.574 125.746V122.897H277.688V125.746C277.688 126.435 277.129 127 276.433 127H276.441Z" fill="url(#paint86_linear_594_328)"/>
<path d="M260.767 127H253.155C252.466 127 251.9 126.442 251.9 125.746V122.897H262.014V125.746C262.014 126.435 261.455 127 260.759 127H260.767Z" fill="url(#paint87_linear_594_328)"/>
<path d="M245.085 127H237.473C236.784 127 236.219 126.442 236.219 125.746V122.897H246.332V125.746C246.332 126.435 245.774 127 245.078 127H245.085Z" fill="url(#paint88_linear_594_328)"/>
<path d="M344.007 20.5226V28.1344C344.007 28.823 343.449 29.3885 342.753 29.3885H339.904V19.2758H342.753C343.441 19.2758 344.007 19.8339 344.007 20.5299V20.5226Z" fill="url(#paint89_linear_594_328)"/>
<path d="M344 36.2028V43.8145C344 44.5032 343.442 45.0687 342.746 45.0687H339.897V34.9559H342.746C343.435 34.9559 344 35.5141 344 36.2101V36.2028Z" fill="url(#paint90_linear_594_328)"/>
<path d="M344 51.8758V59.4875C344 60.1762 343.442 60.7416 342.746 60.7416H339.897V50.6289H342.746C343.435 50.6289 344 51.1871 344 51.883V51.8758Z" fill="url(#paint91_linear_594_328)"/>
<path d="M344.007 67.556V75.1677C344.007 75.8564 343.449 76.4218 342.753 76.4218H339.904V66.3091H342.753C343.441 66.3091 344.007 66.8673 344.007 67.5632V67.556Z" fill="url(#paint92_linear_594_328)"/>
<path d="M344 83.2361V90.8479C344 91.5365 343.442 92.102 342.746 92.102H339.897V81.9893H342.746C343.435 81.9893 344 82.5474 344 83.2434V83.2361Z" fill="url(#paint93_linear_594_328)"/>
<path d="M344 98.9163V106.528C344 107.217 343.442 107.782 342.746 107.782H339.897V97.6694H342.746C343.435 97.6694 344 98.2276 344 98.9236V98.9163Z" fill="url(#paint94_linear_594_328)"/>
<path d="M217 106.521V98.909C217 98.2204 217.558 97.6549 218.254 97.6549H221.103V107.775H218.254C217.565 107.775 217 107.217 217 106.521Z" fill="url(#paint95_linear_594_328)"/>
<path d="M217 90.8406V83.2289C217 82.5402 217.558 81.9747 218.254 81.9747H221.103V92.0947H218.254C217.565 92.0947 217 91.5365 217 90.8406Z" fill="url(#paint96_linear_594_328)"/>
<path d="M217 75.1678V67.556C217 66.8673 217.558 66.3019 218.254 66.3019H221.103V76.4219H218.254C217.565 76.4219 217 75.8637 217 75.1678Z" fill="url(#paint97_linear_594_328)"/>
<path d="M217 59.4876V51.8758C217 51.1872 217.558 50.6217 218.254 50.6217H221.103V60.7417H218.254C217.565 60.7417 217 60.1835 217 59.4876Z" fill="url(#paint98_linear_594_328)"/>
<path d="M217 43.8074V36.1957C217 35.507 217.558 34.9415 218.254 34.9415H221.103V45.0615H218.254C217.565 45.0615 217 44.5033 217 43.8074Z" fill="url(#paint99_linear_594_328)"/>
<path d="M217 28.1272V20.5155C217 19.8268 217.558 19.2614 218.254 19.2614H221.103V29.3813H218.254C217.565 29.3813 217 28.8232 217 28.1272Z" fill="url(#paint100_linear_594_328)"/>
<g style="mix-blend-mode:multiply">
<path d="M316.023 105.383H244.983C244.701 105.383 244.469 105.151 244.469 104.868C244.469 104.585 244.701 104.353 244.983 104.353H316.023C316.306 104.353 316.538 104.585 316.538 104.868C316.538 105.151 316.306 105.383 316.023 105.383Z" fill="#999999"/>
</g>
<path d="M244.034 100.402H246.26C246.455 100.402 246.615 100.243 246.615 100.047C246.615 99.8515 246.455 99.692 246.26 99.692H244.034C243.838 99.692 243.679 99.8515 243.679 100.047C243.679 100.243 243.838 100.402 244.034 100.402Z" fill="url(#paint101_linear_594_328)"/>
<path d="M244.034 99.0541H246.26C246.455 99.0541 246.615 98.8946 246.615 98.6988C246.615 98.5031 246.455 98.3436 246.26 98.3436H244.034C243.838 98.3436 243.679 98.5031 243.679 98.6988C243.679 98.8946 243.838 99.0541 244.034 99.0541Z" fill="url(#paint102_linear_594_328)"/>
<path d="M244.034 97.713H246.26C246.455 97.713 246.615 97.5535 246.615 97.3578C246.615 97.1621 246.455 97.0026 246.26 97.0026H244.034C243.838 97.0026 243.679 97.1621 243.679 97.3578C243.679 97.5535 243.838 97.713 244.034 97.713Z" fill="#6CEAFF"/>
<path d="M244.034 96.3718H246.26C246.455 96.3718 246.615 96.2123 246.615 96.0166C246.615 95.8209 246.455 95.6614 246.26 95.6614H244.034C243.838 95.6614 243.679 95.8209 243.679 96.0166C243.679 96.2123 243.838 96.3718 244.034 96.3718Z" fill="#6CEAFF"/>
<path d="M244.034 95.0234H246.26C246.455 95.0234 246.615 94.8639 246.615 94.6682C246.615 94.4725 246.455 94.313 246.26 94.313H244.034C243.838 94.313 243.679 94.4725 243.679 94.6682C243.679 94.8639 243.838 95.0234 244.034 95.0234Z" fill="url(#paint103_linear_594_328)"/>
<path d="M249.131 100.402H253.111C253.691 100.402 254.162 99.9319 254.162 99.3513V95.3715C254.162 94.7909 253.691 94.3203 253.111 94.3203H249.131C248.55 94.3203 248.08 94.7909 248.08 95.3715V99.3513C248.08 99.9319 248.55 100.402 249.131 100.402Z" stroke="#6CEAFF" stroke-width="0.27" stroke-miterlimit="10"/>
</g>
<path d="M0 0.5H96.3606C98.0424 0.5 99.6471 1.20588 100.784 2.44565L119.216 22.5543C120.353 23.7941 121.958 24.5 123.639 24.5H217" stroke="url(#paint104_linear_594_328)"/>
<path d="M172.5 40H216.5" stroke="#FFFEFA"/>
<path d="M172.5 56H216.5" stroke="#FFFEFA"/>
<path d="M172.5 71H216.5" stroke="#FFFEFA"/>
<defs>
<linearGradient id="paint0_linear_594_328" x1="222.328" y1="122.563" x2="336.272" y2="6.87304" gradientUnits="userSpaceOnUse">
<stop stop-color="#374DED"/>
<stop offset="1" stop-color="#6E50FF"/>
</linearGradient>
<linearGradient id="paint1_linear_594_328" x1="335.51" y1="9.16308" x2="224.241" y2="119.09" gradientUnits="userSpaceOnUse">
<stop stop-color="#374DED"/>
<stop offset="1" stop-color="#6E50FF"/>
</linearGradient>
<linearGradient id="paint2_linear_594_328" x1="325.578" y1="11.1639" x2="233.281" y2="118.342" gradientUnits="userSpaceOnUse">
<stop stop-color="#350089"/>
<stop offset="1" stop-color="#000E35"/>
</linearGradient>
<linearGradient id="paint3_linear_594_328" x1="232.681" y1="8.47445" x2="224.946" y2="15.5937" gradientUnits="userSpaceOnUse">
<stop stop-color="#BCB3FF"/>
<stop offset="1" stop-color="#6E50FF"/>
</linearGradient>
<linearGradient id="paint4_linear_594_328" x1="232.949" y1="111.153" x2="224.873" y2="119.026" gradientUnits="userSpaceOnUse">
<stop stop-color="#BCB3FF"/>
<stop offset="1" stop-color="#6E50FF"/>
</linearGradient>
<linearGradient id="paint5_linear_594_328" x1="336.184" y1="111.508" x2="327.862" y2="119.106" gradientUnits="userSpaceOnUse">
<stop stop-color="#BCB3FF"/>
<stop offset="1" stop-color="#6E50FF"/>
</linearGradient>
<linearGradient id="paint6_linear_594_328" x1="335.765" y1="8.34388" x2="328.805" y2="15.5356" gradientUnits="userSpaceOnUse">
<stop stop-color="#BCB3FF"/>
<stop offset="1" stop-color="#6E50FF"/>
</linearGradient>
<linearGradient id="paint7_linear_594_328" x1="239.829" y1="13.9838" x2="241.678" y2="13.9838" gradientUnits="userSpaceOnUse">
<stop stop-color="#374DED"/>
<stop offset="1" stop-color="#6E50FF"/>
</linearGradient>
<linearGradient id="paint8_linear_594_328" x1="244.795" y1="13.9838" x2="246.644" y2="13.9838" gradientUnits="userSpaceOnUse">
<stop stop-color="#374DED"/>
<stop offset="1" stop-color="#6E50FF"/>
</linearGradient>
<linearGradient id="paint9_linear_594_328" x1="249.769" y1="13.9838" x2="251.61" y2="13.9838" gradientUnits="userSpaceOnUse">
<stop stop-color="#374DED"/>
<stop offset="1" stop-color="#6E50FF"/>
</linearGradient>
<linearGradient id="paint10_linear_594_328" x1="254.734" y1="13.9838" x2="256.583" y2="13.9838" gradientUnits="userSpaceOnUse">
<stop stop-color="#374DED"/>
<stop offset="1" stop-color="#6E50FF"/>
</linearGradient>
<linearGradient id="paint11_linear_594_328" x1="259.701" y1="13.9838" x2="261.549" y2="13.9838" gradientUnits="userSpaceOnUse">
<stop stop-color="#374DED"/>
<stop offset="1" stop-color="#6E50FF"/>
</linearGradient>
<linearGradient id="paint12_linear_594_328" x1="264.674" y1="13.9838" x2="266.522" y2="13.9838" gradientUnits="userSpaceOnUse">
<stop stop-color="#374DED"/>
<stop offset="1" stop-color="#6E50FF"/>
</linearGradient>
<linearGradient id="paint13_linear_594_328" x1="269.64" y1="13.9838" x2="271.489" y2="13.9838" gradientUnits="userSpaceOnUse">
<stop stop-color="#374DED"/>
<stop offset="1" stop-color="#6E50FF"/>
</linearGradient>
<linearGradient id="paint14_linear_594_328" x1="274.613" y1="13.9838" x2="276.462" y2="13.9838" gradientUnits="userSpaceOnUse">
<stop stop-color="#374DED"/>
<stop offset="1" stop-color="#6E50FF"/>
</linearGradient>
<linearGradient id="paint15_linear_594_328" x1="279.579" y1="13.9838" x2="281.428" y2="13.9838" gradientUnits="userSpaceOnUse">
<stop stop-color="#374DED"/>
<stop offset="1" stop-color="#6E50FF"/>
</linearGradient>
<linearGradient id="paint16_linear_594_328" x1="284.545" y1="13.9838" x2="286.394" y2="13.9838" gradientUnits="userSpaceOnUse">
<stop stop-color="#374DED"/>
<stop offset="1" stop-color="#6E50FF"/>
</linearGradient>
<linearGradient id="paint17_linear_594_328" x1="289.519" y1="13.9838" x2="291.367" y2="13.9838" gradientUnits="userSpaceOnUse">
<stop stop-color="#374DED"/>
<stop offset="1" stop-color="#6E50FF"/>
</linearGradient>
<linearGradient id="paint18_linear_594_328" x1="294.485" y1="13.9838" x2="296.334" y2="13.9838" gradientUnits="userSpaceOnUse">
<stop stop-color="#374DED"/>
<stop offset="1" stop-color="#6E50FF"/>
</linearGradient>
<linearGradient id="paint19_linear_594_328" x1="299.458" y1="13.9838" x2="301.307" y2="13.9838" gradientUnits="userSpaceOnUse">
<stop stop-color="#374DED"/>
<stop offset="1" stop-color="#6E50FF"/>
</linearGradient>
<linearGradient id="paint20_linear_594_328" x1="304.424" y1="13.9838" x2="306.272" y2="13.9838" gradientUnits="userSpaceOnUse">
<stop stop-color="#374DED"/>
<stop offset="1" stop-color="#6E50FF"/>
</linearGradient>
<linearGradient id="paint21_linear_594_328" x1="309.39" y1="13.9838" x2="311.239" y2="13.9838" gradientUnits="userSpaceOnUse">
<stop stop-color="#374DED"/>
<stop offset="1" stop-color="#6E50FF"/>
</linearGradient>
<linearGradient id="paint22_linear_594_328" x1="314.363" y1="13.9838" x2="316.212" y2="13.9838" gradientUnits="userSpaceOnUse">
<stop stop-color="#374DED"/>
<stop offset="1" stop-color="#6E50FF"/>
</linearGradient>
<linearGradient id="paint23_linear_594_328" x1="319.33" y1="13.9838" x2="321.178" y2="13.9838" gradientUnits="userSpaceOnUse">
<stop stop-color="#374DED"/>
<stop offset="1" stop-color="#6E50FF"/>
</linearGradient>
<linearGradient id="paint24_linear_594_328" x1="239.829" y1="113.016" x2="241.678" y2="113.016" gradientUnits="userSpaceOnUse">
<stop stop-color="#374DED"/>
<stop offset="1" stop-color="#6E50FF"/>
</linearGradient>
<linearGradient id="paint25_linear_594_328" x1="244.795" y1="113.016" x2="246.644" y2="113.016" gradientUnits="userSpaceOnUse">
<stop stop-color="#374DED"/>
<stop offset="1" stop-color="#6E50FF"/>
</linearGradient>
<linearGradient id="paint26_linear_594_328" x1="249.769" y1="113.016" x2="251.61" y2="113.016" gradientUnits="userSpaceOnUse">
<stop stop-color="#374DED"/>
<stop offset="1" stop-color="#6E50FF"/>
</linearGradient>
<linearGradient id="paint27_linear_594_328" x1="254.734" y1="113.016" x2="256.583" y2="113.016" gradientUnits="userSpaceOnUse">
<stop stop-color="#374DED"/>
<stop offset="1" stop-color="#6E50FF"/>
</linearGradient>
<linearGradient id="paint28_linear_594_328" x1="259.701" y1="113.016" x2="261.549" y2="113.016" gradientUnits="userSpaceOnUse">
<stop stop-color="#374DED"/>
<stop offset="1" stop-color="#6E50FF"/>
</linearGradient>
<linearGradient id="paint29_linear_594_328" x1="264.674" y1="113.016" x2="266.522" y2="113.016" gradientUnits="userSpaceOnUse">
<stop stop-color="#374DED"/>
<stop offset="1" stop-color="#6E50FF"/>
</linearGradient>
<linearGradient id="paint30_linear_594_328" x1="269.64" y1="113.016" x2="271.489" y2="113.016" gradientUnits="userSpaceOnUse">
<stop stop-color="#374DED"/>
<stop offset="1" stop-color="#6E50FF"/>
</linearGradient>
<linearGradient id="paint31_linear_594_328" x1="274.613" y1="113.016" x2="276.462" y2="113.016" gradientUnits="userSpaceOnUse">
<stop stop-color="#374DED"/>
<stop offset="1" stop-color="#6E50FF"/>
</linearGradient>
<linearGradient id="paint32_linear_594_328" x1="279.579" y1="113.016" x2="281.428" y2="113.016" gradientUnits="userSpaceOnUse">
<stop stop-color="#374DED"/>
<stop offset="1" stop-color="#6E50FF"/>
</linearGradient>
<linearGradient id="paint33_linear_594_328" x1="284.545" y1="113.016" x2="286.394" y2="113.016" gradientUnits="userSpaceOnUse">
<stop stop-color="#374DED"/>
<stop offset="1" stop-color="#6E50FF"/>
</linearGradient>
<linearGradient id="paint34_linear_594_328" x1="289.519" y1="113.016" x2="291.367" y2="113.016" gradientUnits="userSpaceOnUse">
<stop stop-color="#374DED"/>
<stop offset="1" stop-color="#6E50FF"/>
</linearGradient>
<linearGradient id="paint35_linear_594_328" x1="294.485" y1="113.016" x2="296.334" y2="113.016" gradientUnits="userSpaceOnUse">
<stop stop-color="#374DED"/>
<stop offset="1" stop-color="#6E50FF"/>
</linearGradient>
<linearGradient id="paint36_linear_594_328" x1="299.458" y1="113.016" x2="301.307" y2="113.016" gradientUnits="userSpaceOnUse">
<stop stop-color="#374DED"/>
<stop offset="1" stop-color="#6E50FF"/>
</linearGradient>
<linearGradient id="paint37_linear_594_328" x1="304.424" y1="113.016" x2="306.272" y2="113.016" gradientUnits="userSpaceOnUse">
<stop stop-color="#374DED"/>
<stop offset="1" stop-color="#6E50FF"/>
</linearGradient>
<linearGradient id="paint38_linear_594_328" x1="309.39" y1="113.016" x2="311.239" y2="113.016" gradientUnits="userSpaceOnUse">
<stop stop-color="#374DED"/>
<stop offset="1" stop-color="#6E50FF"/>
</linearGradient>
<linearGradient id="paint39_linear_594_328" x1="314.363" y1="113.016" x2="316.212" y2="113.016" gradientUnits="userSpaceOnUse">
<stop stop-color="#374DED"/>
<stop offset="1" stop-color="#6E50FF"/>
</linearGradient>
<linearGradient id="paint40_linear_594_328" x1="319.33" y1="113.016" x2="321.178" y2="113.016" gradientUnits="userSpaceOnUse">
<stop stop-color="#374DED"/>
<stop offset="1" stop-color="#6E50FF"/>
</linearGradient>
<linearGradient id="paint41_linear_594_328" x1="326.151" y1="23.7487" x2="333.887" y2="23.7487" gradientUnits="userSpaceOnUse">
<stop stop-color="#374DED"/>
<stop offset="1" stop-color="#6E50FF"/>
</linearGradient>
<linearGradient id="paint42_linear_594_328" x1="326.151" y1="28.7216" x2="333.887" y2="28.7216" gradientUnits="userSpaceOnUse">
<stop stop-color="#374DED"/>
<stop offset="1" stop-color="#6E50FF"/>
</linearGradient>
<linearGradient id="paint43_linear_594_328" x1="326.151" y1="33.6874" x2="333.887" y2="33.6874" gradientUnits="userSpaceOnUse">
<stop stop-color="#374DED"/>
<stop offset="1" stop-color="#6E50FF"/>
</linearGradient>
<linearGradient id="paint44_linear_594_328" x1="326.151" y1="38.6604" x2="333.887" y2="38.6604" gradientUnits="userSpaceOnUse">
<stop stop-color="#374DED"/>
<stop offset="1" stop-color="#6E50FF"/>
</linearGradient>
<linearGradient id="paint45_linear_594_328" x1="326.151" y1="43.6261" x2="333.887" y2="43.6261" gradientUnits="userSpaceOnUse">
<stop stop-color="#374DED"/>
<stop offset="1" stop-color="#6E50FF"/>
</linearGradient>
<linearGradient id="paint46_linear_594_328" x1="326.151" y1="48.5919" x2="333.887" y2="48.5919" gradientUnits="userSpaceOnUse">
<stop stop-color="#374DED"/>
<stop offset="1" stop-color="#6E50FF"/>
</linearGradient>
<linearGradient id="paint47_linear_594_328" x1="326.151" y1="53.5648" x2="333.887" y2="53.5648" gradientUnits="userSpaceOnUse">
<stop stop-color="#374DED"/>
<stop offset="1" stop-color="#6E50FF"/>
</linearGradient>
<linearGradient id="paint48_linear_594_328" x1="326.151" y1="58.5306" x2="333.887" y2="58.5306" gradientUnits="userSpaceOnUse">
<stop stop-color="#374DED"/>
<stop offset="1" stop-color="#6E50FF"/>
</linearGradient>
<linearGradient id="paint49_linear_594_328" x1="326.151" y1="63.5037" x2="333.887" y2="63.5037" gradientUnits="userSpaceOnUse">
<stop stop-color="#374DED"/>
<stop offset="1" stop-color="#6E50FF"/>
</linearGradient>
<linearGradient id="paint50_linear_594_328" x1="326.151" y1="68.4694" x2="333.887" y2="68.4694" gradientUnits="userSpaceOnUse">
<stop stop-color="#374DED"/>
<stop offset="1" stop-color="#6E50FF"/>
</linearGradient>
<linearGradient id="paint51_linear_594_328" x1="326.151" y1="73.4351" x2="333.887" y2="73.4351" gradientUnits="userSpaceOnUse">
<stop stop-color="#374DED"/>
<stop offset="1" stop-color="#6E50FF"/>
</linearGradient>
<linearGradient id="paint52_linear_594_328" x1="326.151" y1="78.4081" x2="333.887" y2="78.4081" gradientUnits="userSpaceOnUse">
<stop stop-color="#374DED"/>
<stop offset="1" stop-color="#6E50FF"/>
</linearGradient>
<linearGradient id="paint53_linear_594_328" x1="326.151" y1="83.3739" x2="333.887" y2="83.3739" gradientUnits="userSpaceOnUse">
<stop stop-color="#374DED"/>
<stop offset="1" stop-color="#6E50FF"/>
</linearGradient>
<linearGradient id="paint54_linear_594_328" x1="326.151" y1="88.3469" x2="333.887" y2="88.3469" gradientUnits="userSpaceOnUse">
<stop stop-color="#374DED"/>
<stop offset="1" stop-color="#6E50FF"/>
</linearGradient>
<linearGradient id="paint55_linear_594_328" x1="326.151" y1="93.3126" x2="333.887" y2="93.3126" gradientUnits="userSpaceOnUse">
<stop stop-color="#374DED"/>
<stop offset="1" stop-color="#6E50FF"/>
</linearGradient>
<linearGradient id="paint56_linear_594_328" x1="326.151" y1="98.2783" x2="333.887" y2="98.2783" gradientUnits="userSpaceOnUse">
<stop stop-color="#374DED"/>
<stop offset="1" stop-color="#6E50FF"/>
</linearGradient>
<linearGradient id="paint57_linear_594_328" x1="326.151" y1="103.251" x2="333.887" y2="103.251" gradientUnits="userSpaceOnUse">
<stop stop-color="#374DED"/>
<stop offset="1" stop-color="#6E50FF"/>
</linearGradient>
<linearGradient id="paint58_linear_594_328" x1="227.12" y1="23.7487" x2="234.856" y2="23.7487" gradientUnits="userSpaceOnUse">
<stop stop-color="#374DED"/>
<stop offset="1" stop-color="#6E50FF"/>
</linearGradient>
<linearGradient id="paint59_linear_594_328" x1="227.12" y1="28.7216" x2="234.856" y2="28.7216" gradientUnits="userSpaceOnUse">
<stop stop-color="#374DED"/>
<stop offset="1" stop-color="#6E50FF"/>
</linearGradient>
<linearGradient id="paint60_linear_594_328" x1="227.12" y1="33.6874" x2="234.856" y2="33.6874" gradientUnits="userSpaceOnUse">
<stop stop-color="#374DED"/>
<stop offset="1" stop-color="#6E50FF"/>
</linearGradient>
<linearGradient id="paint61_linear_594_328" x1="227.12" y1="38.6604" x2="234.856" y2="38.6604" gradientUnits="userSpaceOnUse">
<stop stop-color="#374DED"/>
<stop offset="1" stop-color="#6E50FF"/>
</linearGradient>
<linearGradient id="paint62_linear_594_328" x1="227.12" y1="43.6261" x2="234.856" y2="43.6261" gradientUnits="userSpaceOnUse">
<stop stop-color="#374DED"/>
<stop offset="1" stop-color="#6E50FF"/>
</linearGradient>
<linearGradient id="paint63_linear_594_328" x1="227.12" y1="48.5919" x2="234.856" y2="48.5919" gradientUnits="userSpaceOnUse">
<stop stop-color="#374DED"/>
<stop offset="1" stop-color="#6E50FF"/>
</linearGradient>
<linearGradient id="paint64_linear_594_328" x1="227.12" y1="53.5648" x2="234.856" y2="53.5648" gradientUnits="userSpaceOnUse">
<stop stop-color="#374DED"/>
<stop offset="1" stop-color="#6E50FF"/>
</linearGradient>
<linearGradient id="paint65_linear_594_328" x1="227.12" y1="58.5306" x2="234.856" y2="58.5306" gradientUnits="userSpaceOnUse">
<stop stop-color="#374DED"/>
<stop offset="1" stop-color="#6E50FF"/>
</linearGradient>
<linearGradient id="paint66_linear_594_328" x1="227.12" y1="63.5037" x2="234.856" y2="63.5037" gradientUnits="userSpaceOnUse">
<stop stop-color="#374DED"/>
<stop offset="1" stop-color="#6E50FF"/>
</linearGradient>
<linearGradient id="paint67_linear_594_328" x1="227.12" y1="68.4694" x2="234.856" y2="68.4694" gradientUnits="userSpaceOnUse">
<stop stop-color="#374DED"/>
<stop offset="1" stop-color="#6E50FF"/>
</linearGradient>
<linearGradient id="paint68_linear_594_328" x1="227.12" y1="73.4351" x2="234.856" y2="73.4351" gradientUnits="userSpaceOnUse">
<stop stop-color="#374DED"/>
<stop offset="1" stop-color="#6E50FF"/>
</linearGradient>
<linearGradient id="paint69_linear_594_328" x1="227.12" y1="78.4081" x2="234.856" y2="78.4081" gradientUnits="userSpaceOnUse">
<stop stop-color="#374DED"/>
<stop offset="1" stop-color="#6E50FF"/>
</linearGradient>
<linearGradient id="paint70_linear_594_328" x1="227.12" y1="83.3739" x2="234.856" y2="83.3739" gradientUnits="userSpaceOnUse">
<stop stop-color="#374DED"/>
<stop offset="1" stop-color="#6E50FF"/>
</linearGradient>
<linearGradient id="paint71_linear_594_328" x1="227.12" y1="88.3469" x2="234.856" y2="88.3469" gradientUnits="userSpaceOnUse">
<stop stop-color="#374DED"/>
<stop offset="1" stop-color="#6E50FF"/>
</linearGradient>
<linearGradient id="paint72_linear_594_328" x1="227.12" y1="93.3126" x2="234.856" y2="93.3126" gradientUnits="userSpaceOnUse">
<stop stop-color="#374DED"/>
<stop offset="1" stop-color="#6E50FF"/>
</linearGradient>
<linearGradient id="paint73_linear_594_328" x1="227.12" y1="98.2783" x2="234.856" y2="98.2783" gradientUnits="userSpaceOnUse">
<stop stop-color="#374DED"/>
<stop offset="1" stop-color="#6E50FF"/>
</linearGradient>
<linearGradient id="paint74_linear_594_328" x1="227.12" y1="103.251" x2="234.856" y2="103.251" gradientUnits="userSpaceOnUse">
<stop stop-color="#374DED"/>
<stop offset="1" stop-color="#6E50FF"/>
</linearGradient>
<linearGradient id="paint75_linear_594_328" x1="318.677" y1="25.8219" x2="242.516" y2="101.001" gradientUnits="userSpaceOnUse">
<stop stop-color="#374DED"/>
<stop offset="1" stop-color="#6E50FF"/>
</linearGradient>
<linearGradient id="paint76_linear_594_328" x1="243.925" y1="102.577" x2="315.787" y2="25.7961" gradientUnits="userSpaceOnUse">
<stop stop-color="#374DED"/>
<stop offset="1" stop-color="#6E50FF"/>
</linearGradient>
<linearGradient id="paint77_linear_594_328" x1="241.28" y1="0.166733" x2="241.28" y2="4.02335" gradientUnits="userSpaceOnUse">
<stop stop-color="#6CEAFF"/>
<stop offset="1" stop-color="#374DED"/>
</linearGradient>
<linearGradient id="paint78_linear_594_328" x1="256.96" y1="0" x2="256.96" y2="0" gradientUnits="userSpaceOnUse">
<stop stop-color="#6CEAFF"/>
<stop offset="1" stop-color="#374DED"/>
</linearGradient>
<linearGradient id="paint79_linear_594_328" x1="272.641" y1="0" x2="272.641" y2="0" gradientUnits="userSpaceOnUse">
<stop stop-color="#6CEAFF"/>
<stop offset="1" stop-color="#374DED"/>
</linearGradient>
<linearGradient id="paint80_linear_594_328" x1="288.315" y1="0" x2="288.315" y2="0" gradientUnits="userSpaceOnUse">
<stop stop-color="#6CEAFF"/>
<stop offset="1" stop-color="#374DED"/>
</linearGradient>
<linearGradient id="paint81_linear_594_328" x1="303.996" y1="0" x2="303.996" y2="0" gradientUnits="userSpaceOnUse">
<stop stop-color="#6CEAFF"/>
<stop offset="1" stop-color="#374DED"/>
</linearGradient>
<linearGradient id="paint82_linear_594_328" x1="319.677" y1="0" x2="319.677" y2="0" gradientUnits="userSpaceOnUse">
<stop stop-color="#6CEAFF"/>
<stop offset="1" stop-color="#374DED"/>
</linearGradient>
<linearGradient id="paint83_linear_594_328" x1="319.677" y1="127.515" x2="319.677" y2="122.955" gradientUnits="userSpaceOnUse">
<stop stop-color="#6CEAFF"/>
<stop offset="1" stop-color="#374DED"/>
</linearGradient>
<linearGradient id="paint84_linear_594_328" x1="303.996" y1="127.515" x2="303.996" y2="122.955" gradientUnits="userSpaceOnUse">
<stop stop-color="#6CEAFF"/>
<stop offset="1" stop-color="#374DED"/>
</linearGradient>
<linearGradient id="paint85_linear_594_328" x1="288.315" y1="127.515" x2="288.315" y2="122.955" gradientUnits="userSpaceOnUse">
<stop stop-color="#6CEAFF"/>
<stop offset="1" stop-color="#374DED"/>
</linearGradient>
<linearGradient id="paint86_linear_594_328" x1="272.642" y1="127.515" x2="272.642" y2="122.955" gradientUnits="userSpaceOnUse">
<stop stop-color="#6CEAFF"/>
<stop offset="1" stop-color="#374DED"/>
</linearGradient>
<linearGradient id="paint87_linear_594_328" x1="256.961" y1="127.515" x2="256.961" y2="122.955" gradientUnits="userSpaceOnUse">
<stop stop-color="#6CEAFF"/>
<stop offset="1" stop-color="#374DED"/>
</linearGradient>
<linearGradient id="paint88_linear_594_328" x1="217" y1="127.515" x2="217.725" y2="122.955" gradientUnits="userSpaceOnUse">
<stop stop-color="#6CEAFF"/>
<stop offset="1" stop-color="#374DED"/>
</linearGradient>
<linearGradient id="paint89_linear_594_328" x1="343.76" y1="24.3285" x2="340.186" y2="24.3285" gradientUnits="userSpaceOnUse">
<stop stop-color="#6CEAFF"/>
<stop offset="1" stop-color="#374DED"/>
</linearGradient>
<linearGradient id="paint90_linear_594_328" x1="343.761" y1="40.0014" x2="340.187" y2="40.0014" gradientUnits="userSpaceOnUse">
<stop stop-color="#6CEAFF"/>
<stop offset="1" stop-color="#374DED"/>
</linearGradient>
<linearGradient id="paint91_linear_594_328" x1="343.761" y1="55.6816" x2="340.187" y2="55.6816" gradientUnits="userSpaceOnUse">
<stop stop-color="#6CEAFF"/>
<stop offset="1" stop-color="#374DED"/>
</linearGradient>
<linearGradient id="paint92_linear_594_328" x1="343.76" y1="71.3618" x2="340.186" y2="71.3618" gradientUnits="userSpaceOnUse">
<stop stop-color="#6CEAFF"/>
<stop offset="1" stop-color="#374DED"/>
</linearGradient>
<linearGradient id="paint93_linear_594_328" x1="343.761" y1="87.042" x2="340.187" y2="87.042" gradientUnits="userSpaceOnUse">
<stop stop-color="#6CEAFF"/>
<stop offset="1" stop-color="#374DED"/>
</linearGradient>
<linearGradient id="paint94_linear_594_328" x1="343.761" y1="102.715" x2="340.187" y2="102.715" gradientUnits="userSpaceOnUse">
<stop stop-color="#6CEAFF"/>
<stop offset="1" stop-color="#374DED"/>
</linearGradient>
<linearGradient id="paint95_linear_594_328" x1="217" y1="102.715" x2="221.096" y2="102.715" gradientUnits="userSpaceOnUse">
<stop stop-color="#6CEAFF"/>
<stop offset="1" stop-color="#374DED"/>
</linearGradient>
<linearGradient id="paint96_linear_594_328" x1="217" y1="87.042" x2="221.096" y2="87.042" gradientUnits="userSpaceOnUse">
<stop stop-color="#6CEAFF"/>
<stop offset="1" stop-color="#374DED"/>
</linearGradient>
<linearGradient id="paint97_linear_594_328" x1="217" y1="71.3619" x2="221.096" y2="71.3619" gradientUnits="userSpaceOnUse">
<stop stop-color="#6CEAFF"/>
<stop offset="1" stop-color="#374DED"/>
</linearGradient>
<linearGradient id="paint98_linear_594_328" x1="217" y1="55.6817" x2="221.096" y2="55.6817" gradientUnits="userSpaceOnUse">
<stop stop-color="#6CEAFF"/>
<stop offset="1" stop-color="#374DED"/>
</linearGradient>
<linearGradient id="paint99_linear_594_328" x1="217" y1="40.0015" x2="221.096" y2="40.0015" gradientUnits="userSpaceOnUse">
<stop stop-color="#6CEAFF"/>
<stop offset="1" stop-color="#374DED"/>
</linearGradient>
<linearGradient id="paint100_linear_594_328" x1="217" y1="24.3286" x2="221.096" y2="24.3286" gradientUnits="userSpaceOnUse">
<stop stop-color="#6CEAFF"/>
<stop offset="1" stop-color="#374DED"/>
</linearGradient>
<linearGradient id="paint101_linear_594_328" x1="244.694" y1="100.837" x2="245.593" y2="99.2643" gradientUnits="userSpaceOnUse">
<stop stop-color="#BCB3FF"/>
<stop offset="1" stop-color="#6E50FF"/>
</linearGradient>
<linearGradient id="paint102_linear_594_328" x1="244.694" y1="99.489" x2="245.593" y2="97.9159" gradientUnits="userSpaceOnUse">
<stop stop-color="#BCB3FF"/>
<stop offset="1" stop-color="#6E50FF"/>
</linearGradient>
<linearGradient id="paint103_linear_594_328" x1="244.694" y1="95.4584" x2="245.593" y2="93.8852" gradientUnits="userSpaceOnUse">
<stop stop-color="#BCB3FF"/>
<stop offset="1" stop-color="#6E50FF"/>
</linearGradient>
<linearGradient id="paint104_linear_594_328" x1="0" y1="12.5" x2="217" y2="12.5" gradientUnits="userSpaceOnUse">
<stop stop-color="#FFFEFA" stop-opacity="0"/>
<stop offset="1" stop-color="#FFFEFA"/>
</linearGradient>
<clipPath id="clip0_594_328">
<rect width="127" height="127" fill="white" transform="translate(217)"/>
</clipPath>
</defs>
</svg>
