<svg width="195" height="141" viewBox="0 0 195 141" fill="none" xmlns="http://www.w3.org/2000/svg">
<path d="M77.7133 26.0388H154.597C158.936 26.0388 162.453 29.5565 162.453 33.8957V129.255C162.453 133.594 158.936 137.112 154.597 137.112H77.7133C73.3741 137.112 69.8564 133.594 69.8564 129.255V33.8957C69.8564 29.5565 73.3741 26.0388 77.7133 26.0388Z" stroke="#293E8F"/>
<path d="M154.63 34.3617H77.6787V129.05H154.63V34.3617Z" fill="#FFD0C0"/>
<path d="M132.027 18.4211H129.185C129.185 18.2392 129.208 18.0573 129.208 17.8754C129.208 10.6669 123.363 4.82275 116.155 4.82275C108.946 4.82275 103.102 10.6669 103.102 17.8754C103.102 18.0573 103.125 18.2392 103.125 18.4211H100.283C96.0643 18.4211 92.6533 21.8435 92.6533 26.0503V33.4862C92.6533 37.7045 96.0757 41.1154 100.283 41.1154H132.027C136.245 41.1154 139.656 37.6931 139.656 33.4862V26.0503C139.656 21.8321 136.234 18.4211 132.027 18.4211ZM116.155 9.74592C117.917 9.74592 119.35 11.1785 119.35 12.9409C119.35 14.7032 117.917 16.1358 116.155 16.1358C114.393 16.1358 112.96 14.7032 112.96 12.9409C112.96 11.1785 114.393 9.74592 116.155 9.74592Z" fill="#FB7447"/>
<path d="M179.894 23.515C179.894 23.515 181.645 14.4759 174.209 8.79097C174.209 8.79097 168.82 5.0048 171.151 2.6626C173.482 0.331773 177.416 4.26576 177.416 5.86891C177.416 5.86891 179.462 -1.64659 182.668 0.331774C184.567 1.50287 184.419 4.41356 184.419 4.41356C184.419 4.41356 192.731 1.05945 191.275 4.84562C189.82 8.63179 185.295 9.22303 185.295 9.22303C185.295 9.22303 181.645 11.5539 182.089 22.7873L179.906 23.515H179.894Z" fill="#FB7447"/>
<path d="M190.877 27.0584L191.025 27.2894H191.043C191.791 28.5312 192.272 29.9668 192.462 33.3946C192.665 37.0576 192.533 42.9303 192.073 53.1564C191.444 67.0784 188.389 79.4627 185.489 88.3689C184.04 92.821 182.63 96.4013 181.583 98.8669C181.06 100.1 180.627 101.054 180.326 101.698C180.319 101.715 180.311 101.731 180.304 101.747C180.296 101.731 180.289 101.715 180.281 101.698C179.98 101.054 179.547 100.101 179.023 98.8683C177.976 96.4037 176.565 92.8244 175.114 88.3731C172.213 79.4684 169.158 67.0841 168.535 53.1566L168.535 53.1565C168.075 42.9303 167.943 37.0576 168.146 33.3946C168.348 29.7525 168.878 28.3595 169.708 27.0584C170.518 25.7892 172.038 24.7696 173.955 24.0668C175.863 23.3675 178.11 23.003 180.293 23.003C182.476 23.003 184.722 23.3675 186.63 24.0668C188.547 24.7696 190.067 25.7892 190.877 27.0584Z" stroke="#FB7447"/>
<path d="M174.096 54.8389C174.096 54.8389 184.158 56.9651 192.401 55.8622C192.458 55.0663 192.504 54.2704 192.538 53.4745C189.991 54.5433 182.225 55.7826 174.096 54.8389Z" fill="#FB7447"/>
<path d="M177.871 46.7778C177.871 46.7778 186.137 47.8466 192.799 47.1871C192.822 46.6528 192.833 46.1297 192.856 45.6181C190.696 46.3003 184.238 47.4032 177.871 46.7778Z" fill="#FB7447"/>
<path d="M174.482 40.2629C174.482 40.2629 183.021 42.6164 192.981 41.252C193.004 40.3766 193.015 39.5579 193.027 38.7961C190.105 39.9559 184.579 41.0701 174.482 40.2629Z" fill="#FB7447"/>
<path d="M191.548 64.2077C191.639 63.5597 191.719 62.9116 191.799 62.2635C188.388 63.1162 185.568 63.6051 173.584 62.7297C173.584 62.7297 179.849 65.0377 191.548 64.2077Z" fill="#FB7447"/>
<path d="M179.53 68.8011C179.53 68.8011 184.488 70.2679 190.65 69.8813C190.73 69.4151 190.821 68.949 190.9 68.4828C188.649 69.0285 185.079 69.3583 179.53 68.8011Z" fill="#FB7447"/>
<path d="M175.801 71.5868L186.398 71.2571C186.398 71.2571 181.93 89.1078 166.046 79.7163C166.046 79.7163 168.82 71.8028 175.801 71.5868Z" fill="#FFD0C0"/>
<path d="M164.909 84.5828C164.909 84.5828 167.876 79.7733 166.751 72.8377C166.751 72.8377 165.477 71.4278 163.783 72.7012C163.783 72.7012 166.751 76.9422 164.067 84.4463L164.92 84.5828H164.909Z" fill="#FF9A79"/>
<path d="M156.086 84.1847C159.793 82.536 162.612 82.7066 164.522 82.7066C166.433 82.7066 169.252 82.5246 172.959 84.1847C176.665 85.8333 194.107 92.3255 194.107 111.472C194.107 128.277 180.202 141 164.522 141C148.843 141 134.938 128.277 134.938 111.472C134.938 92.3255 152.379 85.8333 156.086 84.1847Z" fill="#FB7447"/>
<path d="M168.65 88.6758C168.65 88.6758 183.942 89.449 189.366 111.131C189.366 111.131 189.366 87.7094 168.65 88.6758Z" fill="white"/>
<rect x="19.8286" y="8.45892" width="41.0686" height="38.7946" rx="3.5" fill="#FFF9F4" stroke="#FB7447"/>
<rect x="20.9658" y="98.2811" width="70.6303" height="16.0548" rx="3.5" fill="#FFF9F4" stroke="#FB7447"/>
<rect x="25.0137" y="101.192" width="10.2329" height="10.2329" rx="1" fill="#8D9AC9"/>
<path d="M20.4658 20.4658H12.2329C11.1283 20.4658 10.2329 19.5703 10.2329 18.4658V11.9384" stroke="#FB7447"/>
<path d="M20.4658 32.9727L12.2329 32.9727C11.1283 32.9727 10.2329 33.8681 10.2329 34.9727L10.2329 41.5001" stroke="#FB7447"/>
<path d="M19.3288 27.2877H4.27393C3.16936 27.2877 2.27393 26.3923 2.27393 25.2877V18.1918" stroke="#FB7447"/>
<path d="M12.0069 10.8014C12.0069 11.7811 11.2127 12.5754 10.233 12.5754C9.25322 12.5754 8.45898 11.7811 8.45898 10.8014C8.45898 9.82164 9.25322 9.0274 10.233 9.0274C11.2127 9.0274 12.0069 9.82164 12.0069 10.8014Z" stroke="#FB7447"/>
<path d="M12.0069 42.6371C12.0069 41.6574 11.2127 40.8631 10.233 40.8631C9.25322 40.8631 8.45898 41.6574 8.45898 42.6371C8.45898 43.6168 9.25322 44.4111 10.233 44.4111C11.2127 44.4111 12.0069 43.6168 12.0069 42.6371Z" stroke="#FB7447"/>
<path d="M4.04796 17.0549C4.04796 18.0346 3.25372 18.8288 2.27398 18.8288C1.29424 18.8288 0.5 18.0346 0.5 17.0549C0.5 16.0751 1.29424 15.2809 2.27398 15.2809C3.25372 15.2809 4.04796 16.0751 4.04796 17.0549Z" stroke="#FB7447"/>
<path d="M30.8195 19.4371H33.2137V32.3288H30.8195V19.4371ZM45.0618 29.3453H38.616L37.3452 32.3288H34.8774L40.6787 19.4371H43.036L48.8557 32.3288H46.351L45.0618 29.3453ZM44.2699 27.4668L41.8389 21.8313L39.4263 27.4668H44.2699Z" fill="#FB7447"/>
</svg>
