<svg width="191" height="141" viewBox="0 0 191 141" fill="none" xmlns="http://www.w3.org/2000/svg">
<rect x="9.5" y="23.5" width="70" height="73" rx="2.5" stroke="#0A2481"/>
<rect x="89" y="23" width="71" height="74" rx="3" fill="#FFDFD5"/>
<path d="M169 26C169 24.3431 170.343 23 172 23H191V97H172C170.343 97 169 95.6569 169 94V26Z" fill="#FFDFD5"/>
<rect x="9" y="110" width="71" height="16" rx="2" fill="#FB7447"/>
<rect x="89.5" y="110.5" width="70" height="15" rx="1.5" stroke="#FB7447"/>
<rect x="169.5" y="110.5" width="21" height="15" rx="1.5" stroke="#FB7447"/>
<path d="M131.503 47.7165C131.503 47.7165 131.98 42.7128 138.526 40.3329C138.526 40.3329 139.718 38.7825 136.738 36.1641C136.738 36.1641 131.259 39.4981 130.663 47.7165H131.498H131.503Z" fill="#FF9A79"/>
<path d="M120.712 34.5323C120.694 34.4305 120.68 34.3427 120.669 34.271C123.485 34.0636 125.557 34.4879 127.083 35.2322C128.648 35.9959 129.653 37.1037 130.3 38.2431C130.948 39.3849 131.237 40.5605 131.363 41.4534C131.426 41.8992 131.448 42.2729 131.455 42.5341C131.457 42.6352 131.458 42.7194 131.457 42.7843C129.087 43.4335 127.244 43.2277 125.809 42.5683C124.339 41.893 123.273 40.7309 122.503 39.467C121.733 38.203 121.266 36.8474 120.992 35.8043C120.855 35.2835 120.766 34.8425 120.712 34.5323Z" stroke="#FB7447" stroke-width="0.436954"/>
<path d="M118.314 47.8358C124.036 43.7158 130.669 47.0335 130.669 47.0335C130.669 47.0335 137.296 43.7158 143.024 47.8358C148.746 51.9559 147.944 59.7949 145.435 65.4166C142.926 71.0437 138.125 74.9415 135.882 74.9415C133.421 74.9415 132.983 73.2556 130.674 73.2556C128.366 73.2556 127.927 74.9415 125.467 74.9415C123.223 74.9415 118.422 71.0437 115.913 65.4166C113.404 59.7894 112.597 51.9505 118.324 47.8358H118.314Z" fill="#FB7447"/>
<path d="M138.228 48.0959C138.228 48.0959 150.556 52.5196 138.228 67.9969C138.228 67.9969 145.364 56.8131 138.228 48.0959Z" fill="white"/>
<path d="M113.555 64.2129H99V76.5948H113.555V64.2129Z" fill="#FFD0C0"/>
<path d="M113.555 64.213C113.555 64.9665 110.298 65.5737 106.278 65.5737C102.257 65.5737 99 64.9611 99 64.213C99 63.4649 102.257 62.8523 106.278 62.8523C110.298 62.8523 113.555 63.4649 113.555 64.213Z" fill="#FF9A79"/>
<path d="M99 77.5816C99 77.5816 103.378 80.4602 115.132 78.0478C127.2 75.5703 132.847 77.5816 132.847 77.5816V65.6767C127.401 61.7573 105.156 67.9916 99 64.316V77.587V77.5816Z" fill="#FFD0C0"/>
<path d="M111.057 67.9753C111.198 67.9753 111.317 67.8614 111.317 67.7151V65.2972C111.144 65.3081 110.97 65.3243 110.802 65.3352V67.7151C110.802 67.856 110.916 67.9753 111.062 67.9753H111.057Z" fill="#FF9A79"/>
<path d="M113.035 65.1671V69.1895C113.035 69.401 113.208 69.5744 113.419 69.5744C113.631 69.5744 113.804 69.401 113.804 69.1895V65.1074C113.544 65.1291 113.289 65.1508 113.029 65.1725L113.035 65.1671Z" fill="#FF9A79"/>
<path d="M106.7 67.9754C106.841 67.9754 106.96 67.8615 106.96 67.7151V65.5142C106.787 65.5142 106.613 65.5196 106.445 65.5196V67.7151C106.445 67.8561 106.559 67.9754 106.705 67.9754H106.7Z" fill="#FF9A79"/>
<path d="M108.813 67.9753C108.954 67.9753 109.073 67.8615 109.073 67.7151V65.4382C108.9 65.4491 108.727 65.4545 108.559 65.4653V67.7151C108.559 67.8561 108.672 67.9753 108.819 67.9753H108.813Z" fill="#FF9A79"/>
<path d="M126.815 67.4548C126.956 67.4548 127.075 67.341 127.075 67.1946V64.3431C126.907 64.3377 126.734 64.3323 126.561 64.3323V67.2001C126.561 67.341 126.674 67.4603 126.821 67.4603L126.815 67.4548Z" fill="#FF9A79"/>
<path d="M130.657 64.7713V68.4848C130.657 68.6962 130.831 68.8697 131.042 68.8697C131.253 68.8697 131.427 68.6962 131.427 68.4848V64.9881C131.183 64.9068 130.923 64.8309 130.652 64.7659L130.657 64.7713Z" fill="#FF9A79"/>
<path d="M129.059 67.4549C129.2 67.4549 129.319 67.3411 129.319 67.1947V64.5167C129.151 64.495 128.978 64.4787 128.804 64.457V67.1893C128.804 67.3302 128.918 67.4495 129.064 67.4495L129.059 67.4549Z" fill="#FF9A79"/>
<path d="M102.598 67.9753C102.739 67.9753 102.859 67.8615 102.859 67.7151V65.3732C102.68 65.3515 102.512 65.3298 102.344 65.3081V67.7151C102.344 67.856 102.458 67.9753 102.604 67.9753H102.598Z" fill="#FF9A79"/>
<path d="M124.442 64.3431V67.2001C124.442 67.341 124.556 67.4603 124.702 67.4603C124.848 67.4603 124.962 67.3464 124.962 67.2001V64.3323C124.794 64.3323 124.621 64.3431 124.447 64.3485L124.442 64.3431Z" fill="#FF9A79"/>
<path d="M100.485 67.9754C100.626 67.9754 100.745 67.8615 100.745 67.7151V64.9992C100.566 64.9504 100.393 64.907 100.23 64.8528V67.7206C100.23 67.8615 100.344 67.9808 100.49 67.9808L100.485 67.9754Z" fill="#FF9A79"/>
<path d="M115.793 67.9753C115.934 67.9753 116.053 67.8615 116.053 67.7151V64.9124C115.879 64.9286 115.711 64.9395 115.538 64.9557V67.7151C115.538 67.856 115.652 67.9753 115.798 67.9753H115.793Z" fill="#FF9A79"/>
<path d="M103.942 65.4653V69.1897C103.942 69.4011 104.115 69.5746 104.327 69.5746C104.538 69.5746 104.711 69.4011 104.711 69.1897V65.4979C104.451 65.487 104.191 65.4816 103.937 65.4653H103.942Z" fill="#FF9A79"/>
<path d="M122.334 69.0595C122.545 69.0595 122.719 68.886 122.719 68.6746V64.4136C122.464 64.4244 122.204 64.4407 121.944 64.4569V68.6746C121.944 68.886 122.117 69.0595 122.329 69.0595H122.334Z" fill="#FF9A79"/>
<path d="M117.907 67.9752C118.048 67.9752 118.167 67.8614 118.167 67.715V64.7334C117.994 64.7497 117.826 64.7605 117.652 64.7768V67.715C117.652 67.856 117.766 67.9752 117.912 67.9752H117.907Z" fill="#FF9A79"/>
<path d="M120.15 67.9753C120.291 67.9753 120.41 67.8615 120.41 67.7151V64.5546C120.236 64.5654 120.068 64.5817 119.895 64.5925V67.7151C119.895 67.856 120.009 67.9753 120.155 67.9753H120.15Z" fill="#FF9A79"/>
<circle cx="11.5" cy="11.5" r="2.5" fill="#FB7447"/>
<circle cx="18.5" cy="11.5" r="2.5" fill="#FB7447"/>
<circle cx="25.5" cy="11.5" r="2.5" fill="#FB7447"/>
<rect x="0.5" y="0.5" width="190" height="140" rx="6.5" stroke="#0A2481"/>
<g clip-path="url(#clip0_528_215)">
<path fill-rule="evenodd" clip-rule="evenodd" d="M45.9424 61.7411C41.8324 59.8001 37.5916 60.4262 33.2682 62.7638C36.1114 57.9982 36.0564 49.6984 38.0873 47.6461L38.0597 47.6322L39.9116 45.9764C40.5588 46.2408 40.9718 46.2338 41.7911 45.8999L43.8495 44.905C44.7169 45.4059 45.7771 45.0581 47.0095 43.9937L49.8527 44.592C50.9473 44.7868 51.4361 43.1936 50.7683 42.5466L49.178 41.6143C49.7701 41.3013 50.2038 40.7656 50.314 39.7846C50.0937 38.5463 48.9715 37.7045 46.5413 36.5705C45.7703 36.0626 44.7376 35.9722 43.8289 36.0139C40.3247 37.2244 40.4486 37.1966 37.2818 40.3969L32.8689 46.7626C27.6918 51.4307 23.6851 57.6782 21.3513 65.5883C20.7041 66.5762 20.952 67.8355 22.1086 68.9208C27.9603 73.415 30.6796 75.8987 41.7222 76.1283C43.8151 77.4988 46.1007 80.3164 49.0335 81.4295C60.3377 85.082 68.4131 70.5905 61.3566 62.7777C60.5924 62.0194 55.5874 56.3981 45.9424 61.748V61.7411Z" fill="#FFD0C0"/>
<path fill-rule="evenodd" clip-rule="evenodd" d="M56.5856 57.7755V64.9065H52.3173V57.7755H49.7632L52.1039 53.6709L54.4515 49.5662L56.7922 53.6709L59.1397 57.7755H56.5856Z" fill="#FB7447"/>
<g style="mix-blend-mode:multiply">
<path fill-rule="evenodd" clip-rule="evenodd" d="M56.5853 57.7755V64.9065H54.4512V49.5662L56.7919 53.6709L59.1395 57.7755H56.5853Z" fill="#FB7447" fill-opacity="0.2"/>
</g>
</g>
<defs>
<clipPath id="clip0_528_215">
<rect width="43" height="46" fill="white" transform="translate(21 36)"/>
</clipPath>
</defs>
</svg>
