<svg width="151" height="141" viewBox="0 0 151 141" fill="none" xmlns="http://www.w3.org/2000/svg">
<path d="M16.7622 9.65323C16.7622 13.8969 13.0137 25.6364 8.37607 25.6364C3.73841 25.6364 0 13.8969 0 9.65323C0 5.40958 3.74852 1.97205 8.37607 1.97205C13.0036 1.97205 16.7622 5.40958 16.7622 9.66249V9.65323Z" fill="#FB7447"/>
<path d="M8.38042 13.8042C10.8309 13.8042 12.8175 11.8176 12.8175 9.36712C12.8175 6.9166 10.8309 4.93005 8.38042 4.93005C5.9299 4.93005 3.94336 6.9166 3.94336 9.36712C3.94336 11.8176 5.9299 13.8042 8.38042 13.8042Z" fill="white"/>
<path d="M139.028 10.3251C139.028 14.3904 135.723 25.6363 131.633 25.6363C127.544 25.6363 124.238 14.3904 124.238 10.3251C124.238 6.2599 127.544 2.95801 131.633 2.95801C135.723 2.95801 139.028 6.25102 139.028 10.3251Z" fill="#FB7447"/>
<path d="M131.632 14.7903C134.083 14.7903 136.069 12.8037 136.069 10.3532C136.069 7.90268 134.083 5.91614 131.632 5.91614C129.182 5.91614 127.195 7.90268 127.195 10.3532C127.195 12.8037 129.182 14.7903 131.632 14.7903Z" fill="white"/>
<path d="M126.096 21.8963C123.219 19.3685 120.068 17.1154 116.852 15.0363C113.627 12.9481 110.264 11.0797 106.792 9.43107C103.329 7.78247 99.7556 6.35368 96.1 5.16302C92.1878 3.88993 88.1749 2.8275 84.0886 2.32376C79.8558 1.8017 75.5588 1.93908 71.3168 2.23217C67.4596 2.49778 63.6207 2.97404 59.8093 3.64264C52.1499 4.989 44.6646 7.14134 37.4449 10.0356C30.2894 12.9023 23.3263 16.4559 17.0137 20.898C16.2715 21.4201 15.5477 21.9604 14.8239 22.51C14.7323 22.5833 14.8514 22.7206 14.9431 22.6657C21.3931 18.5533 27.9714 14.7066 35.017 11.6842C42.0717 8.65256 49.4471 6.37199 56.9691 4.84246C60.7255 4.08227 64.5278 3.50526 68.3483 3.1389C72.3796 2.75423 76.4567 2.52525 80.5063 2.69927C84.7941 2.88245 88.972 3.77087 93.0857 4.96152C96.778 6.03311 100.397 7.34284 103.915 8.89069C110.832 11.9314 117.475 15.8423 123.348 20.6049C124.09 21.2003 124.823 21.8139 125.556 22.4184C125.922 22.7206 126.454 22.2077 126.087 21.8872L126.096 21.8963Z" fill="#293E8F"/>
<path d="M84.709 1.80793C84.5926 1.39241 84.3792 1.03487 84.0785 0.725648C83.9135 0.600026 83.7486 0.474403 83.5837 0.339118C83.1956 0.116863 82.7882 0.000903585 82.3419 0.000903585C82.0024 -0.00875968 81.6822 0.0588832 81.3912 0.213495C81.0808 0.310128 80.8188 0.484067 80.5957 0.725648C80.3532 0.947903 80.1882 1.20881 80.0815 1.51804C79.9263 1.80793 79.8584 2.12682 79.8681 2.46504C79.8972 2.68729 79.9263 2.89988 79.9554 3.12214C80.0718 3.53766 80.2852 3.8952 80.586 4.20442C80.7509 4.33004 80.9158 4.45567 81.0808 4.59095C81.4688 4.81321 81.8763 4.92917 82.3225 4.92917C82.6621 4.93883 82.9822 4.87119 83.2732 4.71658C83.5837 4.61994 83.8456 4.446 84.0688 4.20442C84.3113 3.98217 84.4762 3.72126 84.5829 3.41203C84.7381 3.12214 84.8061 2.80325 84.7964 2.46504C84.7672 2.24278 84.7381 2.03019 84.709 1.80793Z" fill="#EB5C4F"/>
<path d="M16.7617 105.504C16.7617 105.504 17.1242 101.676 20.8664 94.6573H27.6079L22.9323 105.504H16.7617Z" fill="#293E8F"/>
<path d="M13.8047 125.215C13.8047 125.215 14.9701 91.7982 40.707 81.945H85.852V83.4913C85.852 86.1254 84.7852 88.6247 82.9206 90.4857C80.554 92.8411 77.5778 97.1294 77.4433 103.899C77.2102 115.236 87.1608 118.571 92.2526 118.571H103.628C109.787 118.571 118.554 109.347 114.413 93.2187C110.262 77.0903 106.829 63.4163 106.829 63.4163L112.512 61.1328C112.512 61.1328 118.348 85.7119 119.504 88.4898C120.777 91.5645 124.802 91.9511 127.357 93.7671C129.984 95.637 131.14 98.8735 131.14 98.8735L126.022 100.645C126.022 100.645 127.492 125.224 103.628 125.224H13.8047V125.215Z" fill="#FFD0C0"/>
<path d="M40.9196 141C49.9049 141 57.1889 133.716 57.1889 124.731C57.1889 115.746 49.9049 108.462 40.9196 108.462C31.9344 108.462 24.6504 115.746 24.6504 124.731C24.6504 133.716 31.9344 141 40.9196 141Z" fill="#191216"/>
<path d="M40.9196 141C49.9049 141 57.1889 133.716 57.1889 124.731C57.1889 115.746 49.9049 108.462 40.9196 108.462C31.9344 108.462 24.6504 115.746 24.6504 124.731C24.6504 133.716 31.9344 141 40.9196 141Z" fill="#FB7447"/>
<path d="M41.4119 132.126C45.2238 132.126 48.314 129.036 48.314 125.224C48.314 121.412 45.2238 118.322 41.4119 118.322C37.5999 118.322 34.5098 121.412 34.5098 125.224C34.5098 129.036 37.5999 132.126 41.4119 132.126Z" fill="#F2F2F2"/>
<path d="M41.4122 131.14C44.6795 131.14 47.3283 128.491 47.3283 125.224C47.3283 121.956 44.6795 119.308 41.4122 119.308C38.1448 119.308 35.4961 121.956 35.4961 125.224C35.4961 128.491 38.1448 131.14 41.4122 131.14Z" fill="white"/>
<path d="M134.592 141C143.577 141 150.861 133.716 150.861 124.731C150.861 115.746 143.577 108.462 134.592 108.462C125.606 108.462 118.322 115.746 118.322 124.731C118.322 133.716 125.606 141 134.592 141Z" fill="#191216"/>
<path d="M134.592 141C143.577 141 150.861 133.716 150.861 124.731C150.861 115.746 143.577 108.462 134.592 108.462C125.606 108.462 118.322 115.746 118.322 124.731C118.322 133.716 125.606 141 134.592 141Z" fill="#FB7447"/>
<path d="M134.59 132.126C138.675 132.126 141.986 129.036 141.986 125.224C141.986 121.412 138.675 118.322 134.59 118.322C130.506 118.322 127.195 121.412 127.195 125.224C127.195 129.036 130.506 132.126 134.59 132.126Z" fill="#F2F2F2"/>
<path d="M134.591 131.14C137.586 131.14 140.014 128.491 140.014 125.224C140.014 121.956 137.586 119.308 134.591 119.308C131.596 119.308 129.168 121.956 129.168 125.224C129.168 128.491 131.596 131.14 134.591 131.14Z" fill="white"/>
<path d="M17.748 125.224H61.4961C61.4961 125.224 68.7249 122.549 70.6818 114.517C72.6387 106.493 65.4546 91.9264 46.4667 92.7162C27.4788 93.506 19.2224 111.68 17.748 125.224Z" fill="#FFD0C0"/>
<path d="M149.864 111.29C149.81 109.566 149.255 107.868 148.378 106.377C147.519 104.92 146.355 103.636 144.967 102.627C141.95 100.429 138.064 99.5068 134.277 99.593C132.531 99.6361 130.804 99.8947 129.12 100.343C127.437 100.8 125.799 101.446 124.268 102.265C122.737 103.084 121.305 104.075 120.015 105.222C119.371 105.791 118.762 106.403 118.198 107.04C117.911 107.359 117.643 107.687 117.383 108.032C117.124 108.368 116.9 108.747 116.631 109.066C116.022 109.782 115.566 110.661 115.127 111.488C114.671 112.35 114.268 113.23 113.927 114.135C113.238 115.945 112.764 117.833 112.531 119.746C112.477 120.186 112.441 120.625 112.414 121.074C112.396 121.324 112.396 121.599 112.54 121.806C112.71 122.039 113.032 122.117 113.328 122.16C115.736 122.522 118.207 121.918 120.427 120.944C122.647 119.979 124.68 118.651 126.793 117.479C128.574 116.496 130.419 115.626 132.326 114.893C134.241 114.152 136.211 113.548 138.217 113.117C140.213 112.686 142.254 112.411 144.296 112.342C145.245 112.307 146.202 112.342 147.151 112.393C147.536 112.419 147.921 112.437 148.306 112.462C148.691 112.488 149.533 112.755 149.784 112.342C149.918 112.118 149.864 111.73 149.864 111.471C149.864 111.411 149.864 111.35 149.864 111.29Z" fill="#FFD0C0"/>
<path d="M49.3016 80.8531H8.875V81.8392H49.3016V80.8531Z" fill="#FB7447"/>
<path d="M86.4975 73.951H47.6013C45.8173 73.951 44.3711 75.3762 44.3711 77.1343V78.6559C44.3711 80.414 45.8173 81.8392 47.6013 81.8392H86.4975C88.2815 81.8392 89.7277 80.414 89.7277 78.6559V77.1343C89.7277 75.3762 88.2815 73.951 86.4975 73.951Z" fill="#FB7447"/>
<path d="M120.898 42.8639C120.667 42.6056 120.437 42.374 120.074 42.4007C115.753 42.7125 111.627 44.5297 107.731 46.3201C106.005 47.1129 104.305 48.0304 102.844 49.2596C102.56 49.5002 102.578 49.6516 102.56 50.0168C102.534 50.6314 102.543 51.2461 102.578 51.8518C102.826 55.8959 104.216 59.8954 106.12 63.4763C106.678 64.6521 108.44 63.8415 109.36 63.4941C110.246 63.1645 111.37 62.8171 112.096 62.1936C112.468 61.8729 112.513 61.5166 112.495 61.098C112.495 61.0534 112.513 61.0089 112.513 60.9554C112.451 59.8063 112.274 58.39 113.106 57.4547C114.213 56.2255 116.143 56.3769 117.622 56.5016L119.339 56.6352C120.322 56.7154 121.048 55.8157 121.517 55.0586C122.12 54.0787 122.571 53.0009 122.863 51.8874C123.625 48.9924 123.368 45.3848 121.163 43.1579C121.075 43.0688 120.986 42.9619 120.898 42.8639Z" fill="#FFD0C0"/>
<path d="M98.3787 56.2028C97.7211 56.2028 97.0917 55.8512 96.7911 55.2536C96.3872 54.4361 96.763 53.4605 97.6366 53.0826L105.979 49.4525C106.852 49.0746 107.895 49.4261 108.299 50.2436C108.703 51.061 108.327 52.0366 107.453 52.4146L99.1115 56.0446C98.8766 56.1501 98.623 56.194 98.3787 56.194V56.2028Z" fill="#FB7447"/>
<path d="M120.817 53.9093C121.32 53.0947 121.698 52.1987 121.942 51.273C122.578 48.8663 122.364 45.8672 120.521 44.0158C120.447 43.9418 120.373 43.8529 120.299 43.7715C120.107 43.5567 119.915 43.3642 119.611 43.3864C119.234 43.416 118.857 43.4604 118.479 43.5123C116.385 48.5331 117.651 53.0947 118.479 55.1756C118.649 55.1904 118.82 55.2053 118.99 55.2127C119.811 55.2793 120.418 54.5314 120.81 53.9019L120.817 53.9093Z" fill="#FEF5EE"/>
<path d="M119.901 55.2094C118.914 50.7566 119.014 47.7263 120.294 43.3846C120.294 43.3846 120.287 43.3846 120.281 43.3846C119.587 43.4365 118.907 43.5625 118.227 43.718C117.133 47.7782 117.06 50.8529 117.933 55.0686C118.1 55.0835 118.267 55.0909 118.427 55.1057C118.86 55.1427 119.287 55.1798 119.72 55.2168C119.781 55.2168 119.841 55.2168 119.901 55.2094Z" fill="#FEF5EE"/>
<path d="M2 35.9965H41.3846C42.213 35.9965 42.8846 36.6681 42.8846 37.4965V78.8532C42.8846 79.6816 42.213 80.3532 41.3846 80.3532H2C1.17157 80.3532 0.5 79.6816 0.5 78.8532V37.4965C0.5 36.6681 1.17157 35.9965 2 35.9965Z" fill="#FEF5EE" stroke="#293E8F"/>
<path d="M117.678 42.4479C117.678 42.4479 120.05 41.0779 123.252 41.4898C123.252 41.4898 121.565 47.8899 116.477 52.2588C116.477 52.2588 115.772 48.9629 117.678 42.4575V42.4479Z" fill="#FB7447"/>
<path d="M35.4958 81.8391H34.5098V86.7691H35.4958V81.8391Z" fill="#FB7447"/>
<path d="M26.6215 95.6432H25.6244L15.7754 81.8391H16.7725L26.6215 95.6432Z" fill="#FB7447"/>
</svg>
