<svg width="220" height="73" viewBox="0 0 220 73" fill="none" xmlns="http://www.w3.org/2000/svg">
<g clip-path="url(#clip0_439_156)">
<path d="M18.0311 58.124C12.6081 58.124 8.24921 56.5264 4.95441 53.3214C1.65961 50.1312 0.00976562 45.9105 0.00976562 40.6641C0.00976562 35.4178 1.65961 31.1971 4.95441 28.0019C8.24921 24.7969 12.613 23.1994 18.0311 23.1994C22.3363 23.1994 25.9582 24.2693 28.9162 26.429C31.8742 28.5739 33.7193 31.4239 34.4368 34.9592C34.5735 35.6988 34.2806 36.0637 33.5435 36.0637H27.0955C26.539 36.0637 26.1925 35.7777 26.0363 35.1959C25.5286 33.7216 24.5573 32.5481 23.1124 31.6605C21.6676 30.7582 19.9738 30.3144 18.0311 30.3144C15.0926 30.3144 12.735 31.2612 10.9534 33.1546C9.16687 35.048 8.2785 37.5528 8.2785 40.6592C8.2785 43.7656 9.17176 46.2704 10.9534 48.1638C12.7399 50.0572 15.0975 51.0039 18.0311 51.0039C19.9738 51.0039 21.6676 50.5602 23.1124 49.6726C24.5573 48.7703 25.5286 47.5968 26.0363 46.1225C26.2217 45.5209 26.5683 45.23 27.0955 45.2547H33.5435C34.2757 45.2547 34.5686 45.6047 34.4368 46.3246C33.7144 49.8847 31.8742 52.7445 28.9162 54.8894C25.9582 57.0441 22.3363 58.119 18.0311 58.119V58.124ZM80.1979 56.0481C80.2419 56.6497 79.9831 57.0639 79.4072 57.2907C77.7378 57.838 76.1905 58.124 74.7749 58.124C70.8895 58.124 68.2829 56.7088 66.9406 53.8835C63.7337 56.7138 60.0045 58.124 55.7481 58.124C50.5105 58.124 46.1956 56.4919 42.8275 53.2277C39.4595 49.9537 37.7902 45.7675 37.7902 40.6592C37.7902 35.5509 39.4595 31.3647 42.8275 28.0907C46.1907 24.8265 50.5057 23.1944 55.7481 23.1944C59.3748 23.1944 62.5573 24.2003 65.3103 26.2071V25.2752C65.3103 24.58 65.6373 24.2397 66.3061 24.2397H72.5589C73.2325 24.2397 73.5888 24.5849 73.5888 25.2752V48.2723C73.5888 49.0464 73.7889 49.6677 74.2087 50.1213C74.6285 50.575 75.2045 50.8018 75.922 50.8018C76.6395 50.8018 77.4937 50.6982 78.4407 50.5059C79.1729 50.3679 79.578 50.6539 79.6708 51.3392L80.1882 56.0481H80.1979ZM55.8164 51.2702C58.6133 51.2702 60.8977 50.2791 62.6696 48.292C64.4317 46.3148 65.3103 43.7705 65.3103 40.6592C65.3103 37.5479 64.4268 35.0036 62.6696 33.0264C60.8977 31.0442 58.6133 30.0482 55.8164 30.0482C53.0195 30.0482 50.6326 31.0393 48.8021 33.0264C46.9717 34.9987 46.0589 37.5528 46.0589 40.6592C46.0589 43.7656 46.9766 46.3148 48.8021 48.292C50.6326 50.2742 52.9707 51.2702 55.8164 51.2702ZM98.0045 58.124C93.4015 58.124 89.6723 57.1674 86.8461 55.2493C84.0199 53.3313 82.3749 50.6637 81.8868 47.227C81.7941 46.4874 82.1211 46.1225 82.8826 46.1225L88.574 46.1915C89.1305 46.1915 89.4917 46.4874 89.6577 47.0889C90.6534 50.146 93.4259 51.6597 98.0045 51.6597C99.9472 51.6597 101.529 51.3294 102.749 50.644C103.979 49.9586 104.589 49.076 104.589 47.9863C104.589 46.6698 103.842 45.7083 102.354 45.0772C100.86 44.4608 99.0686 44.0072 96.9599 43.7311C94.861 43.4451 92.7572 43.0802 90.6583 42.6266C88.5692 42.1729 86.7729 41.2016 85.2744 39.7174C83.771 38.2382 83.0241 36.2018 83.0241 33.6131C83.0241 30.5215 84.3323 28.0118 86.9535 26.0888C89.5844 24.1609 93.0354 23.1895 97.3407 23.1895C101.319 23.1895 104.658 24.082 107.367 25.8718C110.076 27.6518 111.657 30.0038 112.096 32.9228C112.189 33.6526 111.833 34.0174 111.067 34.0174H105.375C104.78 34.0174 104.428 33.8104 104.316 33.3912C103.92 32.1586 103.071 31.1773 101.778 30.4377C100.469 29.6833 99.0003 29.3086 97.3407 29.3086C95.4907 29.3086 94.0117 29.6241 92.889 30.2651C91.7712 30.9061 91.2196 31.7394 91.2196 32.7897C91.2196 33.9731 91.7615 34.9099 92.8207 35.5953C93.8945 36.2905 95.2027 36.7244 96.7598 36.897C98.3169 37.0844 100.011 37.3654 101.861 37.75C103.725 38.1396 105.419 38.5932 106.976 39.1159C108.533 39.6385 109.846 40.6099 110.896 42.025C111.955 43.4401 112.487 45.2399 112.487 47.4242C112.487 50.6144 111.154 53.1981 108.499 55.1704C105.844 57.1329 102.334 58.124 97.9947 58.124H97.9996H98.0045ZM141.95 36.6406C141.637 34.8803 140.891 33.411 139.69 32.2029C138.167 30.6744 136.146 29.9101 133.613 29.9101C131.079 29.9101 128.937 30.6645 127.15 32.1684C125.49 33.5589 124.48 35.3586 124.085 37.5725C129.044 39.0222 136.283 37.9571 141.945 36.6357L141.95 36.6406ZM133.896 58.124C128.517 58.124 124.163 56.5264 120.839 53.3214C117.529 50.1312 115.87 45.9105 115.87 40.6641C115.87 35.4178 117.485 31.1971 120.717 28.0019C123.948 24.7969 128.18 23.1994 133.432 23.1994C138.684 23.1994 142.648 24.7723 145.782 27.9329C148.188 30.3391 149.672 33.3321 150.238 36.9019H150.214C150.375 37.8092 150.399 38.6672 150.306 39.8407C150.204 40.3042 149.955 40.5852 149.55 40.6937V40.7036C142.638 42.878 134.701 44.7024 124.846 43.8543C124.461 43.8198 124.129 43.7458 123.855 43.7015C123.582 43.6571 123.377 43.6127 123.245 43.5634C123.758 43.7015 124.138 44.0368 124.378 44.5693C126.398 49.0316 128.927 51.4132 134.096 51.4132C137.034 51.4132 139.177 50.6144 140.544 49.007C140.939 48.6076 141.369 48.4005 141.833 48.4005H148.52C148.871 48.4005 149.14 48.5139 149.33 48.7456C149.521 48.9626 149.521 49.2486 149.345 49.5789C148.183 52.1824 146.206 54.2582 143.424 55.8114C140.647 57.3646 137.474 58.1388 133.896 58.1388V58.124ZM182.049 23.9044C182.635 24.077 182.893 24.5011 182.805 25.1322L181.98 30.2405C181.844 30.9357 181.439 31.2118 180.75 31.0836C179.496 30.8568 178.212 30.7385 176.889 30.7385C174 30.7385 171.637 31.6507 169.821 33.4652C168.006 35.2797 167.088 37.6761 167.088 40.6395V56.0383C167.088 56.7335 166.746 57.0737 166.073 57.0737H159.82C159.132 57.0737 158.805 56.7286 158.824 56.0383V33.051C158.824 31.3548 157.877 30.5067 155.978 30.5067C155.671 30.5067 155.031 30.5856 154.06 30.7336C153.25 30.8272 152.845 30.5511 152.845 29.9003V25.1223C152.845 24.4813 153.113 24.0573 153.67 23.8897C155.129 23.4459 156.501 23.2043 157.804 23.1846C161.904 23.1846 164.555 24.8364 165.746 28.135C168.728 24.861 172.477 23.2043 176.992 23.1846C178.871 23.2043 180.56 23.4508 182.063 23.8897V23.8995L182.049 23.9044ZM215.026 53.3214C211.707 56.5264 207.333 58.124 201.905 58.124C196.478 58.124 192.109 56.5264 188.785 53.3214C185.475 50.1312 183.816 45.9105 183.816 40.6641C183.816 35.4178 185.475 31.1971 188.785 28.0019C192.104 24.7969 196.482 23.1994 201.905 23.1994C207.328 23.1994 211.707 24.7969 215.026 28.0019C218.345 31.1921 220.005 35.4178 220.005 40.6641C220.005 45.9105 218.345 50.1312 215.026 53.3214ZM194.794 48.1342C196.6 50.003 198.972 50.9398 201.91 50.9398C204.849 50.9398 207.216 50.0079 209.027 48.1342C210.833 46.2655 211.736 43.7754 211.736 40.6592C211.736 37.5429 210.833 35.0578 209.027 33.1842C207.221 31.3154 204.849 30.3785 201.91 30.3785C198.972 30.3785 196.605 31.3105 194.794 33.1842C192.988 35.0529 192.085 37.5528 192.085 40.6592C192.085 43.7656 192.988 46.2605 194.794 48.1342ZM21.0135 5.29081C22.5072 5.29081 23.7079 5.76909 24.6207 6.72566C25.5384 7.68223 25.9972 8.94944 25.9972 10.5125V16.3259C25.9972 16.5576 25.8898 16.6759 25.6604 16.6759H23.5566C23.3321 16.6759 23.2198 16.5625 23.2247 16.3259V10.6703C23.2247 9.7778 22.9611 9.06284 22.4437 8.52046C21.9312 7.97808 21.2527 7.70688 20.4229 7.70688C19.7005 7.70688 19.1099 7.96328 18.6559 8.47608C18.202 8.99381 17.9774 9.6644 17.9774 10.5174V16.3308C17.9774 16.5625 17.8652 16.6809 17.6406 16.6809H15.5368C15.3123 16.6809 15.1951 16.5675 15.2 16.3308V10.6752C15.2 9.78274 14.9706 9.06778 14.5069 8.52539C14.0432 7.98301 13.4184 7.71181 12.6423 7.71181C11.8662 7.71181 11.1828 7.96821 10.6849 8.48101C10.187 8.99874 9.9381 9.66933 9.9381 10.5224V16.3357C9.9381 16.5675 9.82583 16.6858 9.59642 16.6858H7.49263C7.26321 16.6858 7.15094 16.5724 7.15582 16.3357V8.60921C7.15582 8.03724 6.83855 7.75619 6.19911 7.75619C6.09661 7.75619 5.88183 7.78084 5.55479 7.83015C5.28145 7.85974 5.14478 7.76605 5.14478 7.55403V5.9466C5.14478 5.72965 5.23752 5.59158 5.423 5.53242C5.82814 5.38449 6.29185 5.3056 6.80926 5.29574C8.06861 5.29574 8.9277 5.76416 9.38165 6.70101C10.3384 5.75923 11.6221 5.29574 13.2329 5.29574C14.8437 5.29574 15.981 5.85785 16.8792 6.98206C17.8603 5.85785 19.2416 5.29574 20.9989 5.29574V5.28588L21.0135 5.29081ZM33.5338 17.031C31.7277 17.031 30.2634 16.4935 29.1456 15.4186C28.0327 14.3437 27.4762 12.9286 27.4762 11.1633C27.4762 9.39814 28.0229 7.97808 29.1065 6.9081C30.195 5.83319 31.6155 5.29574 33.3776 5.29574C35.1397 5.29574 36.4722 5.82333 37.5266 6.88838C38.5858 7.94849 39.1081 9.3439 39.1081 11.0746C39.1081 11.2965 39.0934 11.5973 39.0642 11.9966C39.0202 12.1988 38.8884 12.3024 38.6737 12.3024H30.2682C30.483 13.0716 30.8833 13.6682 31.4739 14.1169C32.0645 14.5606 32.7674 14.7825 33.5923 14.7825C34.5783 14.7825 35.3008 14.5163 35.7547 13.9739C35.8914 13.8358 36.0329 13.7717 36.1891 13.7717H38.4394C38.5565 13.7717 38.6493 13.8112 38.7127 13.8851C38.7762 13.9542 38.7762 14.0528 38.7127 14.1613C38.3173 15.034 37.6584 15.7292 36.7212 16.2568C35.7889 16.7746 34.7199 17.0359 33.5191 17.0359H33.5289L33.5338 17.031ZM30.2097 10.3103H36.2916C36.2623 9.49675 35.989 8.8311 35.4814 8.3183C34.9688 7.80057 34.2904 7.5491 33.441 7.5491C32.5917 7.5491 31.8693 7.80057 31.2689 8.30844C30.6685 8.81631 30.3171 9.48196 30.2097 10.3153V10.3103ZM42.2467 3.21989C41.7586 3.21989 41.3485 3.0621 41.0166 2.74653C40.6847 2.43589 40.5236 2.05623 40.5236 1.60753C40.5236 1.15883 40.6896 0.784088 41.0264 0.463588C41.3632 0.148019 41.7683 -0.00976562 42.2467 -0.00976562C42.725 -0.00976562 43.1204 0.148019 43.4621 0.463588C43.8087 0.779157 43.9746 1.15883 43.9746 1.60753C43.9746 2.05623 43.8038 2.43096 43.4621 2.74653C43.1155 3.0621 42.7104 3.21989 42.2467 3.21989ZM39.1764 22.3167C38.9617 22.3167 38.8396 22.2083 38.8152 21.9913L38.5467 20.3395C38.5077 20.1226 38.6004 19.9993 38.8347 19.9697C39.606 19.9007 40.138 19.6936 40.426 19.3681C40.7189 19.0378 40.8604 18.4806 40.8604 17.6966V5.99098C40.8604 5.7543 40.9727 5.64089 41.207 5.64089H43.3059C43.5353 5.64089 43.6476 5.7543 43.6427 5.99098V17.3465C43.6427 20.66 42.1539 22.3217 39.1813 22.3217L39.1764 22.3167ZM55.831 15.4137C54.7132 16.4886 53.2489 17.026 51.4233 17.026C49.5978 17.026 48.1285 16.4886 47.0107 15.4137C45.8978 14.3388 45.3414 12.9236 45.3414 11.1584C45.3414 9.39321 45.8978 7.97315 47.0107 6.90317C48.1285 5.82826 49.5978 5.29081 51.4233 5.29081C53.2489 5.29081 54.7181 5.82826 55.831 6.90317C56.9488 7.97808 57.5053 9.39321 57.5053 11.1584C57.5053 12.9236 56.9488 14.3437 55.831 15.4137ZM49.0315 13.6682C49.6368 14.2993 50.4373 14.61 51.4233 14.61C52.4093 14.61 53.2098 14.2944 53.8151 13.6682C54.4204 13.042 54.7279 12.2037 54.7279 11.1535C54.7279 10.1032 54.4252 9.26994 53.8151 8.6388C53.2098 8.00766 52.4093 7.69702 51.4233 7.69702C50.4373 7.69702 49.6368 8.00766 49.0315 8.6388C48.4263 9.26501 48.1188 10.1082 48.1188 11.1535C48.1188 12.1988 48.4263 13.037 49.0315 13.6682ZM68.1072 5.52255C68.3025 5.58172 68.3903 5.71978 68.361 5.93674L68.0877 7.65758C68.0438 7.88932 67.9022 7.98301 67.6728 7.93863C67.2481 7.86467 66.8186 7.82522 66.3744 7.82522C65.403 7.82522 64.6123 8.13586 64.0021 8.74234C63.392 9.34883 63.0845 10.1575 63.0845 11.1535V16.3308C63.0845 16.5625 62.9722 16.6809 62.7428 16.6809H60.639C60.4047 16.6809 60.2973 16.5675 60.3022 16.3308V8.60428C60.3022 8.03231 59.9849 7.75126 59.3455 7.75126C59.243 7.75126 59.0282 7.77591 58.7012 7.82522C58.4278 7.85481 58.2912 7.76112 58.2912 7.5491V5.94167C58.2912 5.72472 58.3839 5.58665 58.5645 5.52748C59.0526 5.37956 59.5163 5.30067 59.9508 5.29081C61.3321 5.29081 62.2205 5.84798 62.6159 6.95248C63.6165 5.84798 64.8759 5.29574 66.3939 5.29081C67.0236 5.30067 67.5947 5.37956 68.0975 5.52748L68.1072 5.52255Z" fill="#FFFEFA"/>
</g>
<defs>
<clipPath id="clip0_439_156">
<rect width="220" height="73" fill="white"/>
</clipPath>
</defs>
</svg>
