<svg width="200" height="47" viewBox="0 0 200 47" fill="none" xmlns="http://www.w3.org/2000/svg">
<path d="M126.398 29.3905H109.436C106.007 29.3905 103.226 26.6669 103.226 23.2981C103.226 19.9357 106.007 17.2041 109.436 17.2041H126.398C129.832 17.2041 132.616 19.9357 132.616 23.2981C132.616 26.6669 129.832 29.3905 126.398 29.3905Z" fill="#FFFEFA" fill-opacity="0.5"/>
<path d="M126.398 46.5949C113.626 46.5949 103.226 36.1455 103.226 23.2998C103.226 10.4549 113.626 0 126.398 0C129.832 0 132.616 2.79728 132.616 6.24214C132.616 9.69169 129.832 12.4788 126.398 12.4788C120.469 12.4788 115.649 17.3356 115.649 23.2998C115.649 29.2658 120.469 34.1134 126.398 34.1134C129.832 34.1134 132.616 36.9079 132.616 40.3528C132.616 43.7996 129.832 46.5949 126.398 46.5949Z" fill="#FFFEFA"/>
<path d="M6.21438 46.5949C5.56638 46.5949 4.91109 46.4922 4.26403 46.2757C1.00769 45.2002 -0.76052 41.6716 0.314858 38.4007L11.54 4.27725C12.6136 1.01185 16.1327 -0.766374 19.3908 0.318243C22.6443 1.39171 24.4189 4.92586 23.3399 8.19673L12.112 42.3167C11.2526 44.9352 8.81725 46.5949 6.21438 46.5949Z" fill="#FFFEFA"/>
<path d="M30.3716 46.5949C27.873 46.5949 25.5237 45.0552 24.5878 42.5542L11.8674 8.43811C10.6654 5.20935 12.2799 1.61342 15.4759 0.403173C18.6664 -0.813532 22.2376 0.817083 23.4377 4.03666L36.1617 38.1527C37.3656 41.3832 35.742 44.9846 32.5524 46.1921C31.8302 46.4664 31.0973 46.5949 30.3716 46.5949Z" fill="#FFFEFA" fill-opacity="0.5"/>
<path d="M80.0472 46.5949C76.6139 46.5949 73.835 43.8057 73.835 40.352C73.835 36.9068 76.6139 34.1119 80.0472 34.1119C85.9849 34.1119 90.813 29.2637 90.813 23.3063C90.813 17.3376 85.9849 12.4795 80.0472 12.4795C76.6139 12.4795 73.835 9.68735 73.835 6.23739C73.835 2.7976 76.6139 0 80.0472 0C92.831 0 103.226 10.4553 103.226 23.3063C103.226 36.1443 92.831 46.5949 80.0472 46.5949Z" fill="#FFFEFA" fill-opacity="0.5"/>
<path d="M43.0136 46.5949C39.4436 46.5949 36.5596 43.8053 36.5596 40.3512V6.2363C36.5596 2.79153 39.4436 0 43.0136 0C46.5751 0 49.4628 2.79153 49.4628 6.2363V40.3512C49.4628 43.8053 46.5751 46.5949 43.0136 46.5949Z" fill="#FFFEFA" fill-opacity="0.5"/>
<path d="M67.3847 46.5949C63.8232 46.5949 60.9316 43.8053 60.9316 40.3512V6.2363C60.9316 2.79153 63.8232 0 67.3847 0C70.9471 0 73.8348 2.79153 73.8348 6.2363V40.3512C73.8348 43.8053 70.9471 46.5949 67.3847 46.5949Z" fill="#FFFEFA" fill-opacity="0.5"/>
<path d="M67.482 46.5949C65.4926 46.5949 63.5322 45.679 62.2955 43.9605L37.7262 9.84466C35.7011 7.02968 36.3798 3.13546 39.24 1.146C42.1084 -0.843264 46.0703 -0.177961 48.1038 2.63897L72.6685 36.7538C74.6962 39.5661 74.0129 43.4613 71.1509 45.4505C70.0396 46.2277 68.7562 46.5949 67.482 46.5949Z" fill="#FFFEFA"/>
<path d="M145.589 21.5356L144.433 18.6997L143.28 21.5356H145.589ZM141.293 23.5205L143.731 17.7071C143.864 17.3959 144.097 17.2041 144.426 17.2041H144.482C144.81 17.2041 145.034 17.3959 145.167 17.7071L147.603 23.5205L147.669 23.7814C147.669 24.1128 147.437 24.3725 147.127 24.3725C146.855 24.3725 146.666 24.2036 146.564 23.9429L146.029 22.6301H142.841L142.286 23.9815C142.193 24.234 141.997 24.3725 141.752 24.3725C141.452 24.3725 141.218 24.1228 141.218 23.8016L141.293 23.5205Z" fill="#FFFEFA"/>
<path d="M152.871 21.903V21.8814C152.871 21.003 152.126 20.3991 151.245 20.3991C150.36 20.3991 149.669 20.9918 149.669 21.8814V21.903C149.669 22.7804 150.372 23.3853 151.245 23.3853C152.126 23.3853 152.871 22.7804 152.871 21.903ZM148.997 26.0449C148.776 25.9624 148.639 25.7874 148.639 25.5532C148.639 25.2761 148.881 25.0409 149.175 25.0409L149.406 25.0934C149.909 25.3669 150.468 25.5222 151.107 25.5222C152.241 25.5222 152.862 24.9511 152.862 23.8666V23.4462C152.399 24.0305 151.82 24.4408 150.906 24.4408C149.605 24.4408 148.387 23.4969 148.387 21.9124V21.8908C148.387 20.2961 149.614 19.355 150.906 19.355C151.842 19.355 152.419 19.7754 152.851 20.2773V20.0218C152.851 19.6818 153.134 19.4055 153.479 19.4055C153.837 19.4055 154.121 19.6818 154.121 20.0302V23.7646C154.121 24.6748 153.881 25.3491 153.417 25.7975C152.912 26.2892 152.137 26.5234 151.141 26.5234C150.36 26.5234 149.669 26.3603 148.997 26.0449Z" fill="#FFFEFA"/>
<path d="M159.411 21.523C159.331 20.8134 158.877 20.258 158.088 20.258C157.36 20.258 156.848 20.7758 156.74 21.523H159.411ZM158.227 24.3729C156.718 24.3729 155.556 23.3623 155.556 21.8764V21.859C155.556 20.484 156.611 19.355 158.099 19.355C159.753 19.355 160.574 20.6123 160.574 21.723C160.574 22.0332 160.318 22.2525 160.01 22.2525H156.748C156.877 23.0347 157.478 23.4716 158.248 23.4716C158.749 23.4716 159.145 23.3072 159.48 23.0539C159.568 22.9895 159.647 22.9529 159.784 22.9529C160.051 22.9529 160.258 23.1438 160.258 23.3982C160.258 23.5349 160.189 23.6533 160.101 23.7367C159.626 24.1278 159.035 24.3729 158.227 24.3729Z" fill="#FFFEFA"/>
<path d="M162.007 19.9656C162.007 19.6506 162.242 19.4014 162.553 19.4014C162.86 19.4014 163.106 19.6506 163.106 19.9656V20.2047C163.415 19.7536 163.86 19.355 164.603 19.355C165.683 19.355 166.308 20.094 166.308 21.2199V23.8188C166.308 24.133 166.072 24.3729 165.764 24.3729C165.455 24.3729 165.213 24.133 165.213 23.8188V21.5612C165.213 20.8034 164.839 20.3693 164.186 20.3693C163.551 20.3693 163.106 20.8222 163.106 21.5797V23.8188C163.106 24.133 162.86 24.3729 162.553 24.3729C162.254 24.3729 162.007 24.133 162.007 23.8188V19.9656Z" fill="#FFFEFA"/>
<path d="M167.741 21.8878V21.8686C167.741 20.5033 168.95 19.355 170.605 19.355C171.47 19.355 172.064 19.6019 172.53 19.9572C172.614 20.0204 172.727 20.1573 172.727 20.3399C172.727 20.621 172.467 20.8411 172.146 20.8411C171.99 20.8411 171.854 20.7853 171.772 20.7302C171.448 20.4934 171.096 20.3198 170.595 20.3198C169.678 20.3198 169.001 21.0145 169.001 21.8518V21.8686C169.001 22.7259 169.678 23.4071 170.646 23.4071C171.147 23.4071 171.531 23.2345 171.875 22.9801C171.948 22.9243 172.072 22.8626 172.218 22.8626C172.519 22.8626 172.759 23.0811 172.759 23.3446C172.759 23.4905 172.698 23.608 172.583 23.6898C172.093 24.1009 171.501 24.3729 170.584 24.3729C168.95 24.3729 167.741 23.2537 167.741 21.8878Z" fill="#FFFEFA"/>
<path d="M173.571 19.7058C173.571 19.3721 173.84 19.1082 174.193 19.1082C174.545 19.1082 174.826 19.3721 174.826 19.7058V23.7858C174.826 24.1195 174.545 24.3725 174.193 24.3725C173.849 24.3725 173.571 24.1195 173.571 23.7858V19.7058ZM173.477 17.7801C173.477 17.4304 173.788 17.2041 174.193 17.2041C174.599 17.2041 174.91 17.4304 174.91 17.7801V17.8391C174.91 18.1914 174.599 18.425 174.193 18.425C173.788 18.425 173.477 18.1914 173.477 17.8391V17.7801Z" fill="#FFFEFA"/>
<path d="M180.15 22.5264V22.1973C179.824 22.0845 179.394 22.0028 178.889 22.0028C178.07 22.0028 177.585 22.3059 177.585 22.8108V22.8302C177.585 23.299 178.057 23.5658 178.668 23.5658C179.508 23.5658 180.15 23.1417 180.15 22.5264ZM176.343 22.8756V22.8589C176.343 21.8092 177.281 21.2934 178.636 21.2934C179.258 21.2934 179.699 21.3775 180.13 21.4961V21.3775C180.13 20.6881 179.647 20.3196 178.753 20.3196C178.267 20.3196 177.869 20.3937 177.523 20.5123L177.323 20.541C177.026 20.541 176.787 20.3381 176.787 20.0813C176.787 19.8795 176.943 19.7052 177.131 19.6405C177.659 19.4662 178.196 19.355 178.92 19.355C179.751 19.355 180.372 19.5504 180.761 19.897C181.172 20.2455 181.361 20.7606 181.361 21.3969V23.7854C181.361 24.0885 181.088 24.3173 180.739 24.3173C180.372 24.3173 180.12 24.0976 180.12 23.8493V23.6659C179.739 24.0598 179.162 24.3729 178.31 24.3729C177.268 24.3729 176.343 23.8493 176.343 22.8756Z" fill="#FFFEFA"/>
<path d="M143.88 45.4471C145.376 45.4471 146.357 44.4334 146.357 43.0307V43.0091C146.357 41.6064 145.376 40.5711 143.88 40.5711H142.471V45.4471H143.88ZM141.218 40.0601C141.218 39.7029 141.494 39.4263 141.85 39.4263H143.88C146.12 39.4263 147.669 40.9735 147.669 42.9875V43.0091C147.669 45.0279 146.12 46.5947 143.88 46.5947H141.85C141.494 46.5947 141.218 46.3181 141.218 45.958V40.0601Z" fill="#FFFEFA"/>
<path d="M152.957 43.3384C152.878 42.5247 152.425 41.8932 151.637 41.8932C150.907 41.8932 150.395 42.4847 150.288 43.3384H152.957ZM151.774 46.5951C150.267 46.5951 149.104 45.4404 149.104 43.7425V43.7226C149.104 42.1514 150.158 40.8604 151.645 40.8604C153.302 40.8604 154.121 42.2981 154.121 43.5661C154.121 43.9206 153.864 44.1684 153.56 44.1684H150.295C150.425 45.064 151.025 45.5651 151.795 45.5651C152.297 45.5651 152.691 45.3784 153.027 45.0869C153.117 45.0134 153.195 44.9726 153.332 44.9726C153.599 44.9726 153.805 45.1897 153.805 45.4812C153.805 45.6376 153.736 45.7729 153.647 45.8653C153.174 46.314 152.583 46.5951 151.774 46.5951Z" fill="#FFFEFA"/>
<path d="M155.073 45.9353C154.94 45.8614 154.839 45.7029 154.839 45.4927C154.839 45.2122 155.053 44.9819 155.339 44.9819L155.606 45.0537C156.127 45.4102 156.67 45.5868 157.162 45.5868C157.696 45.5868 158.004 45.3573 158.004 44.9894V44.9694C158.004 44.5401 157.43 44.3941 156.792 44.1935C155.994 43.964 155.102 43.6268 155.102 42.5686V42.5475C155.102 41.4979 155.953 40.8604 157.029 40.8604C157.603 40.8604 158.208 41.0264 158.732 41.3097C158.904 41.4057 159.027 41.5718 159.027 41.7927C159.027 42.0865 158.804 42.3084 158.515 42.3084L158.27 42.242C157.829 42.0125 157.376 41.8666 156.998 41.8666C156.518 41.8666 156.241 42.0961 156.241 42.4111V42.4332C156.241 42.8413 156.823 43.0083 157.461 43.2178C158.247 43.4712 159.14 43.8381 159.14 44.8339V44.856C159.14 46.019 158.26 46.5951 157.132 46.5951C156.445 46.5951 155.697 46.3742 155.073 45.9353Z" fill="#FFFEFA"/>
<path d="M163.664 44.4841V44.1081C163.339 43.9791 162.907 43.885 162.402 43.885C161.58 43.885 161.097 44.2331 161.097 44.8101V44.8322C161.097 45.367 161.57 45.6727 162.184 45.6727C163.022 45.6727 163.664 45.188 163.664 44.4841ZM159.856 44.8841V44.8609C159.856 43.6646 160.794 43.077 162.15 43.077C162.77 43.077 163.212 43.1723 163.646 43.3068V43.1723C163.646 42.3835 163.16 41.9624 162.263 41.9624C161.782 41.9624 161.381 42.0479 161.035 42.1836L160.835 42.2154C160.54 42.2154 160.296 41.9846 160.296 41.6903C160.296 41.4595 160.456 41.2604 160.646 41.1864C161.171 40.9862 161.71 40.8604 162.434 40.8604C163.265 40.8604 163.886 41.0834 164.275 41.4796C164.684 41.8777 164.874 42.4664 164.874 43.1944V45.9238C164.874 46.2691 164.6 46.5334 164.254 46.5334C163.886 46.5334 163.635 46.2796 163.635 45.9958V45.7873C163.255 46.2381 162.676 46.5951 161.824 46.5951C160.783 46.5951 159.856 45.9958 159.856 44.8841Z" fill="#FFFEFA"/>
<path d="M166.309 41.5206C166.309 41.1589 166.546 40.872 166.856 40.872C167.166 40.872 167.413 41.1589 167.413 41.5206V42.0923C167.668 41.3923 168.143 40.8604 168.627 40.8604C168.975 40.8604 169.176 41.1267 169.176 41.4982C169.176 41.8386 168.982 42.0612 168.738 42.1165C167.954 42.2741 167.413 42.9752 167.413 44.3025V45.9583C167.413 46.3082 167.166 46.5951 166.856 46.5951C166.556 46.5951 166.309 46.319 166.309 45.9583V41.5206Z" fill="#FFFEFA"/>
<path d="M170.608 41.5206C170.608 41.1589 170.845 40.872 171.157 40.872C171.465 40.872 171.713 41.1589 171.713 41.5206V42.0923C171.97 41.3923 172.444 40.8604 172.927 40.8604C173.275 40.8604 173.476 41.1267 173.476 41.4982C173.476 41.8386 173.283 42.0612 173.038 42.1165C172.254 42.2741 171.713 42.9752 171.713 44.3025V45.9583C171.713 46.3082 171.465 46.5951 171.157 46.5951C170.855 46.5951 170.608 46.319 170.608 45.9583V41.5206Z" fill="#FFFEFA"/>
<path d="M178.696 43.7564V43.7344C178.696 42.7672 178.014 41.9639 177.046 41.9639C176.059 41.9639 175.424 42.7577 175.424 43.7145V43.7344C175.424 44.6931 176.106 45.4918 177.067 45.4918C178.065 45.4918 178.696 44.7027 178.696 43.7564ZM174.193 43.7564V43.7344C174.193 42.163 175.417 40.8604 177.067 40.8604C178.716 40.8604 179.928 42.1421 179.928 43.7145V43.7344C179.928 45.2953 178.708 46.5951 177.046 46.5951C175.406 46.5951 174.193 45.3154 174.193 43.7564Z" fill="#FFFEFA"/>
<path d="M180.645 39.35C180.645 38.9976 180.955 38.71 181.357 38.71C181.758 38.71 182.078 38.9976 182.078 39.35V45.9552C182.078 46.3182 181.758 46.5953 181.357 46.5953C180.965 46.5953 180.645 46.3182 180.645 45.9552V39.35Z" fill="#FFFEFA"/>
<path d="M183.513 39.35C183.513 38.9976 183.82 38.71 184.224 38.71C184.626 38.71 184.946 38.9976 184.946 39.35V45.9552C184.946 46.3182 184.626 46.5953 184.224 46.5953C183.834 46.5953 183.513 46.3182 183.513 45.9552V39.35Z" fill="#FFFEFA"/>
<path d="M190.883 43.7564V43.7344C190.883 42.7672 190.2 41.9639 189.233 41.9639C188.245 41.9639 187.612 42.7577 187.612 43.7145V43.7344C187.612 44.6931 188.293 45.4918 189.253 45.4918C190.251 45.4918 190.883 44.7027 190.883 43.7564ZM186.38 43.7564V43.7344C186.38 42.163 187.603 40.8604 189.253 40.8604C190.903 40.8604 192.115 42.1421 192.115 43.7145V43.7344C192.115 45.2953 190.891 46.5951 189.233 46.5951C187.593 46.5951 186.38 45.3154 186.38 43.7564Z" fill="#FFFEFA"/>
<path d="M141.218 28.594C141.218 28.2501 141.504 27.9663 141.873 27.9663H142.012C142.328 27.9663 142.509 28.1198 142.691 28.3315L146.39 32.9058V28.5625C146.39 28.2288 146.677 27.957 147.025 27.957C147.383 27.957 147.669 28.2288 147.669 28.5625V34.5015C147.669 34.8417 147.396 35.1152 147.036 35.1152H146.984C146.677 35.1152 146.484 34.9619 146.305 34.7417L142.498 30.0371V34.5218C142.498 34.8537 142.212 35.1255 141.865 35.1255C141.504 35.1255 141.218 34.8537 141.218 34.5218V28.594Z" fill="#FFFEFA"/>
<path d="M152.367 33.7312V33.3562C152.089 33.2274 151.719 33.1321 151.285 33.1321C150.58 33.1321 150.168 33.4784 150.168 34.0574V34.0793C150.168 34.6151 150.573 34.9189 151.096 34.9189C151.819 34.9189 152.367 34.4363 152.367 33.7312ZM149.104 34.1314V34.1111C149.104 32.9129 149.904 32.3261 151.069 32.3261C151.6 32.3261 151.98 32.4194 152.349 32.5531V32.4194C152.349 31.6308 151.934 31.2105 151.168 31.2105C150.752 31.2105 150.41 31.2952 150.113 31.4317L149.941 31.4645C149.69 31.4645 149.482 31.2318 149.482 30.9394C149.482 30.7065 149.617 30.5085 149.779 30.4344C150.231 30.2354 150.691 30.1074 151.313 30.1074C152.025 30.1074 152.557 30.3315 152.889 30.7307C153.241 31.126 153.405 31.7155 153.405 32.4397V35.1709C153.405 35.5182 153.17 35.7796 152.873 35.7796C152.557 35.7796 152.341 35.5268 152.341 35.2449V35.0344C152.016 35.4854 151.52 35.8422 150.789 35.8422C149.897 35.8422 149.104 35.2449 149.104 34.1314Z" fill="#FFFEFA"/>
<path d="M154.839 33.0024V32.9805C154.839 31.4206 156.047 30.1074 157.7 30.1074C158.566 30.1074 159.159 30.3904 159.629 30.7955C159.711 30.8689 159.827 31.0251 159.827 31.2309C159.827 31.5549 159.565 31.8056 159.242 31.8056C159.087 31.8056 158.95 31.7418 158.865 31.6807C158.545 31.4101 158.189 31.2128 157.691 31.2128C156.775 31.2128 156.099 32.0009 156.099 32.9616V32.9805C156.099 33.9593 156.775 34.7388 157.743 34.7388C158.243 34.7388 158.629 34.5424 158.972 34.2508C159.045 34.187 159.171 34.1155 159.315 34.1155C159.615 34.1155 159.857 34.3662 159.857 34.6673C159.857 34.8341 159.795 34.9694 159.678 35.0618C159.189 35.5315 158.595 35.8422 157.681 35.8422C156.047 35.8422 154.839 34.5635 154.839 33.0024Z" fill="#FFFEFA"/>
<path d="M160.665 30.4577C160.665 30.125 160.935 29.8611 161.29 29.8611C161.642 29.8611 161.923 30.125 161.923 30.4577V34.5424C161.923 34.8734 161.642 35.1255 161.29 35.1255C160.947 35.1255 160.665 34.8734 160.665 34.5424V30.4577ZM160.573 28.5338C160.573 28.1834 160.885 27.957 161.29 27.957C161.695 27.957 162.007 28.1834 162.007 28.5338V28.592C162.007 28.9444 161.695 29.1779 161.29 29.1779C160.885 29.1779 160.573 28.9444 160.573 28.592V28.5338Z" fill="#FFFEFA"/>
<path d="M167.942 33.0024V32.9805C167.942 32.0133 167.258 31.2128 166.292 31.2128C165.304 31.2128 164.672 32.0009 164.672 32.9616V32.9805C164.672 33.9392 165.354 34.7388 166.312 34.7388C167.311 34.7388 167.942 33.9498 167.942 33.0024ZM163.44 33.0024V32.9805C163.44 31.4101 164.661 30.1074 166.312 30.1074C167.963 30.1074 169.175 31.3891 169.175 32.9616V32.9805C169.175 34.5424 167.952 35.8422 166.292 35.8422C164.653 35.8422 163.44 34.5635 163.44 33.0024Z" fill="#FFFEFA"/>
<path d="M170.608 30.7156C170.608 30.4013 170.844 30.1521 171.152 30.1521C171.461 30.1521 171.707 30.4013 171.707 30.7156V30.9555C172.015 30.5036 172.458 30.1074 173.204 30.1074C174.283 30.1074 174.909 30.8456 174.909 31.9709V34.5737C174.909 34.8845 174.674 35.1253 174.365 35.1253C174.057 35.1253 173.811 34.8845 173.811 34.5737V32.3131C173.811 31.5545 173.44 31.1228 172.786 31.1228C172.151 31.1228 171.707 31.5747 171.707 32.33V34.5737C171.707 34.8845 171.461 35.1253 171.152 35.1253C170.852 35.1253 170.608 34.8845 170.608 34.5737V30.7156Z" fill="#FFFEFA"/>
<path d="M180.15 33.7312V33.3562C179.825 33.2274 179.393 33.1321 178.889 33.1321C178.066 33.1321 177.586 33.4784 177.586 34.0574V34.0793C177.586 34.6151 178.058 34.9189 178.666 34.9189C179.511 34.9189 180.15 34.4363 180.15 33.7312ZM176.343 34.1314V34.1111C176.343 32.9129 177.28 32.3261 178.635 32.3261C179.255 32.3261 179.699 32.4194 180.13 32.5531V32.4194C180.13 31.6308 179.647 31.2105 178.753 31.2105C178.268 31.2105 177.868 31.2952 177.521 31.4317L177.32 31.4645C177.028 31.4645 176.785 31.2318 176.785 30.9394C176.785 30.7065 176.943 30.5085 177.131 30.4344C177.659 30.2354 178.196 30.1074 178.921 30.1074C179.751 30.1074 180.372 30.3315 180.761 30.7307C181.171 31.126 181.361 31.7155 181.361 32.4397V35.1709C181.361 35.5182 181.087 35.7796 180.74 35.7796C180.372 35.7796 180.12 35.5268 180.12 35.2449V35.0344C179.741 35.4854 179.162 35.8422 178.31 35.8422C177.269 35.8422 176.343 35.2449 176.343 34.1314Z" fill="#FFFEFA"/>
<path d="M182.796 28.5389C182.796 28.2187 182.951 27.957 183.151 27.957C183.353 27.957 183.513 28.2187 183.513 28.5389V34.5463C183.513 34.8736 183.353 35.1255 183.151 35.1255C182.956 35.1255 182.796 34.8736 182.796 34.5463V28.5389Z" fill="#FFFEFA"/>
<path d="M189.096 32.9248V32.9471C189.096 34.0265 189.831 34.732 190.692 34.732C191.544 34.732 192.298 34.0157 192.298 32.9471V32.9248C192.298 31.8474 191.544 31.1397 190.692 31.1397C189.818 31.1397 189.096 31.8183 189.096 32.9248ZM193.548 35.1473C193.548 35.5055 193.267 35.7804 192.918 35.7804C192.563 35.7804 192.278 35.5055 192.278 35.1473V34.7968C191.869 35.3788 191.291 35.8423 190.388 35.8423C189.085 35.8423 187.813 34.7968 187.813 32.9471V32.9248C187.813 31.0768 189.065 30.0294 190.388 30.0294C191.302 30.0294 191.878 30.4834 192.278 31.012V28.592C192.278 28.2319 192.563 27.957 192.908 27.957C193.267 27.957 193.548 28.2319 193.548 28.592V35.1473Z" fill="#FFFEFA"/>
<path d="M198.837 32.5851C198.758 31.7741 198.303 31.1405 197.515 31.1405C196.785 31.1405 196.273 31.7313 196.163 32.5851H198.837ZM197.652 35.8422C196.144 35.8422 194.982 34.6864 194.982 32.9921V32.9711C194.982 31.3987 196.034 30.1074 197.525 30.1074C199.18 30.1074 200 31.5446 200 32.8129C200 33.1684 199.742 33.4189 199.436 33.4189H196.173C196.302 34.311 196.903 34.8122 197.673 34.8122C198.176 34.8122 198.569 34.6244 198.904 34.3347C198.993 34.2604 199.074 34.2193 199.211 34.2193C199.478 34.2193 199.683 34.4367 199.683 34.7283C199.683 34.8855 199.615 35.0198 199.525 35.1153C199.053 35.5612 198.461 35.8422 197.652 35.8422Z" fill="#FFFEFA"/>
</svg>
