<svg width="287" height="56" viewBox="0 0 287 56" fill="none" xmlns="http://www.w3.org/2000/svg">
<path d="M32.9007 2.70654H33.2732C37.1897 2.7711 41.1095 4.08213 44.1471 6.58169C44.8837 7.15443 45.5227 7.83643 46.1682 8.50684C46.2229 6.57341 46.0673 4.6317 46.2543 2.70654H54.3175C57.2441 2.83235 60.2833 2.82076 63.0643 3.88183C63.8108 4.15827 64.468 4.63832 64.9629 5.26073C64.8934 4.46286 64.8504 3.66333 64.7991 2.8638C72.3391 2.86049 79.8792 2.86214 87.4192 2.86214V11.0925C85.1928 11.0925 82.968 11.0908 80.7416 11.0925C80.7416 18.5994 80.7416 26.1064 80.7416 33.6133C74.6135 33.6183 68.4838 33.6166 62.3558 33.615C59.9737 30.4434 57.5834 27.28 55.2047 24.1067C55.2229 27.3015 55.208 30.4963 55.2113 33.6911C52.1986 33.6928 49.1843 33.6928 46.1715 33.6911C46.1666 31.91 46.1765 30.1289 46.1666 28.3477C42.9602 32.006 38.1547 34.0983 33.3079 34.1579H32.9222C28.6283 34.1 24.336 32.5026 21.1909 29.5495C18.1848 26.79 16.3324 22.8156 16.2397 18.7269V18.2518C16.2977 14.1234 18.1566 10.1009 21.1909 7.31666C24.3294 4.3685 28.6134 2.7711 32.9007 2.70654ZM27.847 12.0807C28.2542 12.3158 28.6779 12.5227 29.11 12.7064C29.6844 12.0691 30.2936 11.4649 30.8415 10.8045C29.7357 10.8773 28.764 11.5096 27.847 12.0807ZM34.9434 10.7846C35.4566 11.412 36.031 11.9864 36.5722 12.5889C36.991 12.4548 37.4082 12.3158 37.822 12.1684C36.948 11.5477 35.9896 11.0395 34.9434 10.7846ZM29.6662 12.8703C30.0734 12.9332 30.4823 12.9961 30.8895 13.0607C31.3298 12.3754 31.8032 11.7116 32.3048 11.0676C32.0118 11.0379 31.7188 11.0081 31.4258 10.9766C30.8382 11.6073 30.2273 12.2148 29.6662 12.8703ZM33.4668 11.066C33.9502 11.6834 34.4071 12.3207 34.8242 12.9845C35.2298 12.9001 35.6353 12.8124 36.0409 12.7263C35.493 12.1387 34.9417 11.5527 34.3905 10.9683C34.0826 10.9998 33.7747 11.0329 33.4668 11.066ZM55.4464 11.0163C55.4464 13.0557 55.4447 15.0951 55.4464 17.1345C56.9428 17.0898 58.5154 16.9375 59.8215 16.1446C60.3561 15.8334 60.765 15.2639 60.7799 14.6332C60.8147 13.5523 60.4703 12.3389 59.5003 11.7397C58.2919 11.0031 56.8121 11.0312 55.4464 11.0163ZM69.6657 11.0147C69.9124 13.7725 69.5035 16.6726 68.0054 19.0447C67.0834 20.5858 65.7145 21.8522 64.0906 22.6236C66.4925 25.7157 68.9043 28.7996 71.3111 31.8868C71.3095 24.9294 71.3111 17.9721 71.3111 11.0147C70.7616 11.013 70.2137 11.013 69.6657 11.0147ZM33.0265 11.3093C33.0249 11.9268 33.0249 12.5426 33.0282 13.16C33.4486 13.1285 33.8707 13.0971 34.2912 13.064C33.8724 12.478 33.4486 11.8937 33.0265 11.3093ZM31.4357 13.1136C31.8016 13.1302 32.1674 13.1451 32.5349 13.16C32.5365 12.6336 32.5365 12.1089 32.5249 11.5841C32.1641 12.094 31.7999 12.6055 31.4357 13.1136ZM25.7728 14.3568C26.3704 14.5836 26.9581 14.8352 27.5457 15.0868C27.8966 14.3932 28.3204 13.7394 28.7839 13.1153C28.3171 12.91 27.8652 12.6733 27.448 12.3836C26.8091 12.9663 26.1817 13.5854 25.7728 14.3568ZM36.905 13.0077C37.4065 13.6914 37.8618 14.4098 38.2309 15.1745C38.8185 15.0074 39.4029 14.8269 39.9839 14.6432C39.5171 13.8552 38.9328 13.1501 38.2673 12.5227C37.8187 12.6982 37.3635 12.8587 36.905 13.0077ZM28.0373 15.249C28.6018 15.3864 29.1663 15.5238 29.7291 15.6645C29.9675 14.9295 30.2621 14.2144 30.6163 13.5275C30.176 13.4464 29.7357 13.3619 29.2954 13.2775C28.817 13.895 28.3866 14.5488 28.0373 15.249ZM35.0924 13.4414C35.4532 14.1499 35.7495 14.8865 35.9879 15.6447C36.5722 15.5288 37.1566 15.4129 37.7409 15.2954C37.3718 14.5339 36.905 13.8271 36.4001 13.1501C35.9631 13.2461 35.5277 13.3421 35.0924 13.4414ZM31.1543 13.5821C30.7719 14.2707 30.4607 14.9941 30.2158 15.7423C30.9888 15.8003 31.7618 15.8582 32.5332 15.9194C32.5349 15.1613 32.5365 14.4032 32.5316 13.645C32.073 13.6251 31.6129 13.602 31.1543 13.5821ZM33.0265 13.6583C33.0265 14.4147 33.0265 15.1696 33.0249 15.9261C33.8509 15.9079 34.6736 15.8334 35.4913 15.7241C35.2645 14.961 34.9484 14.2293 34.5726 13.5291C34.0578 13.5705 33.5413 13.6136 33.0265 13.6583ZM24.5611 18.376C25.3093 18.3743 26.0559 18.3743 26.8025 18.376C26.7793 17.396 27.0408 16.4508 27.352 15.5321C26.7329 15.2672 26.1122 15.0024 25.4898 14.7458C24.9071 15.8665 24.5893 17.1129 24.5611 18.376ZM38.4196 15.6496C38.7242 16.5286 38.8732 17.444 38.8682 18.3743C39.575 18.376 40.2802 18.376 40.987 18.3743C40.9589 17.2387 40.7007 16.1181 40.2272 15.0852C39.6247 15.2705 39.0221 15.4609 38.4196 15.6496ZM27.8304 15.6976C27.501 16.5551 27.3206 17.4556 27.309 18.3743C28.0158 18.376 28.7243 18.3743 29.4328 18.376C29.4245 17.6261 29.4841 16.8795 29.6149 16.1413C29.0206 15.9923 28.4247 15.8433 27.8304 15.6976ZM36.1005 16.1379C36.2263 16.8762 36.2826 17.6261 36.266 18.3743C36.9679 18.376 37.6697 18.3743 38.3733 18.376C38.36 17.487 38.2292 16.6081 37.9396 15.7655C37.3254 15.8896 36.713 16.0155 36.1005 16.1379ZM29.9244 18.3727C30.7951 18.3776 31.6658 18.376 32.5349 18.3743C32.5349 17.7204 32.5349 17.0666 32.5349 16.4144C31.7238 16.3498 30.9127 16.2836 30.1015 16.2191C29.9741 16.9292 29.9161 17.6509 29.9244 18.3727ZM33.0249 16.4309C33.0265 17.0782 33.0265 17.7271 33.0265 18.3743C33.9403 18.376 34.854 18.3743 35.7678 18.376C35.7893 17.6493 35.7429 16.9242 35.6122 16.2091C34.753 16.3233 33.8889 16.3945 33.0249 16.4309ZM24.5727 18.8643C24.6505 20.0081 24.9683 21.1271 25.5014 22.1419C26.18 21.8638 26.8571 21.584 27.5358 21.3059C27.2163 20.5196 26.9713 19.7069 26.8438 18.8659C26.0873 18.8676 25.3292 18.8676 24.5727 18.8643ZM28.0324 21.147C28.62 21.0113 29.2077 20.8739 29.7936 20.7298C29.6811 20.1091 29.5718 19.49 29.4659 18.8693C28.7574 18.8643 28.0489 18.8659 27.3404 18.8659C27.4795 19.6522 27.7195 20.4137 28.0324 21.147ZM29.9608 18.8676C30.0684 19.4668 30.1777 20.0661 30.2902 20.6653C31.0385 20.609 31.7883 20.5511 32.5365 20.4882C32.5349 19.9469 32.5349 19.4072 32.5332 18.8659C31.6758 18.8659 30.8183 18.8659 29.9608 18.8676ZM33.0265 20.4832C33.8078 20.5395 34.5875 20.5974 35.3672 20.6554C35.488 20.0594 35.6039 19.4635 35.7181 18.8659C34.8209 18.8659 33.9237 18.8659 33.0282 18.8659C33.0249 19.4056 33.0249 19.9436 33.0265 20.4832ZM35.877 20.7348C36.468 20.849 37.0573 20.9649 37.6482 21.0791C37.9545 20.3673 38.1961 19.6291 38.3368 18.8676C37.6333 18.8659 36.9315 18.8659 36.2279 18.8659C36.1088 19.4883 35.9929 20.1124 35.877 20.7348ZM38.1547 21.2033C38.8401 21.3821 39.5154 21.5989 40.1925 21.8075C40.6146 20.8755 40.8695 19.884 40.9705 18.8659C40.257 18.8659 39.5436 18.8659 38.8301 18.8659C38.696 19.6688 38.4626 20.4501 38.1547 21.2033ZM30.4177 21.1304C30.6842 21.9747 30.9656 22.8139 31.2421 23.6565C31.6725 23.6333 32.1045 23.6085 32.5349 23.5837C32.5349 22.7179 32.5332 21.8538 32.5365 20.9881C31.8297 21.0361 31.1229 21.0841 30.4177 21.1304ZM33.0265 23.5936C33.4817 23.635 33.937 23.6747 34.3922 23.7144C34.6752 22.857 34.9599 21.9995 35.2447 21.142C34.5064 21.0874 33.7681 21.0344 33.0298 20.9748C33.0232 21.8472 33.0265 22.7212 33.0265 23.5936ZM28.2294 21.5972C28.6564 22.4166 29.1365 23.2095 29.6546 23.976C30.0138 23.8932 30.373 23.8088 30.7339 23.7244C30.4624 22.8834 30.1876 22.0442 29.9145 21.2033C29.3533 21.334 28.7905 21.4648 28.2294 21.5972ZM34.8954 23.8005C35.238 23.8783 35.5807 23.9578 35.925 24.0356C36.4762 23.2344 36.9778 22.4001 37.4314 21.541C36.8686 21.4334 36.3057 21.3258 35.7413 21.2215C35.4599 22.0806 35.1751 22.9397 34.8954 23.8005ZM25.7712 22.5921C26.3555 23.4181 27.0392 24.1597 27.842 24.7788C28.2807 24.5653 28.721 24.3517 29.1613 24.1382C28.6448 23.3668 28.1648 22.5722 27.7427 21.7446C27.0822 22.0227 26.4085 22.2643 25.7712 22.5921ZM37.9429 21.6502C37.4893 22.5226 36.9828 23.3668 36.4299 24.1779C36.8785 24.3617 37.3254 24.5471 37.7724 24.7358C38.6646 24.0703 39.4062 23.2178 39.9707 22.2594C39.2986 22.0442 38.6249 21.8306 37.9429 21.6502ZM31.4192 24.1316C31.646 24.6795 31.8264 25.2506 32.121 25.7654C32.2237 25.7786 32.4273 25.8051 32.5283 25.8184C32.5382 25.234 32.5365 24.6513 32.5299 24.067C32.1591 24.0885 31.7883 24.11 31.4192 24.1316ZM33.0249 24.0918C33.0265 24.6629 33.0249 25.2324 33.0282 25.8035C33.1474 25.7968 33.389 25.7869 33.5082 25.7819C33.7962 25.2787 33.9717 24.7225 34.1952 24.1912C33.8045 24.1564 33.4155 24.1233 33.0249 24.0918ZM29.9492 24.4064C30.3432 24.8996 30.6875 25.436 31.1312 25.8846C31.2454 25.8846 31.4755 25.8846 31.5897 25.8846C31.3695 25.3168 31.1328 24.7573 30.9127 24.1895C30.5915 24.2607 30.2704 24.3335 29.9492 24.4064ZM34.0677 25.8779C34.1704 25.8763 34.3789 25.873 34.4816 25.8713C34.9202 25.4509 35.2414 24.9261 35.6304 24.4626C35.3258 24.3964 35.0212 24.3319 34.7166 24.2656C34.5014 24.8036 34.2746 25.3367 34.0677 25.8779ZM28.284 25.0933C29.0173 25.5138 29.7837 25.8763 30.6064 26.0865C30.2224 25.575 29.8201 25.0784 29.4477 24.557C29.0587 24.7358 28.6713 24.9129 28.284 25.0933ZM35.0063 26.0766C35.8141 25.8432 36.5871 25.5038 37.3056 25.0652C36.9182 24.9112 36.5292 24.7606 36.1419 24.6116C35.7661 25.1016 35.3721 25.58 35.0063 26.0766Z" fill="#FFFEFA"/>
<path d="M113.678 0V50.5237" stroke="#FFFEFA" stroke-width="0.902208"/>
<path d="M144.196 28.5898L144.899 32.0028C143.879 32.5306 141.627 33.0584 138.777 33.0584C131.247 33.0584 126.673 28.3435 126.673 21.1303C126.673 13.319 132.092 8.60405 139.34 8.60405C142.19 8.60405 144.231 9.20221 145.11 9.65963L144.16 13.1079C143.034 12.6153 141.486 12.193 139.516 12.193C134.695 12.193 131.212 15.219 131.212 20.9192C131.212 26.1267 134.273 29.4694 139.481 29.4694C141.24 29.4694 143.07 29.1176 144.196 28.5898ZM148.59 8.9911H152.918V32.7065H148.59V8.9911ZM171.133 18.6673V22.1859H162.196V29.1527H172.188V32.7065H157.868V8.9911H171.661V12.5449H162.196V18.6673H171.133Z" fill="white"/>
<path d="M189.196 15.2752L189.401 16.0639C189.036 16.2468 188.304 16.4297 187.367 16.4297C185.195 16.4297 183.56 15.058 183.56 12.5316C183.56 10.1195 185.195 8.48482 187.584 8.48482C188.544 8.48482 189.15 8.69058 189.413 8.82776L189.173 9.6394C188.796 9.4565 188.258 9.31932 187.618 9.31932C185.812 9.31932 184.612 10.4739 184.612 12.4973C184.612 14.3835 185.698 15.5952 187.572 15.5952C188.178 15.5952 188.796 15.4695 189.196 15.2752ZM194.938 13.7319H191.051C191.074 15.0923 191.943 15.6524 192.949 15.6524C193.669 15.6524 194.104 15.5267 194.481 15.3666L194.652 16.0868C194.298 16.2468 193.692 16.4297 192.812 16.4297C191.109 16.4297 190.091 15.3095 190.091 13.6404C190.091 11.9714 191.074 10.6568 192.686 10.6568C194.492 10.6568 194.973 12.2458 194.973 13.2632C194.973 13.469 194.95 13.629 194.938 13.7319ZM191.063 13.0117H194.001C194.012 12.3715 193.738 11.377 192.606 11.377C191.589 11.377 191.143 12.3144 191.063 13.0117ZM196.218 16.3154V12.2801C196.218 11.7085 196.207 11.2398 196.173 10.7826H197.064L197.121 11.6971H197.144C197.419 11.1712 198.059 10.6568 198.973 10.6568C199.739 10.6568 200.928 11.1141 200.928 13.0117V16.3154H199.922V13.126C199.922 12.2344 199.591 11.4913 198.642 11.4913C197.979 11.4913 197.464 11.96 197.293 12.5202C197.247 12.6459 197.224 12.8174 197.224 12.9888V16.3154H196.218ZM202.743 9.4565L203.726 9.19357V10.7826H205.167V11.5485H203.726V14.5321C203.726 15.218 203.921 15.6067 204.481 15.6067C204.744 15.6067 204.938 15.5724 205.064 15.5381L205.11 16.2926C204.915 16.3726 204.607 16.4297 204.218 16.4297C203.749 16.4297 203.372 16.2811 203.132 16.0068C202.846 15.7096 202.743 15.218 202.743 14.5664V11.5485H201.886V10.7826H202.743V9.4565ZM206.299 16.3154V12.5087C206.299 11.8571 206.288 11.297 206.253 10.7826H207.134L207.168 11.8686H207.214C207.465 11.1255 208.071 10.6568 208.745 10.6568C208.86 10.6568 208.94 10.6682 209.031 10.6911V11.6399C208.928 11.6171 208.825 11.6056 208.688 11.6056C207.979 11.6056 207.476 12.1429 207.339 12.8974C207.316 13.0346 207.294 13.1946 207.294 13.3661V16.3154H206.299ZM212.271 10.6568C213.86 10.6568 214.934 11.8114 214.934 13.5033C214.934 15.5495 213.517 16.4412 212.179 16.4412C210.682 16.4412 209.527 15.3437 209.527 13.5947C209.527 11.7428 210.739 10.6568 212.271 10.6568ZM212.248 11.4113C211.059 11.4113 210.545 12.5087 210.545 13.5604C210.545 14.7722 211.242 15.6867 212.225 15.6867C213.185 15.6867 213.905 14.7836 213.905 13.5376C213.905 12.6002 213.437 11.4113 212.248 11.4113ZM222.396 8.19903H223.402V14.8865C223.402 15.378 223.413 15.9382 223.448 16.3154H222.545L222.499 15.3552H222.476C222.167 15.9725 221.493 16.4412 220.59 16.4412C219.252 16.4412 218.224 15.3095 218.224 13.629C218.212 11.7885 219.355 10.6568 220.704 10.6568C221.55 10.6568 222.122 11.0569 222.373 11.5027H222.396V8.19903ZM222.396 13.9948V13.0346C222.396 12.9088 222.385 12.7374 222.35 12.6116C222.202 11.9714 221.653 11.4456 220.899 11.4456C219.858 11.4456 219.241 12.3601 219.241 13.5833C219.241 14.7036 219.79 15.6295 220.876 15.6295C221.55 15.6295 222.167 15.1837 222.35 14.4292C222.385 14.292 222.396 14.1549 222.396 13.9948ZM229.523 13.7319H225.636C225.659 15.0923 226.528 15.6524 227.534 15.6524C228.254 15.6524 228.689 15.5267 229.066 15.3666L229.237 16.0868C228.883 16.2468 228.277 16.4297 227.397 16.4297C225.694 16.4297 224.676 15.3095 224.676 13.6404C224.676 11.9714 225.659 10.6568 227.271 10.6568C229.077 10.6568 229.557 12.2458 229.557 13.2632C229.557 13.469 229.535 13.629 229.523 13.7319ZM225.648 13.0117H228.586C228.597 12.3715 228.323 11.377 227.191 11.377C226.174 11.377 225.728 12.3144 225.648 13.0117ZM233.26 8.61056H234.255V16.3154H233.26V8.61056ZM236.072 16.3154V12.2801C236.072 11.7085 236.061 11.2398 236.027 10.7826H236.918L236.976 11.6971H236.998C237.273 11.1712 237.913 10.6568 238.827 10.6568C239.593 10.6568 240.782 11.1141 240.782 13.0117V16.3154H239.776V13.126C239.776 12.2344 239.445 11.4913 238.496 11.4913C237.833 11.4913 237.318 11.96 237.147 12.5202C237.101 12.6459 237.078 12.8174 237.078 12.9888V16.3154H236.072ZM242.413 16.3154V12.2801C242.413 11.7085 242.402 11.2398 242.368 10.7826H243.259L243.316 11.6971H243.339C243.614 11.1712 244.254 10.6568 245.168 10.6568C245.934 10.6568 247.123 11.1141 247.123 13.0117V16.3154H246.117V13.126C246.117 12.2344 245.786 11.4913 244.837 11.4913C244.174 11.4913 243.659 11.96 243.488 12.5202C243.442 12.6459 243.419 12.8174 243.419 12.9888V16.3154H242.413ZM251.098 10.6568C252.687 10.6568 253.761 11.8114 253.761 13.5033C253.761 15.5495 252.344 16.4412 251.006 16.4412C249.509 16.4412 248.354 15.3437 248.354 13.5947C248.354 11.7428 249.566 10.6568 251.098 10.6568ZM251.075 11.4113C249.886 11.4113 249.372 12.5087 249.372 13.5604C249.372 14.7722 250.069 15.6867 251.052 15.6867C252.012 15.6867 252.732 14.7836 252.732 13.5376C252.732 12.6002 252.264 11.4113 251.075 11.4113ZM254.264 10.7826H255.339L256.425 13.8919C256.608 14.3949 256.756 14.8522 256.871 15.3095H256.905C257.031 14.8522 257.191 14.3949 257.374 13.8919L258.448 10.7826H259.5L257.328 16.3154H256.368L254.264 10.7826ZM264.387 16.3154H263.473L263.393 15.6181H263.358C263.05 16.0525 262.455 16.4412 261.667 16.4412C260.546 16.4412 259.975 15.6524 259.975 14.8522C259.975 13.5147 261.164 12.7831 263.301 12.7945V12.6802C263.301 12.2229 263.176 11.3999 262.044 11.3999C261.529 11.3999 260.992 11.5599 260.603 11.8114L260.375 11.1484C260.832 10.8511 261.495 10.6568 262.192 10.6568C263.884 10.6568 264.296 11.8114 264.296 12.9203V14.9894C264.296 15.4695 264.319 15.9382 264.387 16.3154ZM263.324 14.4521V13.4918C262.227 13.469 260.981 13.6633 260.981 14.7379C260.981 15.3895 261.415 15.6981 261.93 15.6981C262.65 15.6981 263.107 15.2409 263.267 14.7722C263.301 14.6693 263.324 14.555 263.324 14.4521ZM269.696 15.3552L269.868 16.1097C269.605 16.2468 269.022 16.4297 268.279 16.4297C266.61 16.4297 265.524 15.298 265.524 13.6062C265.524 11.9029 266.69 10.6682 268.496 10.6682C269.09 10.6682 269.616 10.8169 269.891 10.954L269.662 11.7314C269.422 11.5942 269.045 11.4685 268.496 11.4685C267.227 11.4685 266.541 12.4058 266.541 13.5604C266.541 14.8408 267.364 15.6295 268.462 15.6295C269.033 15.6295 269.411 15.4809 269.696 15.3552ZM272.054 16.3154H271.048V10.7826H272.054V16.3154ZM271.551 8.59913C271.928 8.59913 272.168 8.87349 272.168 9.22787C272.18 9.57081 271.928 9.84517 271.528 9.84517C271.174 9.84517 270.922 9.57081 270.922 9.22787C270.922 8.87349 271.185 8.59913 271.551 8.59913ZM276.071 10.6568C277.66 10.6568 278.734 11.8114 278.734 13.5033C278.734 15.5495 277.317 16.4412 275.979 16.4412C274.482 16.4412 273.327 15.3437 273.327 13.5947C273.327 11.7428 274.539 10.6568 276.071 10.6568ZM276.048 11.4113C274.859 11.4113 274.345 12.5087 274.345 13.5604C274.345 14.7722 275.042 15.6867 276.025 15.6867C276.985 15.6867 277.706 14.7836 277.706 13.5376C277.706 12.6002 277.237 11.4113 276.048 11.4113ZM276.425 8.39336H277.534L276.139 10.0281H275.419L276.425 8.39336ZM280.001 16.3154V12.2801C280.001 11.7085 279.99 11.2398 279.956 10.7826H280.847L280.904 11.6971H280.927C281.202 11.1712 281.842 10.6568 282.756 10.6568C283.522 10.6568 284.711 11.1141 284.711 13.0117V16.3154H283.705V13.126C283.705 12.2344 283.374 11.4913 282.425 11.4913C281.762 11.4913 281.247 11.96 281.076 12.5202C281.03 12.6459 281.007 12.8174 281.007 12.9888V16.3154H280.001ZM183.251 23.7826H184.349L185.56 27.052C185.686 27.4178 185.823 27.8522 185.915 28.1837H185.938C186.041 27.8522 186.155 27.4292 186.292 27.0291L187.39 23.7826H188.453L186.944 27.7264C186.224 29.6241 185.732 30.5958 185.046 31.1902C184.555 31.6246 184.063 31.7961 183.811 31.8418L183.56 30.9959C183.811 30.9158 184.143 30.7558 184.44 30.5043C184.715 30.2871 185.058 29.8984 185.286 29.384C185.332 29.2811 185.366 29.2011 185.366 29.144C185.366 29.0868 185.343 29.0068 185.298 28.881L183.251 23.7826ZM195.81 24.88V25.7031H192.815V28.4809H196.153V29.3154H191.821V21.6106H195.982V22.4451H192.815V24.88H195.81ZM197.413 29.3154V25.2801C197.413 24.7085 197.401 24.2398 197.367 23.7826H198.247L198.293 24.6742H198.327C198.636 24.1484 199.15 23.6568 200.065 23.6568C200.819 23.6568 201.391 24.1141 201.631 24.7657H201.654C201.825 24.457 202.043 24.217 202.271 24.0455C202.603 23.794 202.969 23.6568 203.494 23.6568C204.226 23.6568 205.312 24.1369 205.312 26.0574V29.3154H204.329V26.1832C204.329 25.12 203.94 24.4799 203.129 24.4799C202.557 24.4799 202.111 24.9029 201.94 25.3944C201.894 25.5316 201.86 25.7145 201.86 25.8974V29.3154H200.877V26.0003C200.877 25.12 200.488 24.4799 199.722 24.4799C199.093 24.4799 198.636 24.9829 198.476 25.4859C198.419 25.6345 198.396 25.8059 198.396 25.9774V29.3154H197.413ZM206.947 31.5789V25.5887C206.947 24.88 206.924 24.3084 206.901 23.7826H207.804L207.85 24.7314H207.872C208.284 24.0569 208.936 23.6568 209.839 23.6568C211.176 23.6568 212.182 24.7885 212.182 26.469C212.182 28.4581 210.97 29.4412 209.667 29.4412C208.936 29.4412 208.295 29.1211 207.964 28.5724H207.941V31.5789H206.947ZM207.941 26.1146V27.0634C207.941 27.212 207.964 27.3492 207.987 27.4749C208.17 28.1723 208.776 28.6524 209.496 28.6524C210.559 28.6524 211.176 27.7836 211.176 26.5147C211.176 25.4058 210.593 24.457 209.53 24.457C208.844 24.457 208.204 24.9486 208.01 25.7031C207.975 25.8288 207.941 25.9774 207.941 26.1146ZM213.455 29.3154V25.5087C213.455 24.8571 213.443 24.297 213.409 23.7826H214.289L214.324 24.8686H214.369C214.621 24.1255 215.227 23.6568 215.901 23.6568C216.016 23.6568 216.096 23.6682 216.187 23.6911V24.6399C216.084 24.6171 215.981 24.6056 215.844 24.6056C215.135 24.6056 214.632 25.1429 214.495 25.8974C214.472 26.0346 214.449 26.1946 214.449 26.3661V29.3154H213.455ZM221.53 26.7319H217.643C217.666 28.0923 218.535 28.6524 219.541 28.6524C220.261 28.6524 220.695 28.5267 221.073 28.3666L221.244 29.0868C220.89 29.2468 220.284 29.4297 219.404 29.4297C217.7 29.4297 216.683 28.3095 216.683 26.6404C216.683 24.9714 217.666 23.6568 219.278 23.6568C221.084 23.6568 221.564 25.2458 221.564 26.2632C221.564 26.469 221.541 26.629 221.53 26.7319ZM217.655 26.0117H220.593C220.604 25.3715 220.33 24.377 219.198 24.377C218.181 24.377 217.735 25.3144 217.655 26.0117ZM222.81 29.3154V25.2801C222.81 24.7085 222.799 24.2398 222.764 23.7826H223.656L223.713 24.6971H223.736C224.01 24.1712 224.651 23.6568 225.565 23.6568C226.331 23.6568 227.52 24.1141 227.52 26.0117V29.3154H226.514V26.126C226.514 25.2344 226.182 24.4913 225.234 24.4913C224.57 24.4913 224.056 24.96 223.885 25.5202C223.839 25.6459 223.816 25.8174 223.816 25.9888V29.3154H222.81ZM232.923 21.199H233.929V27.8865C233.929 28.378 233.941 28.9382 233.975 29.3154H233.072L233.026 28.3552H233.003C232.695 28.9725 232.02 29.4412 231.117 29.4412C229.78 29.4412 228.751 28.3095 228.751 26.629C228.739 24.7885 229.883 23.6568 231.232 23.6568C232.077 23.6568 232.649 24.0569 232.901 24.5027H232.923V21.199ZM232.923 26.9948V26.0346C232.923 25.9088 232.912 25.7374 232.878 25.6116C232.729 24.9714 232.18 24.4456 231.426 24.4456C230.386 24.4456 229.768 25.3601 229.768 26.5833C229.768 27.7036 230.317 28.6295 231.403 28.6295C232.077 28.6295 232.695 28.1837 232.878 27.4292C232.912 27.292 232.923 27.1549 232.923 26.9948ZM236.61 29.3154H235.604V23.7826H236.61V29.3154ZM236.107 21.5991C236.484 21.5991 236.724 21.8735 236.724 22.2279C236.735 22.5708 236.484 22.8452 236.084 22.8452C235.729 22.8452 235.478 22.5708 235.478 22.2279C235.478 21.8735 235.741 21.5991 236.107 21.5991ZM238.283 29.3154V25.2801C238.283 24.7085 238.271 24.2398 238.237 23.7826H239.117L239.163 24.6742H239.197C239.506 24.1484 240.02 23.6568 240.935 23.6568C241.689 23.6568 242.261 24.1141 242.501 24.7657H242.524C242.695 24.457 242.913 24.217 243.141 24.0455C243.473 23.794 243.839 23.6568 244.364 23.6568C245.096 23.6568 246.182 24.1369 246.182 26.0574V29.3154H245.199V26.1832C245.199 25.12 244.81 24.4799 243.999 24.4799C243.427 24.4799 242.981 24.9029 242.81 25.3944C242.764 25.5316 242.73 25.7145 242.73 25.8974V29.3154H241.747V26.0003C241.747 25.12 241.358 24.4799 240.592 24.4799C239.963 24.4799 239.506 24.9829 239.346 25.4859C239.289 25.6345 239.266 25.8059 239.266 25.9774V29.3154H238.283ZM248.823 29.3154H247.817V23.7826H248.823V29.3154ZM248.32 21.5991C248.697 21.5991 248.937 21.8735 248.937 22.2279C248.948 22.5708 248.697 22.8452 248.297 22.8452C247.942 22.8452 247.691 22.5708 247.691 22.2279C247.691 21.8735 247.954 21.5991 248.32 21.5991ZM254.943 26.7319H251.056C251.079 28.0923 251.948 28.6524 252.954 28.6524C253.674 28.6524 254.108 28.5267 254.485 28.3666L254.657 29.0868C254.303 29.2468 253.697 29.4297 252.816 29.4297C251.113 29.4297 250.096 28.3095 250.096 26.6404C250.096 24.9714 251.079 23.6568 252.691 23.6568C254.497 23.6568 254.977 25.2458 254.977 26.2632C254.977 26.469 254.954 26.629 254.943 26.7319ZM251.067 26.0117H254.005C254.017 25.3715 253.742 24.377 252.611 24.377C251.593 24.377 251.147 25.3144 251.067 26.0117ZM256.223 29.3154V25.2801C256.223 24.7085 256.211 24.2398 256.177 23.7826H257.069L257.126 24.6971H257.149C257.423 24.1712 258.063 23.6568 258.978 23.6568C259.744 23.6568 260.933 24.1141 260.933 26.0117V29.3154H259.927V26.126C259.927 25.2344 259.595 24.4913 258.646 24.4913C257.983 24.4913 257.469 24.96 257.297 25.5202C257.252 25.6459 257.229 25.8174 257.229 25.9888V29.3154H256.223ZM262.748 22.4565L263.731 22.1936V23.7826H265.171V24.5485H263.731V27.5321C263.731 28.218 263.925 28.6067 264.485 28.6067C264.748 28.6067 264.943 28.5724 265.068 28.5381L265.114 29.2926C264.92 29.3726 264.611 29.4297 264.222 29.4297C263.754 29.4297 263.376 29.2811 263.136 29.0068C262.851 28.7096 262.748 28.218 262.748 27.5664V24.5485H261.89V23.7826H262.748V22.4565ZM268.58 23.6568C270.169 23.6568 271.244 24.8114 271.244 26.5033C271.244 28.5495 269.826 29.4412 268.489 29.4412C266.991 29.4412 265.836 28.3437 265.836 26.5947C265.836 24.7428 267.048 23.6568 268.58 23.6568ZM268.557 24.4113C267.368 24.4113 266.854 25.5087 266.854 26.5604C266.854 27.7722 267.551 28.6867 268.534 28.6867C269.495 28.6867 270.215 27.7836 270.215 26.5376C270.215 25.6002 269.746 24.4113 268.557 24.4113ZM272.122 29.0525L272.373 28.2866C272.671 28.4809 273.196 28.6867 273.699 28.6867C274.431 28.6867 274.774 28.3209 274.774 27.8636C274.774 27.3835 274.488 27.1206 273.745 26.8462C272.751 26.4918 272.282 25.9431 272.282 25.2801C272.282 24.3884 273.002 23.6568 274.191 23.6568C274.751 23.6568 275.243 23.8169 275.551 23.9998L275.3 24.7314C275.083 24.5942 274.682 24.4113 274.168 24.4113C273.574 24.4113 273.242 24.7542 273.242 25.1658C273.242 25.623 273.574 25.8288 274.294 26.1032C275.254 26.469 275.746 26.9491 275.746 27.7722C275.746 28.7439 274.991 29.4297 273.677 29.4297C273.071 29.4297 272.51 29.2811 272.122 29.0525Z" fill="white"/>
<path d="M0.907369 41.2734V38.3245C0.907369 38.1367 0.787429 38.0324 0.54755 38.0116L0.320708 37.9881C0.263346 37.9777 0.234664 37.9438 0.234664 37.8864C0.234664 37.8134 0.271168 37.7769 0.344174 37.7769L1.22808 37.8082L2.00247 37.7769C2.08069 37.7769 2.1198 37.8082 2.1198 37.8708C2.1198 37.9438 2.08591 37.9829 2.01811 37.9881L1.88514 38.0116C1.67655 38.0481 1.57225 38.1524 1.57225 38.3245V41.2812C1.57225 41.7662 1.71826 42.1443 2.01029 42.4154C2.30232 42.6866 2.6856 42.8222 3.16015 42.8222C3.63991 42.8222 4.0258 42.684 4.31782 42.4076C4.61507 42.1312 4.76369 41.7558 4.76369 41.2812V38.3245C4.76369 38.1524 4.65939 38.0481 4.4508 38.0116L4.31782 37.9881C4.25003 37.9777 4.21614 37.9412 4.21614 37.8786C4.21614 37.816 4.25525 37.7847 4.33347 37.7847L4.9436 37.8082L5.70234 37.7847C5.77535 37.7847 5.81185 37.816 5.81185 37.8786C5.81185 37.9412 5.78317 37.9777 5.72581 37.9881L5.49897 38.0116C5.25909 38.0376 5.13915 38.1419 5.13915 38.3245V41.2734C5.13915 41.9148 4.94099 42.4259 4.54467 42.8065C4.15356 43.182 3.65033 43.3697 3.03499 43.3697C2.41965 43.3697 1.91121 43.1742 1.50967 42.7831C1.10814 42.392 0.907369 41.8887 0.907369 41.2734ZM12.9569 42.1182V38.3245C12.9569 38.1419 12.8396 38.0376 12.6049 38.0116L12.3781 37.9881C12.3207 37.9777 12.292 37.9412 12.292 37.8786C12.292 37.816 12.3285 37.7847 12.4015 37.7847L13.1603 37.8082L13.7704 37.7847C13.8486 37.7847 13.8877 37.816 13.8877 37.8786C13.8877 37.9412 13.8538 37.9777 13.786 37.9881L13.6531 38.0116C13.4445 38.0481 13.3402 38.1524 13.3402 38.3245V43.2759C13.3402 43.3384 13.3115 43.3697 13.2541 43.3697H13.1524C13.0221 43.3697 12.91 43.3072 12.8161 43.182L9.52297 38.9659C9.51254 38.9554 9.4969 38.9502 9.47604 38.9502C9.45518 38.9502 9.44475 38.9763 9.44475 39.0284V42.7674C9.44475 42.9395 9.54905 43.0438 9.75764 43.0803L9.89061 43.1038C9.95841 43.1142 9.9923 43.1507 9.9923 43.2133C9.9923 43.2759 9.95319 43.3072 9.87497 43.3072L9.26484 43.2837L8.50609 43.3072C8.43309 43.3072 8.39658 43.2759 8.39658 43.2133C8.39658 43.1507 8.42527 43.1142 8.48263 43.1038L8.70947 43.0803C8.94935 43.0542 9.06929 42.9499 9.06929 42.7674V38.3245C9.06929 38.1419 8.96499 38.0376 8.7564 38.0116L8.6156 37.9959C8.55303 37.9855 8.52174 37.949 8.52174 37.8864C8.52174 37.8186 8.56085 37.7847 8.63907 37.7847L9.26484 37.8082C9.41607 37.8134 9.5308 37.8629 9.60902 37.9568L12.8709 42.1417C12.8865 42.1573 12.9047 42.1651 12.9256 42.1651C12.9465 42.1651 12.9569 42.1495 12.9569 42.1182ZM16.7093 43.315C16.6363 43.315 16.5998 43.2837 16.5998 43.2211C16.5998 43.1533 16.6285 43.1142 16.6859 43.1038L16.8188 43.0881C17.0326 43.0621 17.1395 42.9552 17.1395 42.7674V38.3245C17.1395 38.1367 17.0196 38.0324 16.7797 38.0116L16.5529 37.9881C16.4955 37.9777 16.4668 37.9438 16.4668 37.8864C16.4668 37.8134 16.5033 37.7769 16.5763 37.7769L17.4603 37.8082L18.2346 37.7769C18.3129 37.7769 18.352 37.8082 18.352 37.8708C18.352 37.9438 18.3181 37.9829 18.2503 37.9881L18.1173 38.0116C17.9087 38.0481 17.8044 38.1524 17.8044 38.3245V42.7674C17.8044 42.8613 17.8383 42.9369 17.9061 42.9943C17.9739 43.0464 18.0573 43.0777 18.1564 43.0881L18.3833 43.1038C18.4458 43.1038 18.4771 43.1377 18.4771 43.2055C18.4771 43.2368 18.4641 43.2628 18.438 43.2837C18.4172 43.3046 18.3937 43.315 18.3676 43.315L17.4837 43.2837L16.7093 43.315ZM24.7222 37.8864C24.7222 37.8134 24.7613 37.7769 24.8395 37.7769L25.5201 37.8082L26.2319 37.7769C26.3049 37.7769 26.3414 37.8134 26.3414 37.8864C26.3414 37.9542 26.3127 37.9881 26.2553 37.9881L26.1067 38.0037C25.8721 38.0298 25.7208 38.1367 25.653 38.3245L23.721 43.2759C23.7001 43.3384 23.6401 43.3697 23.5411 43.3697C23.4472 43.3697 23.3872 43.3384 23.3611 43.2759L21.4369 38.3245C21.3587 38.1263 21.2101 38.0194 20.991 38.0037L20.8268 37.9881C20.8059 37.9881 20.7877 37.9777 20.772 37.9568C20.7564 37.936 20.7485 37.9151 20.7485 37.8942C20.7485 37.816 20.785 37.7769 20.8581 37.7769L21.6794 37.8082L22.5476 37.7769C22.6206 37.7769 22.6571 37.8082 22.6571 37.8708C22.6571 37.9438 22.6259 37.9829 22.5633 37.9881L22.3834 38.0037C22.2947 38.009 22.2295 38.0455 22.1878 38.1133C22.1513 38.181 22.1461 38.2514 22.1722 38.3245L23.674 42.4233L25.215 38.3245C25.2463 38.2462 25.2411 38.1758 25.1993 38.1133C25.1628 38.0455 25.0951 38.009 24.996 38.0037L24.8239 37.9881C24.7561 37.9777 24.7222 37.9438 24.7222 37.8864ZM32.539 43.2837H29.6057L28.7218 43.315C28.6488 43.315 28.6122 43.2811 28.6122 43.2133C28.6122 43.1403 28.6409 43.1038 28.6983 43.1038L28.9251 43.0881C29.0294 43.0777 29.1155 43.0464 29.1833 42.9943C29.2511 42.9369 29.285 42.8613 29.285 42.7674V38.3245C29.285 38.1367 29.165 38.0324 28.9251 38.0116L28.6983 37.9881C28.6409 37.9881 28.6122 37.9542 28.6122 37.8864C28.6122 37.8134 28.6488 37.7769 28.7218 37.7769L29.6057 37.8082H32.3825C32.4816 37.8082 32.5624 37.8395 32.625 37.9021C32.6876 37.9594 32.7241 38.0324 32.7345 38.1211L32.844 38.8407C32.8545 38.9346 32.8153 38.9815 32.7267 38.9815C32.6433 38.9815 32.5885 38.9398 32.5624 38.8564C32.4842 38.606 32.3669 38.4287 32.2104 38.3245C32.054 38.2202 31.8376 38.168 31.5612 38.168H30.3331C30.2184 38.168 30.1245 38.2019 30.0515 38.2697C29.9837 38.3323 29.9498 38.4209 29.9498 38.5356V40.1783C29.9498 40.2461 29.9837 40.28 30.0515 40.28H31.5064C31.5794 40.28 31.6368 40.2617 31.6785 40.2252C31.7202 40.1887 31.7463 40.1548 31.7567 40.1235C31.7724 40.0923 31.7933 40.0349 31.8193 39.9515L31.8506 39.8498C31.8663 39.7872 31.9054 39.7559 31.9679 39.7559C32.0305 39.7559 32.0618 39.7924 32.0618 39.8654L32.0305 40.5303L32.0618 41.1639C32.0618 41.2317 32.0279 41.2708 31.9601 41.2812C31.8975 41.2812 31.861 41.2499 31.8506 41.1874L31.8271 41.0466C31.7802 40.7754 31.6733 40.6398 31.5064 40.6398H30.0437C29.9811 40.6398 29.9498 40.6763 29.9498 40.7493V42.5641C29.9498 42.6736 29.9837 42.7622 30.0515 42.83C30.1245 42.8926 30.2184 42.9239 30.3331 42.9239H31.6238C31.8949 42.9239 32.127 42.8587 32.3199 42.7283C32.5181 42.5927 32.6563 42.3972 32.7345 42.1417C32.7606 42.0582 32.8023 42.0165 32.8597 42.0165C32.9222 42.0165 32.964 42.0321 32.9848 42.0634C33.0109 42.0895 33.0213 42.1208 33.0161 42.1573L32.891 42.9708C32.8805 43.0595 32.8414 43.1351 32.7736 43.1976C32.7111 43.255 32.6328 43.2837 32.539 43.2837ZM38.9671 40.0375C39.2122 39.8341 39.3348 39.5682 39.3348 39.2396C39.3348 38.9111 39.2148 38.6504 38.9749 38.4574C38.7351 38.2593 38.4326 38.1602 38.0676 38.1602H37.3323C37.1237 38.1602 37.0194 38.2645 37.0194 38.4731V40.2331C37.0194 40.3008 37.0481 40.3347 37.1054 40.3347H38.0676C38.4274 40.3347 38.7272 40.2357 38.9671 40.0375ZM38.3335 37.8082C38.8341 37.8082 39.2435 37.936 39.5616 38.1915C39.8849 38.447 40.0466 38.786 40.0466 39.2084C40.0466 39.6255 39.8875 39.9723 39.5694 40.2487C39.2565 40.5199 38.9071 40.6607 38.5213 40.6711L38.5134 40.6867C38.6229 40.7232 38.709 40.791 38.7716 40.8901L39.9527 42.7674C40.0622 42.9499 40.2343 43.0568 40.469 43.0881L40.6098 43.1038C40.6776 43.1142 40.7115 43.1481 40.7115 43.2055C40.7115 43.2785 40.6723 43.315 40.5941 43.315C40.0935 43.2941 39.7806 43.2837 39.6555 43.2837C39.5355 43.2837 39.4417 43.2315 39.3739 43.1272L38.0519 40.9292C37.9476 40.7676 37.8329 40.6867 37.7078 40.6867C37.7078 40.6867 37.7051 40.6867 37.6999 40.6867H37.1367C37.0585 40.6867 37.0194 40.718 37.0194 40.7806V42.7674C37.0194 42.8613 37.0533 42.9369 37.1211 42.9943C37.1889 43.0516 37.2723 43.0829 37.3714 43.0881L37.6999 43.1038C37.7573 43.1038 37.786 43.1403 37.786 43.2133C37.786 43.2811 37.7495 43.315 37.6765 43.315L36.6987 43.2837L35.8304 43.315C35.7626 43.315 35.7235 43.2837 35.7131 43.2211C35.7131 43.1481 35.7444 43.109 35.807 43.1038L36.0338 43.0881C36.2476 43.0725 36.3545 42.9656 36.3545 42.7674V38.3245C36.3545 38.1367 36.2346 38.0324 35.9947 38.0116L35.7679 37.9881C35.7105 37.9777 35.6818 37.9438 35.6818 37.8864C35.6818 37.8134 35.7183 37.7769 35.7913 37.7769L36.8708 37.8082H38.3335ZM46.8212 41.8679C46.8212 42.3581 46.6361 42.7309 46.2659 42.9864C45.9008 43.242 45.455 43.3697 44.9283 43.3697C44.4068 43.3697 43.9766 43.3072 43.6376 43.182C43.3039 43.0568 43.137 42.9187 43.137 42.7674V41.8522C43.137 41.7427 43.1787 41.688 43.2621 41.688C43.3299 41.688 43.3769 41.7375 43.4029 41.8366C43.5385 42.2381 43.7132 42.538 43.927 42.7361C44.1461 42.9291 44.4511 43.0256 44.8422 43.0256C45.2333 43.0256 45.5488 42.9369 45.7887 42.7596C46.0338 42.5823 46.1563 42.3372 46.1563 42.0243C46.1563 41.6802 45.9634 41.3907 45.5775 41.1561C45.4054 41.0518 45.2151 40.9501 45.0065 40.851C44.7979 40.7519 44.5893 40.6502 44.3807 40.5459C44.1721 40.4364 43.9818 40.3191 43.8097 40.1939C43.4238 39.9123 43.2309 39.5577 43.2309 39.1301C43.2309 38.6973 43.3951 38.3557 43.7237 38.1054C44.0574 37.8499 44.4485 37.7221 44.897 37.7221C45.3454 37.7221 45.7261 37.7795 46.039 37.8942C46.3519 38.0037 46.5083 38.1263 46.5083 38.2619V39.0519C46.5083 39.1562 46.4692 39.2084 46.391 39.2084C46.318 39.2084 46.2632 39.1562 46.2267 39.0519C46.1172 38.7182 45.9738 38.4705 45.7965 38.3088C45.6192 38.1471 45.3533 38.0663 44.9987 38.0663C44.6493 38.0663 44.3729 38.1498 44.1695 38.3166C43.9661 38.4835 43.8645 38.6921 43.8645 38.9424C43.8645 39.1875 43.9661 39.4013 44.1695 39.5838C44.3729 39.7611 44.618 39.9202 44.9048 40.061C45.1968 40.1966 45.4862 40.34 45.7731 40.4912C46.0651 40.6372 46.3128 40.8275 46.5162 41.0622C46.7195 41.2969 46.8212 41.5654 46.8212 41.8679ZM49.8037 43.315C49.7307 43.315 49.6942 43.2837 49.6942 43.2211C49.6942 43.1533 49.7229 43.1142 49.7803 43.1038L49.9132 43.0881C50.127 43.0621 50.2339 42.9552 50.2339 42.7674V38.3245C50.2339 38.1367 50.114 38.0324 49.8741 38.0116L49.6473 37.9881C49.5899 37.9777 49.5612 37.9438 49.5612 37.8864C49.5612 37.8134 49.5977 37.7769 49.6707 37.7769L50.5546 37.8082L51.329 37.7769C51.4073 37.7769 51.4464 37.8082 51.4464 37.8708C51.4464 37.9438 51.4125 37.9829 51.3447 37.9881L51.2117 38.0116C51.0031 38.0481 50.8988 38.1524 50.8988 38.3245V42.7674C50.8988 42.8613 50.9327 42.9369 51.0005 42.9943C51.0683 43.0464 51.1517 43.0777 51.2508 43.0881L51.4777 43.1038C51.5402 43.1038 51.5715 43.1377 51.5715 43.2055C51.5715 43.2368 51.5585 43.2628 51.5324 43.2837C51.5116 43.3046 51.4881 43.315 51.462 43.315L50.5781 43.2837L49.8037 43.315ZM56.5885 37.8082C57.4229 37.8082 58.0878 38.0507 58.5832 38.5356C59.0786 39.0154 59.3263 39.6542 59.3263 40.4521C59.3263 41.2499 59.0681 41.9226 58.5519 42.4702C58.0408 43.0125 57.3864 43.2837 56.5885 43.2837H55.2431L54.2653 43.3228C54.1923 43.3228 54.1558 43.2889 54.1558 43.2211C54.1558 43.1481 54.1845 43.1116 54.2419 43.1116L54.4687 43.096C54.573 43.0855 54.6591 43.0542 54.7268 43.0021C54.7946 42.9447 54.8285 42.8691 54.8285 42.7753V38.3245C54.8285 38.1367 54.7086 38.0324 54.4687 38.0116L54.2419 37.9881C54.1845 37.9777 54.1558 37.9438 54.1558 37.8864C54.1558 37.8134 54.1923 37.7769 54.2653 37.7769L55.2431 37.8082H56.5885ZM58.1295 38.9815C57.973 38.7312 57.7618 38.533 57.4959 38.387C57.2299 38.241 56.9249 38.168 56.5807 38.168H55.8767C55.762 38.168 55.6681 38.1993 55.5951 38.2619C55.5273 38.3245 55.4934 38.4157 55.4934 38.5356V42.5641C55.4934 42.6736 55.5273 42.7622 55.5951 42.83C55.6681 42.8926 55.762 42.9239 55.8767 42.9239H56.6198C57.2195 42.9239 57.6993 42.7179 58.0591 42.3059C58.4189 41.894 58.5988 41.3594 58.5988 40.7024C58.5988 40.0453 58.4424 39.4717 58.1295 38.9815ZM63.2934 41.1326H65.0378C65.0951 41.1326 65.1134 41.1013 65.0925 41.0387L64.1617 38.6452L63.2309 41.0544C63.2152 41.1065 63.2361 41.1326 63.2934 41.1326ZM62.566 42.7674C62.5555 42.7987 62.5503 42.8352 62.5503 42.8769C62.5503 42.9134 62.5712 42.9578 62.6129 43.0099C62.6546 43.0568 62.712 43.0829 62.785 43.0881L62.9571 43.1038C63.0249 43.1142 63.0588 43.1481 63.0588 43.2055C63.0588 43.2785 63.0197 43.315 62.9414 43.315L62.2609 43.2837L61.5491 43.315C61.4761 43.315 61.4396 43.2811 61.4396 43.2133C61.4396 43.1403 61.4683 43.1038 61.5256 43.1038L61.6743 43.0881C61.8985 43.0621 62.0497 42.9552 62.1279 42.7674L64.1382 37.816C64.1591 37.7534 64.2191 37.7221 64.3181 37.7221C64.4224 37.7221 64.4876 37.7534 64.5137 37.816L66.5162 42.7674C66.584 42.9604 66.7326 43.0673 66.962 43.0881L67.1263 43.1038C67.1471 43.1038 67.1654 43.1142 67.181 43.1351C67.1967 43.1559 67.2045 43.1768 67.2045 43.1976C67.2045 43.2759 67.168 43.315 67.095 43.315L66.1955 43.2837L65.3898 43.315C65.3168 43.315 65.2803 43.2837 65.2803 43.2211C65.2803 43.1481 65.3116 43.109 65.3741 43.1038L65.554 43.0881C65.6218 43.0829 65.6766 43.0568 65.7183 43.0099C65.7652 42.963 65.7887 42.9187 65.7887 42.8769C65.7887 42.8352 65.7809 42.7987 65.7652 42.7674L65.3037 41.5706C65.2881 41.5185 65.2464 41.4924 65.1786 41.4924H63.1526C63.0901 41.4924 63.0483 41.5185 63.0275 41.5706L62.566 42.7674ZM71.904 37.8082C72.7384 37.8082 73.4033 38.0507 73.8987 38.5356C74.3941 39.0154 74.6418 39.6542 74.6418 40.4521C74.6418 41.2499 74.3837 41.9226 73.8674 42.4702C73.3563 43.0125 72.7019 43.2837 71.904 43.2837H70.5586L69.5809 43.3228C69.5078 43.3228 69.4713 43.2889 69.4713 43.2211C69.4713 43.1481 69.5 43.1116 69.5574 43.1116L69.7842 43.096C69.8885 43.0855 69.9746 43.0542 70.0424 43.0021C70.1102 42.9447 70.144 42.8691 70.144 42.7753V38.3245C70.144 38.1367 70.0241 38.0324 69.7842 38.0116L69.5574 37.9881C69.5 37.9777 69.4713 37.9438 69.4713 37.8864C69.4713 37.8134 69.5078 37.7769 69.5809 37.7769L70.5586 37.8082H71.904ZM73.445 38.9815C73.2886 38.7312 73.0774 38.533 72.8114 38.387C72.5454 38.241 72.2404 38.168 71.8962 38.168H71.1922C71.0775 38.168 70.9836 38.1993 70.9106 38.2619C70.8428 38.3245 70.8089 38.4157 70.8089 38.5356V42.5641C70.8089 42.6736 70.8428 42.7622 70.9106 42.83C70.9836 42.8926 71.0775 42.9239 71.1922 42.9239H71.9353C72.535 42.9239 73.0148 42.7179 73.3746 42.3059C73.7344 41.894 73.9143 41.3594 73.9143 40.7024C73.9143 40.0453 73.7579 39.4717 73.445 38.9815ZM84.1979 37.7221C85.0219 37.7221 85.6815 37.9855 86.1769 38.5122C86.6776 39.0337 86.9279 39.7064 86.9279 40.5303C86.9279 41.3542 86.6723 42.0348 86.1613 42.5719C85.6555 43.1038 84.9958 43.3697 84.1823 43.3697C83.374 43.3697 82.7169 43.1038 82.2111 42.5719C81.7053 42.04 81.4524 41.3673 81.4524 40.5538C81.4524 39.735 81.7053 39.0597 82.2111 38.5278C82.7169 37.9907 83.3792 37.7221 84.1979 37.7221ZM85.7389 38.9502C85.5877 38.6843 85.3791 38.4731 85.1131 38.3166C84.8472 38.1602 84.5369 38.082 84.1823 38.082C83.5461 38.082 83.0533 38.2775 82.7039 38.6686C82.3597 39.0545 82.1876 39.5812 82.1876 40.2487C82.1876 40.9423 82.3441 41.5628 82.657 42.1104C82.8082 42.3815 83.0194 42.6006 83.2906 42.7674C83.5617 42.9291 83.872 43.0099 84.2214 43.0099C84.842 43.0099 85.3243 42.8065 85.6685 42.3998C86.0179 41.993 86.1926 41.4455 86.1926 40.7571C86.1926 40.0688 86.0414 39.4665 85.7389 38.9502ZM92.9494 40.0375C93.1945 39.8341 93.317 39.5682 93.317 39.2396C93.317 38.9111 93.1971 38.6504 92.9572 38.4574C92.7173 38.2593 92.4149 38.1602 92.0498 38.1602H91.3146C91.106 38.1602 91.0017 38.2645 91.0017 38.4731V40.2331C91.0017 40.3008 91.0304 40.3347 91.0877 40.3347H92.0498C92.4097 40.3347 92.7095 40.2357 92.9494 40.0375ZM92.3158 37.8082C92.8164 37.8082 93.2258 37.936 93.5439 38.1915C93.8672 38.447 94.0288 38.786 94.0288 39.2084C94.0288 39.6255 93.8698 39.9723 93.5517 40.2487C93.2388 40.5199 92.8894 40.6607 92.5035 40.6711L92.4957 40.6867C92.6052 40.7232 92.6913 40.791 92.7538 40.8901L93.935 42.7674C94.0445 42.9499 94.2166 43.0568 94.4512 43.0881L94.592 43.1038C94.6598 43.1142 94.6937 43.1481 94.6937 43.2055C94.6937 43.2785 94.6546 43.315 94.5764 43.315C94.0758 43.2941 93.7629 43.2837 93.6377 43.2837C93.5178 43.2837 93.4239 43.2315 93.3561 43.1272L92.0342 40.9292C91.9299 40.7676 91.8152 40.6867 91.69 40.6867C91.69 40.6867 91.6874 40.6867 91.6822 40.6867H91.119C91.0408 40.6867 91.0017 40.718 91.0017 40.7806V42.7674C91.0017 42.8613 91.0356 42.9369 91.1034 42.9943C91.1712 43.0516 91.2546 43.0829 91.3537 43.0881L91.6822 43.1038C91.7396 43.1038 91.7682 43.1403 91.7682 43.2133C91.7682 43.2811 91.7317 43.315 91.6587 43.315L90.681 43.2837L89.8127 43.315C89.7449 43.315 89.7058 43.2837 89.6954 43.2211C89.6954 43.1481 89.7267 43.109 89.7892 43.1038L90.0161 43.0881C90.2299 43.0725 90.3368 42.9656 90.3368 42.7674V38.3245C90.3368 38.1367 90.2169 38.0324 89.977 38.0116L89.7501 37.9881C89.6928 37.9777 89.6641 37.9438 89.6641 37.8864C89.6641 37.8134 89.7006 37.7769 89.7736 37.7769L90.8531 37.8082H92.3158ZM99.4894 38.3792V42.7674C99.4894 42.8613 99.5233 42.9369 99.5911 42.9943C99.6589 43.0464 99.7423 43.0777 99.8414 43.0881L100.068 43.1038C100.131 43.1038 100.162 43.1377 100.162 43.2055C100.162 43.2368 100.149 43.2628 100.123 43.2837C100.102 43.3046 100.079 43.315 100.053 43.315L99.1687 43.2837L98.1987 43.315C98.1727 43.315 98.1466 43.3046 98.1205 43.2837C98.0996 43.2628 98.0892 43.2368 98.0892 43.2055C98.0892 43.1377 98.1205 43.1038 98.1831 43.1038L98.4725 43.0881C98.5716 43.0777 98.655 43.0464 98.7228 42.9943C98.7906 42.9369 98.8245 42.8613 98.8245 42.7674V38.3792C98.8245 38.2384 98.7593 38.168 98.6289 38.168H97.9719C97.7164 38.168 97.5156 38.2384 97.3696 38.3792C97.2236 38.5148 97.1088 38.7182 97.0254 38.9893C96.9941 39.0676 96.9498 39.1067 96.8924 39.1067C96.8403 39.1067 96.8012 39.0936 96.7751 39.0676C96.749 39.0363 96.7386 39.0024 96.7438 38.9659L96.8064 37.9568C96.8168 37.8577 96.8742 37.8082 96.9785 37.8082H101.312C101.421 37.8082 101.481 37.8708 101.492 37.9959L101.57 38.9659C101.575 39.0076 101.565 39.0415 101.539 39.0676C101.513 39.0936 101.471 39.1067 101.414 39.1067C101.361 39.1067 101.32 39.0676 101.288 38.9893C101.195 38.713 101.075 38.507 100.929 38.3714C100.788 38.2358 100.592 38.168 100.342 38.168H99.6849C99.5546 38.168 99.4894 38.2384 99.4894 38.3792Z" fill="white"/>
<path d="M33.3869 48.4912V45.5422C33.3869 45.3545 33.2669 45.2502 33.027 45.2293L32.8002 45.2059C32.7428 45.1954 32.7142 45.1615 32.7142 45.1042C32.7142 45.0312 32.7507 44.9947 32.8237 44.9947L33.7076 45.026L34.482 44.9947C34.5602 44.9947 34.5993 45.026 34.5993 45.0885C34.5993 45.1615 34.5654 45.2007 34.4976 45.2059L34.3646 45.2293C34.156 45.2658 34.0517 45.3701 34.0517 45.5422V48.499C34.0517 48.984 34.1978 49.362 34.4898 49.6332C34.7818 49.9044 35.1651 50.04 35.6396 50.04C36.1194 50.04 36.5053 49.9018 36.7973 49.6254C37.0946 49.349 37.2432 48.9735 37.2432 48.499V45.5422C37.2432 45.3701 37.1389 45.2658 36.9303 45.2293L36.7973 45.2059C36.7295 45.1954 36.6956 45.1589 36.6956 45.0964C36.6956 45.0338 36.7347 45.0025 36.813 45.0025L37.4231 45.026L38.1818 45.0025C38.2548 45.0025 38.2913 45.0338 38.2913 45.0964C38.2913 45.1589 38.2627 45.1954 38.2053 45.2059L37.9785 45.2293C37.7386 45.2554 37.6186 45.3597 37.6186 45.5422V48.4912C37.6186 49.1326 37.4205 49.6436 37.0242 50.0243C36.6331 50.3998 36.1298 50.5875 35.5145 50.5875C34.8991 50.5875 34.3907 50.392 33.9892 50.0008C33.5876 49.6097 33.3869 49.1065 33.3869 48.4912ZM40.8604 46.5043C40.9439 46.5043 40.9856 46.5643 40.9856 46.6843V47.1067C40.9856 47.1327 40.996 47.1458 41.0169 47.1458C41.0377 47.1458 41.0612 47.1301 41.0873 47.0988C41.2072 46.9476 41.3715 46.812 41.5801 46.6921C41.7939 46.5669 41.9816 46.5043 42.1433 46.5043C42.3101 46.5043 42.4379 46.5226 42.5265 46.5591C42.6152 46.5956 42.6595 46.6373 42.6595 46.6843V47.2866C42.6595 47.3648 42.623 47.4039 42.55 47.4039C42.5083 47.4039 42.4535 47.3648 42.3858 47.2866C42.2397 47.1093 42.0494 47.0206 41.8147 47.0206C41.5853 47.0206 41.3897 47.1301 41.2281 47.3491C41.0664 47.5682 40.9856 47.8837 40.9856 48.2956V49.9852C40.9856 50.1729 41.1238 50.2772 41.4002 50.2981L41.7209 50.3216C41.7834 50.3268 41.8147 50.3633 41.8147 50.4311C41.8147 50.4989 41.7756 50.5328 41.6974 50.5328L40.6649 50.5015L39.8201 50.5328C39.7419 50.5328 39.7028 50.4989 39.7028 50.4311C39.7028 50.3633 39.734 50.3268 39.7966 50.3216L40.0156 50.3059C40.1199 50.2955 40.206 50.2642 40.2738 50.212C40.3416 50.1547 40.3755 50.0791 40.3755 49.9852V47.1223C40.3755 47.018 40.352 46.9476 40.3051 46.9111C40.2633 46.8694 40.1929 46.8485 40.0939 46.8485H39.8279C39.7601 46.8485 39.7262 46.8146 39.7262 46.7468C39.7262 46.679 39.7601 46.6399 39.8279 46.6295L40.8448 46.5043C40.85 46.5043 40.8552 46.5043 40.8604 46.5043ZM47.9411 46.9189V49.7896C47.9411 49.9565 47.9932 50.0921 48.0975 50.1964C48.2018 50.2955 48.327 50.345 48.473 50.345C48.5512 50.345 48.5903 50.3763 48.5903 50.4389C48.5903 50.538 48.4886 50.5875 48.2852 50.5875C47.9776 50.5875 47.709 50.4597 47.4796 50.2042C47.4639 50.1886 47.4483 50.1703 47.4326 50.1495C47.417 50.1286 47.4039 50.1104 47.3935 50.0947C47.3727 50.0686 47.3492 50.0556 47.3231 50.0556C47.3023 50.0556 47.2684 50.0765 47.2214 50.1182C46.8668 50.4311 46.4627 50.5875 46.009 50.5875C45.5605 50.5875 45.2007 50.4571 44.9295 50.1964C44.6584 49.9357 44.5228 49.5654 44.5228 49.0857V47.1067C44.5228 47.0024 44.4993 46.9294 44.4524 46.8876C44.4107 46.8459 44.3429 46.8251 44.249 46.8251H43.9831C43.957 46.8251 43.9309 46.8146 43.9048 46.7938C43.884 46.7729 43.8735 46.7468 43.8735 46.7155C43.8735 46.653 43.9101 46.6165 43.9831 46.606L45.0156 46.5043C45.0312 46.5043 45.0443 46.5043 45.0547 46.5043C45.159 46.5043 45.2111 46.5461 45.2111 46.6295C45.2111 46.6399 45.1981 46.6712 45.172 46.7234C45.1459 46.7755 45.1329 46.8407 45.1329 46.9189V49.2108C45.1329 49.5341 45.232 49.7896 45.4302 49.9774C45.6335 50.1599 45.8917 50.2512 46.2045 50.2512C46.5226 50.2512 46.7886 50.1338 47.0024 49.8992C47.2214 49.6645 47.3309 49.3985 47.3309 49.1013V47.1067C47.3309 47.0024 47.3075 46.9294 47.2605 46.8876C47.2188 46.8459 47.151 46.8251 47.0572 46.8251H46.713C46.6869 46.8251 46.6608 46.8146 46.6348 46.7938C46.6139 46.7729 46.6035 46.7468 46.6035 46.7155C46.6035 46.653 46.64 46.6165 46.713 46.606L47.8081 46.5043C47.8185 46.5043 47.8316 46.5043 47.8472 46.5043C47.9515 46.5043 48.0036 46.5461 48.0036 46.6295C48.0036 46.6399 47.9932 46.6712 47.9724 46.7234C47.9515 46.7755 47.9411 46.8407 47.9411 46.9189ZM53.8228 47.0519H53.1735C53.1422 47.0519 53.124 47.0597 53.1188 47.0754C53.1136 47.091 53.1214 47.1093 53.1422 47.1301C53.3039 47.3387 53.3847 47.6021 53.3847 47.9202C53.3847 48.3478 53.2335 48.6893 52.931 48.9449C52.6338 49.2004 52.2609 49.3281 51.8125 49.3281C51.557 49.3281 51.3692 49.3099 51.2493 49.2734C51.1346 49.2317 51.0459 49.2291 50.9833 49.2656C50.7956 49.3699 50.7017 49.5211 50.7017 49.7193C50.7017 49.8496 50.7565 49.9565 50.866 50.04C50.9755 50.1182 51.0928 50.1573 51.218 50.1573H52.3522C52.8632 50.1573 53.2465 50.2642 53.5021 50.478C53.7628 50.6918 53.8932 50.9838 53.8932 51.3541C53.8932 51.813 53.7054 52.1702 53.33 52.4257C52.9597 52.6865 52.5008 52.8168 51.9533 52.8168C51.4057 52.8168 50.9625 52.7125 50.6235 52.5039C50.2845 52.2953 50.1151 52.0007 50.1151 51.62C50.1151 51.3645 50.1959 51.1533 50.3576 50.9864C50.5192 50.8196 50.6939 50.7048 50.8816 50.6423C50.7304 50.6058 50.5844 50.5171 50.4436 50.3763C50.3028 50.2303 50.2324 50.0556 50.2324 49.8522C50.2324 49.5237 50.3993 49.2708 50.733 49.0935C50.7487 49.083 50.7565 49.07 50.7565 49.0544C50.7565 49.0387 50.7487 49.0205 50.733 48.9996C50.4097 48.7284 50.248 48.3738 50.248 47.9358C50.248 47.4978 50.3941 47.151 50.6861 46.8955C50.9833 46.6347 51.351 46.5043 51.789 46.5043C51.9559 46.5043 52.141 46.5304 52.3444 46.5826C52.553 46.6347 52.6938 46.6608 52.7668 46.6608H53.8932C53.9557 46.6608 53.9818 46.6921 53.9714 46.7547L53.9323 46.958C53.9218 47.0206 53.8853 47.0519 53.8228 47.0519ZM51.8125 49.0074C52.1149 49.0074 52.347 48.9188 52.5086 48.7415C52.6703 48.5642 52.7511 48.3191 52.7511 48.0062C52.7511 47.6933 52.6651 47.4195 52.493 47.1849C52.3261 46.945 52.0941 46.8251 51.7968 46.8251C51.4996 46.8251 51.2727 46.9163 51.1163 47.0988C50.9599 47.2761 50.8816 47.5212 50.8816 47.8341C50.8816 48.147 50.9599 48.4208 51.1163 48.6554C51.278 48.8901 51.51 49.0074 51.8125 49.0074ZM51.9533 52.5274C52.3444 52.5274 52.6677 52.4335 52.9232 52.2458C53.184 52.0581 53.3143 51.8286 53.3143 51.5575C53.3143 51.2863 53.2309 51.0829 53.064 50.9473C52.8971 50.8117 52.6599 50.744 52.3522 50.744H51.57C51.2832 50.744 51.0615 50.8222 50.9051 50.9786C50.7487 51.1351 50.6704 51.3463 50.6704 51.6122C50.6704 51.8782 50.7852 52.0972 51.0146 52.2693C51.2493 52.4414 51.5622 52.5274 51.9533 52.5274ZM59.3018 46.9189V49.7896C59.3018 49.9565 59.354 50.0921 59.4583 50.1964C59.5626 50.2955 59.6877 50.345 59.8337 50.345C59.9119 50.345 59.9511 50.3763 59.9511 50.4389C59.9511 50.538 59.8494 50.5875 59.646 50.5875C59.3383 50.5875 59.0698 50.4597 58.8403 50.2042C58.8247 50.1886 58.809 50.1703 58.7934 50.1495C58.7777 50.1286 58.7647 50.1104 58.7543 50.0947C58.7334 50.0686 58.7099 50.0556 58.6839 50.0556C58.663 50.0556 58.6291 50.0765 58.5822 50.1182C58.2276 50.4311 57.8234 50.5875 57.3697 50.5875C56.9213 50.5875 56.5615 50.4571 56.2903 50.1964C56.0191 49.9357 55.8835 49.5654 55.8835 49.0857V47.1067C55.8835 47.0024 55.8601 46.9294 55.8131 46.8876C55.7714 46.8459 55.7036 46.8251 55.6098 46.8251H55.3438C55.3177 46.8251 55.2917 46.8146 55.2656 46.7938C55.2447 46.7729 55.2343 46.7468 55.2343 46.7155C55.2343 46.653 55.2708 46.6165 55.3438 46.606L56.3763 46.5043C56.392 46.5043 56.405 46.5043 56.4154 46.5043C56.5197 46.5043 56.5719 46.5461 56.5719 46.6295C56.5719 46.6399 56.5588 46.6712 56.5328 46.7234C56.5067 46.7755 56.4937 46.8407 56.4937 46.9189V49.2108C56.4937 49.5341 56.5927 49.7896 56.7909 49.9774C56.9943 50.1599 57.2524 50.2512 57.5653 50.2512C57.8834 50.2512 58.1493 50.1338 58.3632 49.8992C58.5822 49.6645 58.6917 49.3985 58.6917 49.1013V47.1067C58.6917 47.0024 58.6682 46.9294 58.6213 46.8876C58.5796 46.8459 58.5118 46.8251 58.4179 46.8251H58.0737C58.0477 46.8251 58.0216 46.8146 57.9955 46.7938C57.9747 46.7729 57.9642 46.7468 57.9642 46.7155C57.9642 46.653 58.0007 46.6165 58.0737 46.606L59.1688 46.5043C59.1793 46.5043 59.1923 46.5043 59.2079 46.5043C59.3122 46.5043 59.3644 46.5461 59.3644 46.6295C59.3644 46.6399 59.354 46.6712 59.3331 46.7234C59.3122 46.7755 59.3018 46.8407 59.3018 46.9189ZM64.9645 50.4624C64.9645 50.5458 64.8706 50.5875 64.6829 50.5875C64.3596 50.5875 64.0858 50.4597 63.8616 50.2042C63.8251 50.1677 63.7964 50.1495 63.7755 50.1495C63.7599 50.1495 63.7338 50.1651 63.6973 50.1964C63.3583 50.4571 62.9777 50.5875 62.5553 50.5875C62.258 50.5875 61.9973 50.4963 61.7731 50.3137C61.5488 50.126 61.4367 49.8861 61.4367 49.5941C61.4367 49.2238 61.5984 48.9423 61.9217 48.7493C62.2085 48.5824 62.657 48.4521 63.2671 48.3582C63.4131 48.3321 63.5122 48.3139 63.5643 48.3034C63.6321 48.2982 63.666 48.2617 63.666 48.1939V47.4743C63.666 47.2605 63.593 47.091 63.447 46.9659C63.3062 46.8407 63.1159 46.7781 62.876 46.7781C62.6413 46.7781 62.4275 46.8511 62.2346 46.9971C62.0468 47.1432 61.9269 47.3465 61.8747 47.6073C61.8591 47.6855 61.8148 47.7246 61.7418 47.7246C61.674 47.7246 61.6401 47.6855 61.6401 47.6073V47.0206C61.6401 46.932 61.6688 46.8668 61.7261 46.8251C62.0025 46.6113 62.3988 46.5043 62.9151 46.5043C63.4314 46.5043 63.7938 46.6165 64.0024 46.8407C64.211 47.0649 64.3153 47.3544 64.3153 47.709V49.7975C64.3153 49.9643 64.3674 50.0999 64.4717 50.2042C64.5812 50.3085 64.709 50.3607 64.855 50.3607C64.928 50.3607 64.9645 50.3946 64.9645 50.4624ZM63.6504 49.7349V48.7571C63.6504 48.6789 63.6165 48.6398 63.5487 48.6398C63.5435 48.6398 63.5357 48.6398 63.5252 48.6398C62.5918 48.7545 62.1251 49.0413 62.1251 49.5002C62.1251 49.714 62.1955 49.8835 62.3363 50.0087C62.4771 50.1286 62.6335 50.1886 62.8056 50.1886C62.9829 50.1886 63.1367 50.1547 63.2671 50.0869C63.4027 50.0191 63.4991 49.9513 63.5565 49.8835C63.6191 49.8157 63.6504 49.7662 63.6504 49.7349ZM69.2881 46.958C69.2881 46.859 69.2177 46.799 69.0769 46.7781L68.9361 46.7625C68.8736 46.752 68.8423 46.7155 68.8423 46.653C68.8423 46.5904 68.8788 46.5591 68.9518 46.5591L69.5619 46.5904L70.1251 46.5591C70.1929 46.5591 70.2268 46.5904 70.2268 46.653C70.2268 46.7155 70.1981 46.752 70.1407 46.7625L69.9921 46.7859C69.82 46.812 69.6975 46.9137 69.6245 47.091L67.9505 50.963C67.5907 51.7765 67.2257 52.3032 66.8554 52.543C66.772 52.5952 66.712 52.6213 66.6755 52.6213C66.639 52.6213 66.6156 52.6161 66.6051 52.6056L66.3705 52.3084C66.3496 52.2823 66.3392 52.251 66.3392 52.2145C66.3392 52.178 66.3548 52.1493 66.3861 52.1285C66.553 52.045 66.6781 51.9746 66.7616 51.9173C66.845 51.8651 66.9545 51.7739 67.0901 51.6435C67.3196 51.414 67.5881 50.9499 67.8958 50.2512C67.9114 50.2251 67.9192 50.1938 67.9192 50.1573C67.9192 50.1208 67.9114 50.0869 67.8958 50.0556L66.6599 47.0675C66.6025 46.9215 66.4826 46.8277 66.3001 46.7859L66.1514 46.7625C66.0941 46.752 66.0654 46.7155 66.0654 46.653C66.0654 46.5904 66.1019 46.5591 66.1749 46.5591L66.9493 46.5904L67.7237 46.5591C67.8123 46.5591 67.8567 46.5904 67.8567 46.653C67.8567 46.7155 67.8228 46.752 67.755 46.7625L67.5907 46.7781C67.4916 46.7833 67.4212 46.8146 67.3795 46.872C67.3378 46.9294 67.3326 46.9945 67.3639 47.0675L68.2478 49.3751C68.253 49.3855 68.2634 49.3933 68.2791 49.3985C68.2999 49.3985 68.3156 49.3855 68.326 49.3594L69.2647 47.0675C69.2803 47.0258 69.2881 46.9893 69.2881 46.958Z" fill="white"/>
</svg>
