<svg width="157" height="42" viewBox="0 0 157 42" fill="none" xmlns="http://www.w3.org/2000/svg">
<path d="M12.8675 41.4033C8.99747 41.4033 5.8868 40.2653 3.53551 37.9823C1.18422 35.7098 0.00683594 32.7033 0.00683594 28.9662C0.00683594 25.2291 1.18422 22.2225 3.53551 19.9465C5.8868 17.6635 9.00096 16.5255 12.8675 16.5255C15.9399 16.5255 18.5246 17.2877 20.6355 18.8261C22.7464 20.354 24.0632 22.3841 24.5752 24.9024C24.6727 25.4293 24.4637 25.6892 23.9377 25.6892H19.3362C18.9391 25.6892 18.6918 25.4855 18.5803 25.071C18.218 24.0208 17.5248 23.1849 16.4937 22.5527C15.4627 21.9099 14.2539 21.5938 12.8675 21.5938C10.7705 21.5938 9.08804 22.2682 7.8166 23.6169C6.54168 24.9656 5.9077 26.7499 5.9077 28.9627C5.9077 31.1754 6.54516 32.9597 7.8166 34.3084C9.09153 35.6572 10.774 36.3315 12.8675 36.3315C14.2539 36.3315 15.4627 36.0154 16.4937 35.3832C17.5248 34.7404 18.218 33.9045 18.5803 32.8543C18.7127 32.4258 18.96 32.2186 19.3362 32.2362H23.9377C24.4603 32.2362 24.6693 32.4855 24.5752 32.9983C24.0597 35.5342 22.7464 37.5714 20.6355 39.0992C18.5246 40.6341 15.9399 41.3998 12.8675 41.3998V41.4033ZM57.232 39.9246C57.2634 40.3531 57.0787 40.6482 56.6677 40.8097C55.4764 41.1996 54.3722 41.4033 53.362 41.4033C50.5892 41.4033 48.7291 40.3953 47.7711 38.3827C45.4825 40.3988 42.8212 41.4033 39.7837 41.4033C36.046 41.4033 32.9667 40.2407 30.5632 37.9156C28.1596 35.5834 26.9683 32.6014 26.9683 28.9627C26.9683 25.3239 28.1596 22.3419 30.5632 20.0097C32.9632 17.6846 36.0425 16.522 39.7837 16.522C42.3719 16.522 44.643 17.2385 46.6077 18.668V18.0042C46.6077 17.509 46.8411 17.2666 47.3183 17.2666H51.7805C52.2612 17.2666 52.5155 17.5125 52.5155 18.0042V34.3857C52.5155 34.9371 52.6583 35.3797 52.9579 35.7028C53.2575 36.026 53.6685 36.1875 54.1806 36.1875C54.6926 36.1875 55.3022 36.1138 55.978 35.9768C56.5005 35.8784 56.7896 36.0822 56.8558 36.5704L57.2251 39.9246H57.232ZM39.8325 36.5212C41.8285 36.5212 43.4587 35.8152 44.7232 34.3997C45.9807 32.9913 46.6077 31.1789 46.6077 28.9627C46.6077 26.7464 45.9772 24.934 44.7232 23.5256C43.4587 22.1136 41.8285 21.4041 39.8325 21.4041C37.8365 21.4041 36.1331 22.1101 34.8268 23.5256C33.5206 24.9305 32.8692 26.7499 32.8692 28.9627C32.8692 31.1754 33.524 32.9913 34.8268 34.3997C36.1331 35.8117 37.8017 36.5212 39.8325 36.5212ZM69.9394 41.4033C66.6546 41.4033 63.9933 40.7219 61.9764 39.3556C59.9595 37.9893 58.7856 36.0892 58.4373 33.6411C58.3711 33.1142 58.6045 32.8543 59.1479 32.8543L63.2095 32.9035C63.6066 32.9035 63.8644 33.1142 63.9828 33.5427C64.6934 35.7204 66.672 36.7987 69.9394 36.7987C71.3258 36.7987 72.4544 36.5633 73.3253 36.0751C74.2031 35.5869 74.6385 34.9582 74.6385 34.182C74.6385 33.2442 74.1056 32.5593 73.0431 32.1097C71.9772 31.6707 70.6988 31.3475 69.194 31.1508C67.6961 30.9471 66.1948 30.6872 64.6969 30.3641C63.206 30.0409 61.9241 29.349 60.8547 28.2918C59.7819 27.2381 59.2489 25.7875 59.2489 23.9436C59.2489 21.7413 60.1824 19.9535 62.053 18.5837C63.9306 17.2104 66.3933 16.5185 69.4657 16.5185C72.3047 16.5185 74.6873 17.1542 76.6206 18.4292C78.5539 19.6971 79.6825 21.3725 79.996 23.4518C80.0622 23.9716 79.8079 24.2316 79.261 24.2316H75.1994C74.7744 24.2316 74.5236 24.084 74.4435 23.7855C74.1613 22.9074 73.5552 22.2085 72.6321 21.6816C71.6985 21.1442 70.65 20.8773 69.4657 20.8773C68.1455 20.8773 67.09 21.1021 66.2888 21.5587C65.4911 22.0153 65.0975 22.6089 65.0975 23.357C65.0975 24.2 65.4842 24.8673 66.2401 25.3555C67.0064 25.8507 67.94 26.1598 69.0512 26.2828C70.1624 26.4162 71.3711 26.6164 72.6913 26.8904C74.022 27.1679 75.2307 27.491 76.3419 27.8633C77.4531 28.2356 78.3901 28.9275 79.1391 29.9356C79.895 30.9436 80.2747 32.2256 80.2747 33.7816C80.2747 36.0541 79.3237 37.8945 77.4287 39.2994C75.5338 40.6973 73.0292 41.4033 69.9325 41.4033H69.936H69.9394ZM101.3 26.1001C101.077 24.8462 100.545 23.7995 99.6876 22.939C98.6008 21.8502 97.1587 21.3058 95.3508 21.3058C93.5429 21.3058 92.0137 21.8432 90.7388 22.9144C89.5544 23.9049 88.8334 25.1869 88.5512 26.7639C92.0903 27.7966 97.2562 27.0379 101.297 26.0966L101.3 26.1001ZM95.5528 41.4033C91.7141 41.4033 88.6069 40.2653 86.2347 37.9823C83.873 35.7098 82.6887 32.7033 82.6887 28.9662C82.6887 25.2291 83.8417 22.2225 86.1477 19.9465C88.4537 17.6635 91.4738 16.5255 95.2219 16.5255C98.97 16.5255 101.799 17.646 104.035 19.8974C105.752 21.6114 106.811 23.7433 107.215 26.2863H107.198C107.313 26.9325 107.33 27.5437 107.264 28.3796C107.191 28.7098 107.013 28.91 106.724 28.9873V28.9943C101.792 30.5432 96.1276 31.8428 89.0946 31.2387C88.8194 31.2141 88.5826 31.1614 88.3875 31.1298C88.1924 31.0982 88.0461 31.0665 87.9521 31.0314C88.3178 31.1298 88.5895 31.3686 88.7602 31.7479C90.2023 34.9266 92.0067 36.6231 95.6956 36.6231C97.7927 36.6231 99.3219 36.0541 100.297 34.909C100.579 34.6245 100.886 34.477 101.217 34.477H105.989C106.24 34.477 106.431 34.5578 106.567 34.7229C106.703 34.8774 106.703 35.0811 106.578 35.3165C105.749 37.171 104.338 38.6497 102.352 39.756C100.37 40.8624 98.1062 41.4139 95.5528 41.4139V41.4033ZM129.917 17.0278C130.335 17.1507 130.519 17.4528 130.456 17.9024L129.868 21.5411C129.77 22.0364 129.481 22.233 128.99 22.1417C128.095 21.9802 127.179 21.8959 126.235 21.8959C124.172 21.8959 122.486 22.5456 121.191 23.8382C119.895 25.1307 119.24 26.8377 119.24 28.9486V39.9176C119.24 40.4129 118.996 40.6552 118.515 40.6552H114.053C113.562 40.6552 113.329 40.4093 113.343 39.9176V23.5431C113.343 22.3349 112.667 21.7308 111.312 21.7308C111.092 21.7308 110.636 21.787 109.943 21.8924C109.364 21.9591 109.075 21.7624 109.075 21.2988V17.8953C109.075 17.4387 109.267 17.1367 109.664 17.0172C110.706 16.7011 111.684 16.529 112.614 16.515C115.541 16.515 117.432 17.6916 118.282 20.0414C120.41 17.7092 123.086 16.529 126.308 16.515C127.649 16.529 128.854 16.7046 129.927 17.0172V17.0243L129.917 17.0278ZM153.45 37.9823C151.082 40.2653 147.96 41.4033 144.087 41.4033C140.213 41.4033 137.096 40.2653 134.724 37.9823C132.362 35.7098 131.177 32.7033 131.177 28.9662C131.177 25.2291 132.362 22.2225 134.724 19.9465C137.092 17.6635 140.217 16.5255 144.087 16.5255C147.957 16.5255 151.082 17.6635 153.45 19.9465C155.819 22.219 157.003 25.2291 157.003 28.9662C157.003 32.7033 155.819 35.7098 153.45 37.9823ZM139.012 34.2874C140.301 35.6185 141.993 36.2859 144.09 36.2859C146.187 36.2859 147.877 35.622 149.169 34.2874C150.458 32.9562 151.102 31.1825 151.102 28.9627C151.102 26.7429 150.458 24.9727 149.169 23.638C147.88 22.3068 146.187 21.6395 144.09 21.6395C141.993 21.6395 140.304 22.3033 139.012 23.638C137.723 24.9692 137.078 26.7499 137.078 28.9627C137.078 31.1754 137.723 32.9527 139.012 34.2874ZM14.9959 3.76875C16.0618 3.76875 16.9187 4.10944 17.5701 4.79083C18.225 5.47223 18.5524 6.37489 18.5524 7.4883V11.6293C18.5524 11.7944 18.4758 11.8787 18.3121 11.8787H16.8107C16.6505 11.8787 16.5704 11.7979 16.5739 11.6293V7.6007C16.5739 6.96496 16.3858 6.45568 16.0165 6.06932C15.6508 5.68297 15.1666 5.48979 14.5744 5.48979C14.0588 5.48979 13.6374 5.67243 13.3134 6.03771C12.9894 6.4065 12.8292 6.88418 12.8292 7.49181V11.6328C12.8292 11.7979 12.7491 11.8822 12.5889 11.8822H11.0875C10.9273 11.8822 10.8437 11.8014 10.8472 11.6328V7.60421C10.8472 6.96848 10.6834 6.45919 10.3525 6.07283C10.0216 5.68648 9.57572 5.4933 9.02186 5.4933C8.468 5.4933 7.98032 5.67594 7.62502 6.04122C7.26971 6.41002 7.09206 6.88769 7.09206 7.49533V11.6364C7.09206 11.8014 7.01194 11.8857 6.84822 11.8857H5.34688C5.18316 11.8857 5.10304 11.805 5.10652 11.6364V6.13254C5.10652 5.72511 4.8801 5.52491 4.42378 5.52491C4.35063 5.52491 4.19736 5.54247 3.96397 5.5776C3.7689 5.59867 3.67137 5.53194 3.67137 5.38091V4.23589C3.67137 4.08134 3.73755 3.983 3.86992 3.94085C4.15904 3.83548 4.48996 3.77928 4.8592 3.77226C5.75792 3.77226 6.37099 4.10593 6.69495 4.77327C7.3777 4.10242 8.29383 3.77226 9.44335 3.77226C10.5929 3.77226 11.4045 4.17267 12.0454 4.97348C12.7456 4.17267 13.7314 3.77226 14.9854 3.77226V3.76524L14.9959 3.76875ZM23.9308 12.1316C22.6419 12.1316 21.5969 11.7488 20.7992 10.9831C20.005 10.2174 19.6079 9.20934 19.6079 7.95193C19.6079 6.69452 19.998 5.68297 20.7713 4.92079C21.5481 4.1551 22.5618 3.77226 23.8193 3.77226C25.0768 3.77226 26.0278 4.14808 26.7802 4.90674C27.5361 5.66189 27.9088 6.65588 27.9088 7.88871C27.9088 8.04676 27.8984 8.26101 27.8775 8.54551C27.8461 8.68952 27.7521 8.76328 27.5988 8.76328H21.6004C21.7537 9.3112 22.0393 9.73619 22.4608 10.0558C22.8823 10.3719 23.3839 10.53 23.9726 10.53C24.6762 10.53 25.1918 10.3403 25.5157 9.95395C25.6133 9.85561 25.7143 9.80995 25.8257 9.80995H27.4316C27.5152 9.80995 27.5814 9.83805 27.6267 9.89073C27.6719 9.93991 27.6719 10.0102 27.6267 10.0874C27.3445 10.7091 26.8743 11.2043 26.2054 11.5802C25.5401 11.949 24.7772 12.1351 23.9203 12.1351H23.9273L23.9308 12.1316ZM21.5586 7.3443H25.8989C25.878 6.76476 25.6829 6.2906 25.3207 5.92532C24.9549 5.55652 24.4707 5.37739 23.8646 5.37739C23.2585 5.37739 22.7429 5.55652 22.3145 5.91829C21.886 6.28006 21.6352 6.75423 21.5586 7.34781V7.3443ZM30.1486 2.29357C29.8003 2.29357 29.5077 2.18118 29.2708 1.95639C29.034 1.73511 28.919 1.46466 28.919 1.14504C28.919 0.825418 29.0374 0.558481 29.2778 0.33018C29.5181 0.105391 29.8073 -0.00700378 30.1486 -0.00700378C30.49 -0.00700378 30.7722 0.105391 31.016 0.33018C31.2633 0.554968 31.3818 0.825418 31.3818 1.14504C31.3818 1.46466 31.2598 1.7316 31.016 1.95639C30.7687 2.18118 30.4796 2.29357 30.1486 2.29357ZM27.9576 15.8968C27.8043 15.8968 27.7172 15.8195 27.6998 15.665L27.5082 14.4884C27.4804 14.3338 27.5465 14.246 27.7137 14.2249C28.2641 14.1758 28.6438 14.0283 28.8493 13.7964C29.0583 13.5611 29.1594 13.1642 29.1594 12.6058V4.2675C29.1594 4.09891 29.2395 4.01812 29.4067 4.01812H30.9045C31.0683 4.01812 31.1484 4.09891 31.1449 4.2675V12.3564C31.1449 14.7167 30.0825 15.9003 27.9611 15.9003L27.9576 15.8968ZM39.8429 10.9796C39.0452 11.7452 38.0002 12.1281 36.6974 12.1281C35.3946 12.1281 34.3461 11.7452 33.5484 10.9796C32.7542 10.2139 32.3571 9.20583 32.3571 7.94842C32.3571 6.691 32.7542 5.67945 33.5484 4.91728C34.3461 4.15159 35.3946 3.76875 36.6974 3.76875C38.0002 3.76875 39.0487 4.15159 39.8429 4.91728C40.6406 5.68297 41.0377 6.691 41.0377 7.94842C41.0377 9.20583 40.6406 10.2174 39.8429 10.9796ZM34.9906 9.73619C35.4225 10.1858 35.9938 10.407 36.6974 10.407C37.4011 10.407 37.9723 10.1823 38.4043 9.73619C38.8362 9.29012 39.0557 8.69303 39.0557 7.9449C39.0557 7.19678 38.8397 6.6032 38.4043 6.15362C37.9723 5.70404 37.4011 5.48276 36.6974 5.48276C35.9938 5.48276 35.4225 5.70404 34.9906 6.15362C34.5586 6.59968 34.3392 7.20029 34.3392 7.9449C34.3392 8.68952 34.5586 9.28661 34.9906 9.73619ZM48.6036 3.93383C48.743 3.97597 48.8057 4.07432 48.7848 4.22886L48.5897 5.45466C48.5584 5.61974 48.4573 5.68648 48.2936 5.65487C47.9906 5.60218 47.684 5.57408 47.367 5.57408C46.6739 5.57408 46.1095 5.79536 45.6741 6.22738C45.2387 6.65939 45.0192 7.23541 45.0192 7.9449V11.6328C45.0192 11.7979 44.9391 11.8822 44.7754 11.8822H43.2741C43.1069 11.8822 43.0302 11.8014 43.0337 11.6328V6.12903C43.0337 5.7216 42.8073 5.5214 42.351 5.5214C42.2778 5.5214 42.1245 5.53896 41.8912 5.57408C41.6961 5.59516 41.5986 5.52842 41.5986 5.37739V4.23237C41.5986 4.07783 41.6647 3.97949 41.7936 3.93734C42.142 3.83197 42.4729 3.77577 42.7829 3.76875C43.7687 3.76875 44.4027 4.16564 44.6848 4.9524C45.3989 4.16564 46.2976 3.77226 47.381 3.76875C47.8303 3.77577 48.2379 3.83197 48.5967 3.93734L48.6036 3.93383Z" fill="#FF4B00"/>
</svg>
