<svg width="143" height="145" viewBox="0 0 143 145" fill="none" xmlns="http://www.w3.org/2000/svg">
<path d="M49.808 23.1563H133.761C138.506 23.1563 142.352 27.0025 142.352 31.7469V135.875C142.352 140.62 138.506 144.466 133.761 144.466H49.808C45.0635 144.466 41.2173 140.62 41.2173 135.875V31.7469C41.2173 27.0025 45.0635 23.1563 49.808 23.1563Z" stroke="#293E8F" stroke-width="1.06944"/>
<path d="M133.797 32.2554H49.7695V135.651H133.797V32.2554Z" fill="#FFD0C0"/>
<path d="M109.117 14.8491H106.013C106.013 14.6505 106.038 14.4518 106.038 14.2532C106.038 6.38178 99.6562 0.000244141 91.7848 0.000244141C83.9134 0.000244141 77.5319 6.38178 77.5319 14.2532C77.5319 14.4518 77.5567 14.6505 77.5567 14.8491H74.4528C69.8467 14.8491 66.1221 18.5861 66.1221 23.1799V31.2996C66.1221 35.9057 69.8591 39.6303 74.4528 39.6303H109.117C113.723 39.6303 117.447 35.8933 117.447 31.2996V23.1799C117.447 18.5737 113.71 14.8491 109.117 14.8491ZM91.7848 5.37613C93.7092 5.37613 95.2735 6.94047 95.2735 8.86486C95.2735 10.7893 93.7092 12.3536 91.7848 12.3536C89.8604 12.3536 88.296 10.7893 88.296 8.86486C88.296 6.94047 89.8604 5.37613 91.7848 5.37613Z" fill="#FB7447"/>
<rect x="60.5283" y="44.99" width="63.5053" height="6.94589" fill="#293E8F"/>
<rect x="58.5439" y="61.8586" width="36.714" height="4.96135" fill="#FB7447"/>
<rect x="58.5439" y="73.7659" width="36.714" height="4.96135" fill="#FB7447"/>
<rect x="58.5439" y="85.6729" width="36.714" height="4.96135" fill="#FB7447"/>
<rect x="58.5439" y="97.5803" width="36.714" height="4.96135" fill="#FB7447"/>
<rect x="102.203" y="61.8586" width="6.94589" height="4.96135" fill="#FB7447"/>
<rect x="102.203" y="73.7659" width="6.94589" height="4.96135" fill="#FB7447"/>
<rect x="102.203" y="85.6729" width="6.94589" height="4.96135" fill="#FB7447"/>
<rect x="102.203" y="97.5803" width="6.94589" height="4.96135" fill="#FB7447"/>
<rect x="118.08" y="61.8586" width="6.94589" height="4.96135" fill="#FB7447"/>
<rect x="118.08" y="73.7659" width="6.94589" height="4.96135" fill="#FB7447"/>
<rect x="118.08" y="85.6729" width="6.94589" height="4.96135" fill="#FB7447"/>
<rect x="118.08" y="97.5803" width="6.94589" height="4.96135" fill="#FB7447"/>
<rect x="115.156" y="61.8584" width="0.99227" height="4.96135" transform="rotate(37.6416 115.156 61.8584)" fill="#293E8F"/>
<rect width="0.99227" height="4.96135" transform="matrix(-0.791847 0.61072 0.61072 0.791847 112.912 61.8584)" fill="#293E8F"/>
<rect x="115.156" y="73.7659" width="0.99227" height="4.96135" transform="rotate(37.6416 115.156 73.7659)" fill="#293E8F"/>
<rect width="0.99227" height="4.96135" transform="matrix(-0.791847 0.61072 0.61072 0.791847 112.912 73.7659)" fill="#293E8F"/>
<rect x="115.156" y="85.6731" width="0.99227" height="4.96135" transform="rotate(37.6416 115.156 85.6731)" fill="#293E8F"/>
<rect width="0.99227" height="4.96135" transform="matrix(-0.791847 0.61072 0.61072 0.791847 112.912 85.6731)" fill="#293E8F"/>
<rect x="115.156" y="97.5801" width="0.99227" height="4.96135" transform="rotate(37.6416 115.156 97.5801)" fill="#293E8F"/>
<rect width="0.99227" height="4.96135" transform="matrix(-0.791847 0.61072 0.61072 0.791847 112.912 97.5801)" fill="#293E8F"/>
<rect x="0.534722" y="62.3934" width="51.5209" height="21.7528" rx="3.74306" fill="#FFF9F4" stroke="#FB7447" stroke-width="1.06944"/>
<rect x="0.534722" y="91.1692" width="51.5209" height="21.7528" rx="3.74306" fill="#FFF9F4" stroke="#FB7447" stroke-width="1.06944"/>
<path d="M12.7397 98.3033C9.95878 94.9115 4.44511 96.8565 6.34194 101.84C6.51877 102.306 6.72774 102.74 6.96886 103.158H7.20999L7.93335 102.209C8.0298 102.081 8.2227 102 8.39952 102.033C8.57634 102.049 8.72102 102.161 8.78532 102.306L9.34794 103.72L9.91056 101.92C9.97486 101.727 10.1678 101.615 10.3928 101.615C10.6179 101.615 10.7947 101.759 10.8429 101.952L11.293 103.849L11.9038 99.2034C11.936 98.9784 12.1289 98.8337 12.3861 98.8337C12.6433 98.8337 12.8362 98.9945 12.8683 99.2034L13.5113 105.215L13.9936 102.692C14.0257 102.499 14.2025 102.37 14.4276 102.354C14.6526 102.338 14.8616 102.451 14.9259 102.627L15.4725 104.026L16.019 103.045C16.0994 102.901 16.244 102.82 16.4209 102.804C16.5977 102.804 16.7745 102.869 16.8549 102.997L17.4818 103.881L18.157 103.27C18.2534 103.19 18.3659 103.142 18.5106 103.142C18.7517 102.724 18.9607 102.274 19.1375 101.824C21.0344 96.8404 15.5207 94.8954 12.7397 98.2872V98.3033ZM17.0478 104.396L16.4691 103.576L15.8904 104.653C15.81 104.814 15.6332 104.91 15.4242 104.894C15.2313 104.894 15.0706 104.781 15.0063 104.621L14.5401 103.431L13.9453 106.518C13.9132 106.726 13.7042 106.871 13.4792 106.871C13.222 106.871 13.0291 106.71 13.013 106.501L12.4022 100.795L11.8717 104.894C11.8395 105.103 11.6627 105.248 11.4216 105.264C11.1644 105.264 10.9715 105.135 10.9233 104.942L10.3928 102.74L9.87841 104.412C9.83019 104.589 9.65336 104.717 9.42831 104.717C9.20326 104.717 9.02644 104.621 8.94607 104.444L8.31915 102.869L7.72438 103.656C7.64401 103.753 7.53148 103.817 7.3868 103.833C8.75317 105.858 10.7947 107.386 12.7719 108.575C14.4758 107.546 16.244 106.276 17.5622 104.637C17.514 104.637 17.4657 104.637 17.4336 104.637C17.2889 104.637 17.1603 104.556 17.0799 104.444L17.0478 104.396Z" fill="#293E8F"/>
<path d="M8.88076 80.889C8.48151 80.6999 8.1453 80.3426 7.93517 79.9434C7.61997 79.313 7.57794 78.5985 7.47288 77.9051C7.26274 76.5603 6.59032 75.3625 6.35918 74.0597C6.25411 73.4503 6.29614 72.7989 6.61133 72.2525C6.94755 71.6852 7.55693 71.307 8.16631 70.9707C8.64961 70.6976 9.55318 70.2353 10.0995 70.6135C10.5828 70.9287 10.7299 71.8113 10.6459 72.3156C10.5618 72.8619 10.2886 73.3662 10.0365 73.8706C9.78433 74.3749 9.55318 74.9212 9.57419 75.4676C9.57419 76.119 9.93142 76.7073 10.2676 77.2537C10.6038 77.8 11.0031 78.3464 11.1502 78.9768C11.3813 79.9644 10.7719 80.91 9.67926 81.0361C9.40609 81.0571 9.13292 81.0151 8.90177 80.889H8.88076Z" fill="#293E8F"/>
<path d="M10.4353 69.7521C10.3723 69.9623 10.2042 70.1514 9.97306 70.2144C9.74191 70.2775 9.46874 70.1514 9.32165 69.9413C9.00645 69.542 9.06949 68.3443 9.7209 68.3232C10.3303 68.3232 10.5824 69.2898 10.4353 69.7521Z" fill="#293E8F"/>
<path d="M8.79648 70.4458C9.00661 70.3828 9.13268 70.1516 9.04863 69.9625L8.81749 69.3321C8.75445 69.122 8.5233 69.0169 8.29216 69.0799C8.08203 69.143 7.95595 69.3741 8.04 69.5632L8.27115 70.1936C8.33419 70.4038 8.56533 70.5088 8.79648 70.4458Z" fill="#293E8F"/>
<path d="M7.93305 70.8242C8.10115 70.7612 8.18521 70.5931 8.12217 70.446L7.93305 69.9837C7.87001 69.8366 7.68089 69.7736 7.51278 69.8366C7.34468 69.8996 7.26062 70.0677 7.32366 70.2148L7.51278 70.6771C7.57582 70.8242 7.76494 70.8873 7.93305 70.8242Z" fill="#293E8F"/>
<path d="M7.30463 71.2445C7.45173 71.1604 7.49375 70.9713 7.4097 70.8662L7.13653 70.488C7.05247 70.3619 6.86336 70.3409 6.71627 70.4249C6.56917 70.509 6.52714 70.6981 6.6112 70.8032L6.88437 71.1814C6.96842 71.3075 7.15754 71.3285 7.30463 71.2445Z" fill="#293E8F"/>
<path d="M6.67471 71.7484C6.8218 71.6433 6.84281 71.4752 6.75876 71.3701L6.48559 71.0339C6.40154 70.9289 6.21242 70.9079 6.08634 71.0129C5.93925 71.118 5.91823 71.2861 6.00229 71.3912L6.27546 71.7274C6.35951 71.8324 6.54863 71.8535 6.67471 71.7484Z" fill="#293E8F"/>
<path d="M14.9528 77.4012C15.3521 77.2121 15.6883 76.8548 15.8984 76.4556C16.2136 75.8252 16.2557 75.1107 16.3607 74.4173C16.5709 73.0725 17.2433 71.8747 17.4744 70.5719C17.5795 69.9625 17.5375 69.3111 17.2223 68.7648C16.886 68.1974 16.2767 67.8192 15.6673 67.483C15.184 67.2098 14.2804 66.7475 13.7341 67.1257C13.2508 67.4409 13.1037 68.3235 13.1877 68.8278C13.2718 69.3741 13.5449 69.8785 13.7971 70.3828C14.0493 70.8871 14.2804 71.4334 14.2594 71.9798C14.2594 72.6312 13.9022 73.2196 13.566 73.7659C13.2087 74.3122 12.8305 74.8586 12.6834 75.489C12.4523 76.4766 13.0616 77.4222 14.1543 77.5483C14.4275 77.5693 14.7007 77.5273 14.9318 77.4012H14.9528Z" fill="#293E8F"/>
<path d="M13.3768 66.2643C13.4399 66.4745 13.608 66.6636 13.8391 66.7266C14.0703 66.7897 14.3435 66.6636 14.4905 66.4535C14.8057 66.0542 14.7427 64.8565 14.0913 64.8354C13.4819 64.8354 13.2298 65.8021 13.3768 66.2643Z" fill="#293E8F"/>
<path d="M15.0373 66.9575C14.8271 66.8945 14.7011 66.6633 14.7851 66.4742L15.0163 65.8438C15.0793 65.6337 15.3104 65.5286 15.5416 65.5917C15.7517 65.6547 15.8778 65.8858 15.7937 66.075L15.5626 66.7054C15.4996 66.9155 15.2684 67.0206 15.0373 66.9575Z" fill="#293E8F"/>
<path d="M15.877 67.3152C15.7089 67.2521 15.6249 67.084 15.6879 66.9369L15.877 66.4747C15.9401 66.3276 16.1292 66.2645 16.2973 66.3276C16.4654 66.3906 16.5495 66.5587 16.4864 66.7058L16.2973 67.1681C16.2343 67.3152 16.0451 67.3782 15.877 67.3152Z" fill="#293E8F"/>
<path d="M16.5288 67.7354C16.3817 67.6514 16.3396 67.4623 16.4237 67.3572L16.6969 66.979C16.7809 66.8529 16.97 66.8319 17.1171 66.9159C17.2642 67 17.3063 67.1891 17.2222 67.2941L16.949 67.6724C16.865 67.7985 16.6759 67.8195 16.5288 67.7354Z" fill="#293E8F"/>
<path d="M17.1391 68.2603C16.992 68.1553 16.971 67.9872 17.055 67.8821L17.3282 67.5459C17.4122 67.4408 17.6014 67.4198 17.7274 67.5249C17.8745 67.63 17.8955 67.7981 17.8115 67.9031L17.5383 68.2393C17.4543 68.3444 17.2652 68.3654 17.1391 68.2603Z" fill="#293E8F"/>
<path d="M27.2704 76.2378C26.8067 76.2378 26.3554 76.1657 25.9167 76.0216C25.4843 75.8775 25.1302 75.6832 24.8545 75.4388L25.2869 74.6961C25.5063 74.9029 25.7914 75.0722 26.1424 75.2038C26.4933 75.3354 26.8693 75.4012 27.2704 75.4012C27.7592 75.4012 28.1384 75.2978 28.4079 75.091C28.6836 74.8779 28.8215 74.5927 28.8215 74.2355C28.8215 73.8908 28.6899 73.6151 28.4267 73.4083C28.1697 73.1952 27.7592 73.0887 27.1952 73.0887H26.6688V72.4306L28.6241 70.0241L28.7557 70.4001H25.1553V69.5823H29.4983V70.2215L27.5524 72.6186L27.0636 72.3272H27.3738C28.1697 72.3272 28.7651 72.5058 29.1599 72.863C29.561 73.2203 29.7615 73.6746 29.7615 74.2261C29.7615 74.5959 29.6707 74.9343 29.4889 75.2414C29.3072 75.5484 29.0314 75.7929 28.6617 75.9746C28.2982 76.1501 27.8344 76.2378 27.2704 76.2378Z" fill="#FB7447"/>
<path d="M33.1388 76.2378C32.6249 76.2378 32.1643 76.1062 31.7569 75.843C31.3558 75.5798 31.0362 75.1975 30.7981 74.6961C30.5662 74.1948 30.4503 73.5869 30.4503 72.8724C30.4503 72.158 30.5662 71.5501 30.7981 71.0488C31.0362 70.5474 31.3558 70.1651 31.7569 69.9019C32.1643 69.6387 32.6249 69.5071 33.1388 69.5071C33.6464 69.5071 34.1039 69.6387 34.5113 69.9019C34.9186 70.1651 35.2382 70.5474 35.4701 71.0488C35.702 71.5501 35.8179 72.158 35.8179 72.8724C35.8179 73.5869 35.702 74.1948 35.4701 74.6961C35.2382 75.1975 34.9186 75.5798 34.5113 75.843C34.1039 76.1062 33.6464 76.2378 33.1388 76.2378ZM33.1388 75.4012C33.4835 75.4012 33.7843 75.3072 34.0412 75.1192C34.3044 74.9311 34.5081 74.6491 34.6523 74.2731C34.8027 73.8971 34.8779 73.4302 34.8779 72.8724C34.8779 72.3147 34.8027 71.8478 34.6523 71.4718C34.5081 71.0958 34.3044 70.8137 34.0412 70.6257C33.7843 70.4377 33.4835 70.3437 33.1388 70.3437C32.7941 70.3437 32.4902 70.4377 32.2269 70.6257C31.9637 70.8137 31.7569 71.0958 31.6065 71.4718C31.4624 71.8478 31.3903 72.3147 31.3903 72.8724C31.3903 73.4302 31.4624 73.8971 31.6065 74.2731C31.7569 74.6491 31.9637 74.9311 32.2269 75.1192C32.4902 75.3072 32.7941 75.4012 33.1388 75.4012Z" fill="#FB7447"/>
<path d="M39.2208 76.2378C38.7069 76.2378 38.2463 76.1062 37.8389 75.843C37.4379 75.5798 37.1182 75.1975 36.8801 74.6961C36.6482 74.1948 36.5323 73.5869 36.5323 72.8724C36.5323 72.158 36.6482 71.5501 36.8801 71.0488C37.1182 70.5474 37.4379 70.1651 37.8389 69.9019C38.2463 69.6387 38.7069 69.5071 39.2208 69.5071C39.7284 69.5071 40.1859 69.6387 40.5933 69.9019C41.0006 70.1651 41.3202 70.5474 41.5521 71.0488C41.784 71.5501 41.8999 72.158 41.8999 72.8724C41.8999 73.5869 41.784 74.1948 41.5521 74.6961C41.3202 75.1975 41.0006 75.5798 40.5933 75.843C40.1859 76.1062 39.7284 76.2378 39.2208 76.2378ZM39.2208 75.4012C39.5655 75.4012 39.8663 75.3072 40.1233 75.1192C40.3865 74.9311 40.5901 74.6491 40.7343 74.2731C40.8847 73.8971 40.9599 73.4302 40.9599 72.8724C40.9599 72.3147 40.8847 71.8478 40.7343 71.4718C40.5901 71.0958 40.3865 70.8137 40.1233 70.6257C39.8663 70.4377 39.5655 70.3437 39.2208 70.3437C38.8761 70.3437 38.5722 70.4377 38.309 70.6257C38.0458 70.8137 37.8389 71.0958 37.6885 71.4718C37.5444 71.8478 37.4723 72.3147 37.4723 72.8724C37.4723 73.4302 37.5444 73.8971 37.6885 74.2731C37.8389 74.6491 38.0458 74.9311 38.309 75.1192C38.5722 75.3072 38.8761 75.4012 39.2208 75.4012Z" fill="#FB7447"/>
<path d="M45.3028 76.2378C44.7889 76.2378 44.3283 76.1062 43.921 75.843C43.5199 75.5798 43.2003 75.1975 42.9621 74.6961C42.7302 74.1948 42.6143 73.5869 42.6143 72.8724C42.6143 72.158 42.7302 71.5501 42.9621 71.0488C43.2003 70.5474 43.5199 70.1651 43.921 69.9019C44.3283 69.6387 44.7889 69.5071 45.3028 69.5071C45.8105 69.5071 46.2679 69.6387 46.6753 69.9019C47.0827 70.1651 47.4023 70.5474 47.6341 71.0488C47.866 71.5501 47.982 72.158 47.982 72.8724C47.982 73.5869 47.866 74.1948 47.6341 74.6961C47.4023 75.1975 47.0827 75.5798 46.6753 75.843C46.2679 76.1062 45.8105 76.2378 45.3028 76.2378ZM45.3028 75.4012C45.6475 75.4012 45.9483 75.3072 46.2053 75.1192C46.4685 74.9311 46.6722 74.6491 46.8163 74.2731C46.9667 73.8971 47.0419 73.4302 47.0419 72.8724C47.0419 72.3147 46.9667 71.8478 46.8163 71.4718C46.6722 71.0958 46.4685 70.8137 46.2053 70.6257C45.9483 70.4377 45.6475 70.3437 45.3028 70.3437C44.9582 70.3437 44.6542 70.4377 44.391 70.6257C44.1278 70.8137 43.921 71.0958 43.7706 71.4718C43.6264 71.8478 43.5544 72.3147 43.5544 72.8724C43.5544 73.4302 43.6264 73.8971 43.7706 74.2731C43.921 74.6491 44.1278 74.9311 44.391 75.1192C44.6542 75.3072 44.9582 75.4012 45.3028 75.4012Z" fill="#FB7447"/>
<path d="M26.3671 105.931V99.7264L26.7713 100.168H24.8818V99.3503H27.2978V105.931H26.3671Z" fill="#FB7447"/>
<path d="M28.4457 105.931V105.291L31.1248 102.706C31.363 102.481 31.5385 102.283 31.6513 102.114C31.7703 101.939 31.8487 101.779 31.8863 101.635C31.9301 101.484 31.9521 101.34 31.9521 101.202C31.9521 100.864 31.833 100.597 31.5949 100.403C31.3567 100.209 31.0089 100.112 30.5514 100.112C30.2005 100.112 29.884 100.171 29.602 100.29C29.32 100.403 29.0755 100.582 28.8687 100.826L28.2295 100.272C28.4802 99.952 28.8155 99.7076 29.2353 99.5384C29.6615 99.3629 30.1284 99.2751 30.636 99.2751C31.0935 99.2751 31.4915 99.3504 31.8299 99.5008C32.1683 99.6449 32.4284 99.8548 32.6101 100.131C32.7981 100.406 32.8921 100.732 32.8921 101.108C32.8921 101.321 32.8639 101.531 32.8075 101.738C32.7511 101.945 32.6446 102.164 32.4879 102.396C32.3312 102.628 32.1056 102.888 31.8111 103.176L29.4234 105.479L29.1977 105.113H33.1741V105.931H28.4457Z" fill="#FB7447"/>
<path d="M35.8835 106.006C35.4198 106.006 34.9685 105.934 34.5299 105.79C34.0974 105.646 33.7434 105.451 33.4676 105.207L33.9 104.464C34.1194 104.671 34.4045 104.84 34.7555 104.972C35.1064 105.103 35.4793 105.169 35.8741 105.169C36.3755 105.169 36.7609 105.063 37.0304 104.85C37.2999 104.637 37.4346 104.351 37.4346 103.994C37.4346 103.75 37.3751 103.537 37.256 103.355C37.1369 103.173 36.9301 103.035 36.6356 102.941C36.3473 102.841 35.9493 102.791 35.4417 102.791H33.947L34.2948 99.3503H38.008V100.168H34.6427L35.1315 99.7076L34.8589 102.424L34.3701 101.973H35.6391C36.2971 101.973 36.8267 102.058 37.2278 102.227C37.6289 102.396 37.9203 102.631 38.102 102.932C38.2838 103.226 38.3746 103.568 38.3746 103.957C38.3746 104.333 38.2838 104.677 38.102 104.991C37.9203 105.298 37.6445 105.545 37.2748 105.733C36.9113 105.915 36.4476 106.006 35.8835 106.006Z" fill="#FB7447"/>
</svg>
