<svg width="170" height="146" viewBox="0 0 170 146" fill="none" xmlns="http://www.w3.org/2000/svg">
<path d="M160.5 125C161.328 125 162 124.328 162 123.5C162 122.672 161.328 122 160.5 122C159.672 122 159 122.672 159 123.5C159 124.328 159.672 125 160.5 125Z" fill="#5B688C"/>
<path d="M57.9111 107.017L64.3817 114.132L72.1948 115.837L79.3553 114.095L87.0939 107.666V97.4382C86.7769 97.7903 86.4412 98.0497 86.0869 98.309C85.9937 98.4017 85.9191 98.4758 85.8259 98.5314C85.3038 98.9205 84.8189 99.2725 84.2409 99.5875C84.1103 99.6801 83.9798 99.7172 83.8493 99.8098C83.4577 100.032 83.0102 100.199 82.5813 100.421C82.4134 100.458 82.1897 100.551 81.9659 100.644C81.5743 100.773 81.1827 100.903 80.7352 100.996C80.5114 101.088 80.2504 101.125 79.9893 101.218C79.5418 101.311 79.1129 101.385 78.6654 101.44C78.4043 101.477 78.0873 101.533 77.8263 101.57C77.3041 101.607 76.7261 101.663 76.204 101.7C75.9429 101.737 75.6818 101.737 75.4208 101.792C74.5444 101.829 73.6679 101.829 72.6983 101.829H72.3813C71.4116 101.829 70.4793 101.792 69.6029 101.737H69.4351C68.5959 101.7 67.85 101.644 67.1042 101.57C66.9736 101.533 66.8431 101.533 66.7126 101.477C66.0972 101.385 65.4819 101.311 64.9038 101.162C64.7733 101.125 64.6427 101.07 64.4563 101.033C63.9341 100.903 63.4493 100.773 62.9645 100.588C62.834 100.495 62.6475 100.458 62.517 100.421C62.0321 100.199 61.51 99.9766 61.0252 99.7172C60.9879 99.6801 60.8947 99.6245 60.8014 99.6245C60.2793 99.2725 59.7385 98.9205 59.2164 98.5314C59.1232 98.4943 59.0859 98.4387 58.9927 98.3646C58.6384 98.1052 58.2841 97.7903 57.9298 97.4382V107.017H57.9111Z" fill="#FFD0C0"/>
<path d="M108.295 31.2932C108.556 24.0858 105.871 16.8229 101.004 11.3756C93.9552 3.51978 87.0185 0.981445 72.5297 0.981445C58.0409 0.981445 51.0482 3.51978 43.9623 11.3756C39.1327 16.8043 36.4662 24.0858 36.7086 31.3488L38.0698 46.2083L38.219 48.0611C38.219 48.0611 38.7038 48.8948 39.5616 48.8207C40.4193 48.7281 40.8669 48.1166 40.9042 47.4496V32.127C40.9042 23.845 46.9272 17.249 54.8522 17.249H90.1512C98.0576 17.249 104.099 23.9747 104.099 32.2567V47.357C104.099 47.394 104.099 47.4126 104.099 47.4311C104.137 48.1166 104.565 48.7095 105.442 48.8022C106.3 48.8948 106.784 48.0425 106.784 48.0425L106.934 46.1897L108.295 31.2747V31.2932Z" fill="#FE776B"/>
<path d="M111.092 45.5228H110.868C109.544 45.4116 108.053 46.3936 106.785 48.2649C106.766 48.302 106.729 48.302 106.71 48.339C106.654 48.3946 106.598 48.4502 106.505 48.5243C106.505 48.5243 106.486 48.5243 106.468 48.5428C106.262 48.6911 106.001 48.8208 105.666 48.8022C105.666 48.8022 105.628 48.8022 105.61 48.8022C105.61 48.8022 105.591 48.8022 105.572 48.8022C105.535 48.8022 105.535 48.8022 105.498 48.7837C105.405 48.7837 105.311 48.7837 105.218 48.7466C105.144 48.7281 105.088 48.6911 105.013 48.654C105.013 48.654 104.994 48.654 104.976 48.654C104.51 48.4317 104.211 47.9685 104.211 47.4497V47.3756V32.2753C104.211 24.16 98.412 17.5455 90.748 17.2861H54.4794C46.8154 17.5455 41.0162 24.0118 41.0162 32.127V47.4497C41.0162 47.6164 40.9789 47.7832 40.9229 47.9314C40.9229 47.9314 40.9229 47.9685 40.9043 47.9685C40.8483 48.0796 40.7924 48.2093 40.6992 48.302C40.6619 48.339 40.6246 48.3761 40.5686 48.4131C40.494 48.4873 40.4008 48.5614 40.3076 48.617C40.2703 48.617 40.233 48.654 40.1957 48.6725C40.1397 48.6911 40.0838 48.7281 40.0279 48.7466C39.9346 48.7652 39.8414 48.7837 39.7668 48.7837C39.7481 48.7837 39.7295 48.7837 39.6922 48.8022C39.6922 48.8022 39.6736 48.8022 39.6549 48.8022C39.4871 48.8022 39.3006 48.8022 39.1328 48.7281C39.0955 48.7281 39.0769 48.7096 39.0582 48.6911C38.8344 48.5984 38.6293 48.4687 38.4801 48.2464C37.1562 46.2639 35.5525 45.2819 34.1727 45.5043C31.9164 45.8933 31.0772 50.4327 32.1215 56.8619C32.7928 61.0307 33.7811 65.4218 36.2052 66.2927C36.7087 66.515 37.1376 66.515 37.5291 66.4594C37.5851 66.4594 37.9767 66.3482 37.9767 66.3482C38.0886 66.2926 38.2564 66.2371 38.4242 66.2371C38.648 66.2371 38.8717 66.3482 39.0955 66.4594C39.4311 66.6262 39.7109 66.9597 39.7668 67.3302C41.4264 74.9082 43.5149 80.5962 46.0509 84.3389C48.9785 88.6189 51.6264 92.3986 53.9945 95.1407C58.8614 100.736 62.6095 102.163 72.4366 102.163H72.8281C82.5992 102.163 86.4032 100.736 91.2701 95.1407C93.4705 92.6209 95.7454 89.3785 99.2138 84.3389C101.75 80.6148 103.857 74.9082 105.498 67.3302C105.554 66.9411 105.834 66.6262 106.169 66.4594C106.505 66.2371 106.878 66.2371 107.269 66.3482L107.661 66.4594C108.108 66.515 108.537 66.515 109.041 66.2927C111.241 65.4774 112.08 61.5124 112.789 56.8619C113.889 50.2289 113.236 45.8378 111.073 45.5043L111.092 45.5228Z" fill="#FFD0C0"/>
<path d="M1 145.074C1 145.074 1 127.064 19.6658 121.71C38.3315 116.355 49.4079 113.187 58.0229 106.313C58.0229 106.313 60.3538 115.262 72.5117 115.262C84.6696 115.262 87.1124 106.313 87.1124 106.313C95.7274 113.187 106.804 116.355 125.47 121.71C144.135 127.064 144.135 145.074 144.135 145.074" stroke="#5A69A6" stroke-linecap="round" stroke-linejoin="round"/>
<rect x="112.405" y="94.4048" width="57.1905" height="37.1905" rx="2.83333" fill="#FFFEFA" stroke="#FB7447" stroke-width="0.809524"/>
<path d="M133.445 100H119.555C118.696 100 118 100.675 118 101.508V115.492C118 116.325 118.696 117 119.555 117H133.445C134.304 117 135 116.325 135 115.492V101.508C135 100.675 134.304 100 133.445 100Z" fill="#FE776B"/>
<path d="M129.756 108.599C131.296 107.042 131.296 104.518 129.756 102.962C128.216 101.405 125.72 101.405 124.18 102.962C122.64 104.518 122.64 107.042 124.18 108.599C125.72 110.156 128.216 110.156 129.756 108.599Z" fill="white"/>
<path d="M132 115H121C121 112.237 123.073 110 125.633 110H127.361C129.921 110 131.994 112.237 131.994 115H132Z" fill="white"/>
<path d="M162 102H144V104H162V102Z" fill="#5B688C"/>
<path d="M162 107H144V108H162V107Z" fill="#5B688C"/>
<path d="M157 111H144V113H157V111Z" fill="#5B688C"/>
<path d="M161.157 126H120.843C119.275 126 118 124.878 118 123.5C118 122.117 119.269 121 120.843 121H161.157C162.725 121 164 122.122 164 123.5C164 124.883 162.731 126 161.157 126Z" fill="#FFD0C0"/>
<path d="M123 125C123.552 125 124 124.328 124 123.5C124 122.672 123.552 122 123 122C122.448 122 122 122.672 122 123.5C122 124.328 122.448 125 123 125Z" fill="#5B688C"/>
<path d="M130.5 125C131.328 125 132 124.328 132 123.5C132 122.672 131.328 122 130.5 122C129.672 122 129 122.672 129 123.5C129 124.328 129.672 125 130.5 125Z" fill="#5B688C"/>
<path d="M138 125C138.552 125 139 124.328 139 123.5C139 122.672 138.552 122 138 122C137.448 122 137 122.672 137 123.5C137 124.328 137.448 125 138 125Z" fill="#5B688C"/>
<path d="M145.5 125C146.328 125 147 124.328 147 123.5C147 122.672 146.328 122 145.5 122C144.672 122 144 122.672 144 123.5C144 124.328 144.672 125 145.5 125Z" fill="#5B688C"/>
<path d="M152.5 125C153.328 125 154 124.328 154 123.5C154 122.672 153.328 122 152.5 122C151.672 122 151 122.672 151 123.5C151 124.328 151.672 125 152.5 125Z" fill="#5B688C"/>
</svg>
