<svg width="199" height="138" viewBox="0 0 199 138" fill="none" xmlns="http://www.w3.org/2000/svg">
<g opacity="0.7">
<g filter="url(#filter0_d_719_557)">
<path fill-rule="evenodd" clip-rule="evenodd" d="M15.6295 55.438C16.0032 54.9019 31.5346 36.6766 37.7217 30.0537C43.9114 23.4307 51.4533 16.0174 54.6184 12.9479C60.1921 7.54393 67.0616 9.38404 67.0616 9.38404C103.952 16.6351 174.297 39.6338 180.261 41.852C186.226 44.0702 185.049 49.8678 185.049 49.8678C185.765 51.6766 185.561 53.3853 185.561 53.3853C185.561 53.3853 183.719 58.8161 179.9 65.8596C178.674 68.12 176.326 72.0431 173.702 76.3289L173.912 76.291L167.424 89.4681C167.424 89.4681 155.254 108.728 150.513 115.564C145.772 122.401 140.193 119.974 140.193 119.974C140.193 119.974 99.0945 108.415 92.7585 106.798C86.4201 105.183 86.4135 101.125 86.4135 101.125L85.4674 92.3541C83.9503 91.8971 82.4447 91.4399 80.952 90.9833C80.8256 91.1638 79.3414 93.279 76.7091 96.8085C73.9546 100.499 67.0067 98.2499 67.0067 98.2499C67.0067 98.2499 29.8978 84.6582 26.1204 83.2165C22.3429 81.7748 21.789 78.9806 21.789 78.9806L19.7335 70.4774L20.6983 70.8004C19.0353 70.1865 17.8481 69.7382 17.1964 69.4847C11.8781 67.2321 11.5086 60.2344 15.6295 55.438Z" fill="#F8D1C2"/>
</g>
<g clip-path="url(#clip0_719_557)">
<path d="M85.3836 92.2567L86.3402 101.125C86.3402 101.125 86.3468 105.183 92.6852 106.798C99.0212 108.415 140.119 119.974 140.119 119.974C140.119 119.974 145.699 122.401 150.44 115.564C155.181 108.728 167.351 89.4681 167.351 89.4681L173.838 76.291" fill="#FDF5EF"/>
<path d="M19.6602 70.4774L21.7157 78.9805C21.7157 78.9805 22.2696 81.7747 26.0471 83.2165C29.8245 84.6582 66.9335 98.2498 66.9335 98.2498C66.9335 98.2498 73.8813 100.499 76.6358 96.8084C79.3902 93.1153 80.8875 90.9707 80.8875 90.9707" fill="#FDF5EF"/>
<path d="M37.6484 30.0536C31.4613 36.6766 15.9299 54.9019 15.5562 55.438C11.4353 60.2344 11.8048 67.2321 17.1231 69.4847C23.6215 72.0121 83.3433 93.8987 137.293 106.327C137.293 106.327 146.626 109.413 152.146 106.281C157.668 103.148 161.288 96.0892 161.288 96.0892C161.288 96.0892 176.008 72.903 179.827 65.8595C183.645 58.8161 185.487 53.3853 185.487 53.3853C185.487 53.3853 185.692 51.6766 184.976 49.8678C184.976 49.8678 186.153 44.0702 180.188 41.852C174.224 39.6338 103.879 16.6351 66.9883 9.384C66.9883 9.384 60.1188 7.54389 54.5451 12.9478C51.38 16.0174 43.8381 23.4306 37.6484 30.0536Z" fill="#F8D1C2"/>
<path d="M87.009 74.6657C87.009 74.6657 80.2833 82.8127 89.9367 85.6918C99.5876 88.5709 137.873 98.2601 137.873 98.2601C137.873 98.2601 149.122 101.869 154.317 94.9522C159.514 88.0354 170.318 72.8783 179.662 55.1538C179.662 55.1538 185.885 45.7141 178.138 43.0331C170.392 40.3521 132.163 28.4656 132.163 28.4656C132.163 28.4656 124.381 25.7858 119.873 31.7315C115.364 37.6771 87.0114 74.6656 87.0114 74.6656L87.009 74.6657Z" fill="#FDF5EF"/>
<path d="M87.0148 74.8143C87.0148 74.8143 80.2891 82.9613 89.9425 85.8404C99.5934 88.7195 137.879 98.4087 137.879 98.4087C137.879 98.4087 149.128 102.017 154.323 95.1008C159.52 88.1841 170.323 73.0269 179.668 55.3024C179.668 55.3024 185.891 45.8627 178.144 43.1817C170.398 40.5007 132.168 28.6142 132.168 28.6142C132.168 28.6142 124.387 25.9344 119.879 31.8801C115.37 37.8258 87.0173 74.8142 87.0173 74.8142L87.0148 74.8143Z" stroke="#2B408A" stroke-width="0.269847" stroke-miterlimit="10"/>
<path d="M92.2062 46.6114C92.2062 46.6114 98.7716 49.1366 102.531 44.298L114.258 29.2856C114.258 29.2856 118.662 24.0752 110.169 21.9654C101.675 19.8556 66.9501 11.1516 66.9501 11.1516C66.9501 11.1516 61.1077 9.68084 56.8341 13.8523C52.5579 18.0214 42.2082 28.2886 42.2082 28.2886C42.2082 28.2886 39.4704 31.5223 45.0212 33.0996C50.572 34.677 92.2038 46.6115 92.2038 46.6115L92.2062 46.6114Z" fill="#FDF5EF"/>
<path d="M92.4913 46.6017C92.4913 46.6017 99.0567 49.1269 102.816 44.2883L114.543 29.2759C114.543 29.2759 118.947 24.0655 110.454 21.9557C101.963 19.8458 67.2352 11.1444 67.2352 11.1444C67.2352 11.1444 61.3929 9.67364 57.1193 13.8451C52.8431 18.0142 42.4934 28.2814 42.4934 28.2814C42.4934 28.2814 39.7556 31.5151 45.3064 33.0924C50.8571 34.6698 92.4889 46.6043 92.4889 46.6043L92.4913 46.6017Z" stroke="#2B408A" stroke-width="0.269847" stroke-miterlimit="10"/>
<path d="M90.78 59.5196L92.938 56.5984C92.938 56.5984 96.3454 52.8508 90.4931 51.0877C84.6409 49.3247 40.92 36.5781 40.92 36.5781C40.92 36.5781 36.8143 34.1652 32.933 38.4201C29.0517 42.675 18.0457 56.6929 18.0457 56.6929C18.0457 56.6929 14.744 60.6329 19.9133 62.5184C25.0826 64.404 63.9099 77.6097 63.9099 77.6097C63.9099 77.6097 73.7555 81.3976 78.4589 75.3485C83.1598 69.2996 90.78 59.5196 90.78 59.5196Z" fill="#FDF5EF"/>
<path d="M90.78 59.5196L92.938 56.5984C92.938 56.5984 96.3454 52.8508 90.4931 51.0877C84.6409 49.3247 40.92 36.5781 40.92 36.5781C40.92 36.5781 36.8143 34.1652 32.933 38.4201C29.0517 42.675 18.0457 56.6929 18.0457 56.6929C18.0457 56.6929 14.744 60.6329 19.9133 62.5184C25.0826 64.404 63.9099 77.6097 63.9099 77.6097C63.9099 77.6097 73.7555 81.3976 78.4589 75.3485C83.1622 69.2995 90.78 59.5196 90.78 59.5196Z" stroke="#2B408A" stroke-width="0.269847" stroke-miterlimit="10"/>
<mask id="mask0_719_557" style="mask-type:luminance" maskUnits="userSpaceOnUse" x="83" y="27" width="100" height="73">
<path d="M178.149 43.0328C170.403 40.3518 132.174 28.4653 132.174 28.4653C132.174 28.4653 124.393 25.7855 119.884 31.7312C118.856 33.0858 116.591 36.0529 113.705 39.8249C110.54 39.6225 106.23 39.2903 106.23 39.2903L97.4115 44.9138C97.4115 44.9138 87.4919 48.9375 86.7185 50.8491C85.945 52.7607 84.4733 55.2914 83.9557 57.2117C83.61 58.4985 87.5196 65.8669 90.1413 70.5952C88.2126 73.1116 87.025 74.6628 87.025 74.6628C87.025 74.6628 80.2994 82.8098 89.9527 85.6888C99.6036 88.568 137.89 98.2572 137.89 98.2572C137.89 98.2572 149.138 101.866 154.333 94.9492C159.53 88.0325 170.334 72.8754 179.678 55.1508C179.678 55.1508 185.901 45.7111 178.154 43.0302L178.149 43.0328Z" fill="white"/>
</mask>
<g mask="url(#mask0_719_557)">
<path d="M153.493 70.7891C158.595 64.7166 159.804 55.6384 156.468 48.4439C153.133 41.247 145.426 36.3023 137.494 36.272C129.562 36.2417 119.607 40.8818 117.194 49.4427L130.06 55.1719C130.972 52.4518 133.526 50.3085 136.383 50.0649C139.24 49.8189 142.203 51.6034 143.161 54.307C144.118 57.0105 142.831 60.3685 140.238 61.5903L153.493 70.7916L153.493 70.7891Z" stroke="#2B408A" stroke-width="0.269847" stroke-miterlimit="10"/>
<path d="M124.887 47.1196C124.806 47.0703 124.734 47.0058 124.672 46.9285C124.379 46.5639 124.441 46.0309 124.805 45.7382C127.445 43.6292 131.011 41.1165 135.175 40.4291C139.043 39.789 146.424 41.505 148.692 45.1836C148.937 45.5821 148.813 46.1022 148.417 46.3464C148.018 46.5907 147.498 46.467 147.254 46.0709C145.547 43.2986 139.157 41.4843 135.455 42.0965C131.676 42.7212 128.345 45.077 125.865 47.0591C125.577 47.2872 125.188 47.3004 124.892 47.117L124.887 47.1196Z" fill="#EB7B53"/>
<path d="M149.15 63.2693C148.8 63.053 148.651 62.609 148.817 62.2214C150.22 58.9166 150.411 55.0552 149.344 51.626C149.205 51.1792 149.454 50.7069 149.901 50.5677C150.348 50.4284 150.82 50.6753 150.959 51.1245C152.143 54.9292 151.929 59.2132 150.375 62.8828C150.193 63.3132 149.697 63.5136 149.266 63.3323C149.226 63.3138 149.188 63.2953 149.15 63.2718L149.15 63.2693Z" fill="#EB7B53"/>
<path d="M135.352 45.5257C135.207 45.4364 135.086 45.3016 135.016 45.1328C134.838 44.7023 135.039 44.2092 135.47 44.0284C137.416 43.213 141.873 42.6744 144.813 46.4715C145.098 46.8413 145.03 47.372 144.66 47.6575C144.29 47.9429 143.759 47.8717 143.474 47.5043C140.609 43.7965 136.302 45.5133 136.12 45.5864C135.859 45.6945 135.575 45.662 135.352 45.5232L135.352 45.5257Z" fill="#EB7B53"/>
<path d="M148.893 65.0467C149.582 63.3016 150.582 61.551 152.236 60.6662C153.357 60.0675 154.672 59.926 155.814 59.3687C157.493 58.5475 158.608 56.9319 159.977 55.6599C163.163 52.6938 167.996 51.624 172.135 52.9715C173.238 53.3309 174.391 53.9565 174.761 55.0577C175.125 56.1343 174.612 57.3127 173.954 58.2406C172.825 59.8393 171.228 61.1017 169.412 61.8307C168.316 62.2724 167.032 62.6088 166.447 63.6383C165.97 64.4806 166.122 65.5396 165.819 66.4578C165.284 68.0785 163.479 68.9065 161.8 69.2191C158.615 69.8087 155.381 69.239 152.176 69.2439C151.372 69.2439 150.569 69.2712 149.771 69.3728C149.399 69.4202 147.766 69.9917 147.507 69.8318C146.808 69.3992 148.612 65.7558 148.893 65.0492L148.893 65.0467Z" fill="#F0AA92"/>
<path d="M142.745 76.632C142.745 76.632 142.735 76.6274 142.73 76.6226C142.434 76.4491 142.331 76.0705 142.505 75.7744C145.286 70.9864 149.551 66.9963 154.511 64.5355C155.935 63.8296 157.429 63.2405 158.873 62.668C160.341 62.0872 161.859 61.4873 163.281 60.7717C166.564 59.1195 168.748 57.0607 169.778 54.6517C169.911 54.3371 170.278 54.1881 170.593 54.3238C170.907 54.457 171.056 54.824 170.921 55.1387C169.774 57.827 167.393 60.0959 163.84 61.8813C162.369 62.621 160.824 63.2317 159.329 63.8233C157.909 64.3851 156.44 64.9635 155.062 65.6479C150.317 67.9997 146.24 71.8172 143.578 76.3953C143.409 76.6863 143.038 76.7882 142.742 76.6296L142.745 76.632Z" fill="white"/>
<path d="M151.309 66.4528L153.318 64.9755C154.639 64.0028 155.724 62.7107 156.453 61.2372C156.604 60.9294 156.976 60.8051 157.284 60.9559C157.602 61.1162 157.716 61.4819 157.566 61.7872C157.036 62.857 156.338 63.8433 155.509 64.7025C156.583 64.6833 157.658 64.7832 158.719 64.9976C159.054 65.0656 159.273 65.393 159.205 65.7302C159.138 66.0674 158.81 66.2845 158.473 66.2166C156.922 65.9022 155.343 65.8592 153.78 66.0885L151.312 66.4527L151.309 66.4528Z" fill="white"/>
<path d="M159.048 63.6518L160.447 62.1233C161.411 61.071 162.222 59.8874 162.855 58.6057C163.006 58.2979 163.379 58.1711 163.687 58.3244C163.989 58.4728 164.121 58.8479 163.968 59.1557C163.527 60.0464 163.01 60.8925 162.417 61.6842C163.429 61.6249 164.45 61.7415 165.43 62.0257C165.761 62.1211 165.948 62.467 165.853 62.7952C165.757 63.1234 165.412 63.3138 165.083 63.2183C163.773 62.8362 162.38 62.8092 161.055 63.142L159.045 63.647L159.048 63.6518Z" fill="white"/>
<path d="M143.198 89.7765C148.877 88.0676 153.301 82.7772 153.979 76.8849C154.657 70.9927 151.55 64.8372 146.406 61.8816C141.262 58.9285 134.378 59.3463 129.632 62.8988" fill="#F8D1C2"/>
<path d="M143.048 87.9161C147.372 86.3897 150.778 82.5033 151.724 78.0159C152.668 73.5286 151.118 68.5977 147.776 65.4567C144.435 62.3158 139.417 61.0775 134.998 62.2995C133.42 62.7352 131.924 63.4633 130.603 64.4286" fill="#FDF5EF"/>
<path d="M136.603 67.6006C136.558 67.5054 136.537 67.3994 136.545 67.2875L136.682 65.4124C136.708 65.0692 137.004 64.8136 137.348 64.8391C137.691 64.8646 137.946 65.1611 137.921 65.5043L137.784 67.3793C137.758 67.7225 137.462 67.9782 137.119 67.9527C136.887 67.9357 136.697 67.7958 136.603 67.6006Z" fill="#B8B8B8"/>
<path d="M140.115 69.54C139.984 69.2667 140.069 68.9289 140.331 68.7562L141.704 67.8413C141.99 67.6505 142.375 67.7292 142.566 68.0129C142.756 68.2942 142.68 68.6838 142.394 68.8746L141.021 69.7895C140.735 69.9803 140.35 69.9041 140.16 69.6179C140.144 69.5936 140.128 69.5669 140.115 69.54Z" fill="#F8D1C2"/>
<path d="M142.537 74.0691C142.516 74.0252 142.499 73.9761 142.488 73.9245C142.419 73.5894 142.636 73.2595 142.971 73.1911L144.856 72.807C145.191 72.7385 145.521 72.958 145.589 73.2906C145.658 73.6256 145.441 73.9555 145.106 74.0239L143.221 74.408C142.935 74.4674 142.657 74.3181 142.537 74.0691Z" fill="#F8D1C2"/>
<path d="M144.481 78.0093C144.411 77.8653 144.398 77.6971 144.455 77.5364C144.57 77.2125 144.919 77.0418 145.24 77.1599L146.792 77.7173C147.116 77.8328 147.282 78.1893 147.167 78.5108C147.051 78.8347 146.695 79.0007 146.373 78.8851L144.836 78.3346C144.673 78.2756 144.55 78.1558 144.478 78.0119L144.481 78.0093Z" fill="#F8D1C2"/>
<path d="M143.666 81.2841C143.575 81.0937 143.582 80.8628 143.707 80.6725C143.896 80.3858 144.283 80.3081 144.567 80.4969L145.701 81.2472C145.988 81.4359 146.066 81.8227 145.877 82.1069C145.688 82.3912 145.301 82.4713 145.017 82.2825L143.883 81.5323C143.786 81.4686 143.712 81.3818 143.666 81.2817L143.666 81.2841Z" fill="#F8D1C2"/>
<path d="M155.835 85.7149C156.503 86.2428 156.606 87.2242 156.068 87.9023C155.531 88.5804 154.553 88.703 153.885 88.175C153.217 87.6471 151.438 85.2344 151.978 84.5537C152.518 83.873 155.167 85.1869 155.835 85.7149Z" fill="#F0AA92"/>
<path d="M154.894 88.932C154.431 88.9478 153.982 88.8018 153.615 88.5116C153.082 88.0907 150.796 85.3505 151.638 84.2899C152.009 83.8208 152.785 83.8192 154.007 84.2837C154.886 84.6184 155.741 85.1004 156.098 85.3834C156.511 85.7117 156.77 86.1841 156.825 86.7106C156.88 87.2371 156.729 87.7558 156.399 88.1713C156.068 88.5894 155.598 88.8535 155.072 88.9185C155.013 88.9255 154.951 88.9301 154.892 88.9321L154.894 88.932ZM152.488 84.7769C152.406 84.7797 152.345 84.7942 152.306 84.8253C152.113 85.2139 153.431 87.2701 154.147 87.8386C154.379 88.0217 154.67 88.1037 154.969 88.0662C155.268 88.0287 155.538 87.8757 155.728 87.636C155.918 87.3964 156.005 87.0982 155.972 86.7967C155.94 86.5001 155.795 86.2347 155.563 86.0491C154.854 85.4878 153.112 84.7532 152.485 84.7745L152.488 84.7769Z" fill="#F0AA92"/>
<path d="M155.837 88.1955C155.745 88.1986 155.65 88.172 155.571 88.1152C154.203 87.1224 153.02 85.9123 152.058 84.5187C151.922 84.3249 151.972 84.0577 152.166 83.9221C152.36 83.7866 152.627 83.837 152.763 84.0308C153.668 85.3445 154.784 86.4849 156.073 87.4209C156.264 87.5608 156.308 87.8272 156.168 88.0205C156.087 88.1323 155.963 88.1936 155.834 88.198L155.837 88.1955Z" fill="#F8D1C2"/>
<path d="M158.587 80.7442C158.013 81.3715 157.027 81.4076 156.389 80.8215C155.749 80.2355 155.698 79.2524 156.272 78.6251C156.846 77.9979 159.379 76.3935 160.019 76.977C160.659 77.5605 159.163 80.1144 158.589 80.7442L158.587 80.7442Z" fill="#F0AA92"/>
<path d="M157.524 81.666C157.019 81.6832 156.505 81.5097 156.1 81.139C155.288 80.3951 155.223 79.1371 155.955 78.3358C156.302 77.9569 157.148 77.3675 157.923 76.9665C159.09 76.3637 159.871 76.2627 160.306 76.6622C160.747 77.0664 160.696 77.8396 160.146 79.0267C159.751 79.8811 159.211 80.6982 158.902 81.0362C158.534 81.4382 158.033 81.6512 157.522 81.6686L157.524 81.666ZM159.577 77.2625C158.965 77.2833 157.15 78.3026 156.59 78.9145C156.176 79.3677 156.215 80.0808 156.681 80.5065C157.145 80.9298 157.861 80.9079 158.275 80.4547C158.963 79.702 159.963 77.6512 159.727 77.2896C159.692 77.2685 159.642 77.2603 159.58 77.2624L159.577 77.2625Z" fill="#F0AA92"/>
<path d="M156.556 81.0168C156.454 81.0203 156.351 80.9866 156.265 80.9176C156.083 80.765 156.059 80.4954 156.212 80.3141C157.299 79.0169 158.589 77.9237 160.048 77.0629C160.252 76.9419 160.515 77.0098 160.636 77.2141C160.757 77.4183 160.689 77.6811 160.485 77.8022C159.111 78.613 157.896 79.6441 156.871 80.8647C156.79 80.9617 156.675 81.0128 156.556 81.0168Z" fill="#F8D1C2"/>
<path d="M148.435 78.4155C147.863 77.785 147.917 76.8034 148.559 76.2184C149.201 75.6334 150.185 75.6719 150.757 76.3024C151.329 76.9329 152.698 79.6001 152.055 80.1826C151.415 80.765 149.007 79.0435 148.435 78.4155Z" fill="#F0AA92"/>
<path d="M151.741 80.7292C151.305 80.744 150.732 80.5427 150.009 80.1233C149.194 79.6524 148.429 79.0384 148.122 78.7016C147.767 78.3118 147.588 77.8044 147.617 77.2725C147.646 76.7456 147.88 76.2564 148.272 75.8983C149.088 75.1561 150.345 75.2076 151.077 76.0113C151.533 76.5142 153.352 79.5854 152.348 80.4976C152.189 80.642 151.989 80.7207 151.743 80.7291L151.741 80.7292ZM149.586 76.2331C149.324 76.2421 149.059 76.3428 148.847 76.5336C148.621 76.7398 148.487 77.0197 148.47 77.3204C148.452 77.6187 148.554 77.9055 148.753 78.1245C149.441 78.88 151.388 80.0639 151.773 79.8598C152.027 79.5089 151.058 77.2646 150.442 76.5885C150.217 76.3406 149.901 76.2224 149.586 76.2331Z" fill="#F0AA92"/>
<path d="M151.596 80.8184C151.43 80.824 151.268 80.7328 151.193 80.5741C150.511 79.1337 149.594 77.8278 148.471 76.6952C148.304 76.5272 148.305 76.2568 148.473 76.0898C148.641 75.9229 148.911 75.9236 149.078 76.0916C150.27 77.2938 151.24 78.6773 151.967 80.2079C152.068 80.4227 151.978 80.6764 151.763 80.778C151.709 80.8046 151.65 80.8165 151.593 80.8185L151.596 80.8184Z" fill="#F8D1C2"/>
<path d="M111.782 93.7326C106.891 92.1055 102.432 89.206 98.9633 85.3947C97.9608 84.2927 97.0137 83.0672 96.6494 81.621C96.2852 80.1748 96.6362 78.4611 97.8365 77.5768C98.3229 77.218 98.9354 76.9937 99.2808 76.4982C99.7753 75.7943 99.5299 74.7806 98.9863 74.1144C98.4427 73.4483 97.6667 73.0232 96.958 72.5338C94.4631 70.8029 92.7023 68.0448 92.1887 65.0532C91.6726 62.0593 92.4075 58.8714 94.1817 56.4073C94.807 55.5377 95.6226 54.7186 96.6694 54.4994C97.3936 54.3483 98.1603 54.5008 98.8759 54.3152C100.474 53.9012 101.174 52.0814 101.756 50.5384C102.742 47.9275 104.162 45.3366 106.501 43.8132C108.838 42.29 112.273 42.1756 114.214 44.1809C115.746 45.766 116.272 48.4521 118.353 49.1875C120.065 49.7915 121.864 48.7009 123.391 47.7162C124.918 46.7315 126.86 45.7848 128.46 46.6458C130.195 47.579 130.37 50.0066 131.61 51.5371C132.667 52.8407 134.381 53.3678 135.803 54.2621C137.225 55.1538 138.468 56.9125 137.741 58.4231L138.401 90.9393" fill="#F0AA92"/>
<path d="M123.903 93.8512C123.66 93.8594 123.423 93.7311 123.306 93.4994C118.173 83.4215 114.966 72.1346 114.032 60.8645C114.002 60.5083 114.267 60.1967 114.623 60.1672C114.969 60.1331 115.291 60.4025 115.32 60.7587C116.239 71.8655 119.398 82.9854 124.459 92.9144C124.621 93.2314 124.496 93.6202 124.176 93.7823C124.088 93.8275 123.997 93.848 123.906 93.8511L123.903 93.8512Z" fill="white"/>
<path d="M116.16 69.8713C115.989 69.8771 115.823 69.8157 115.7 69.6984C113.843 67.9805 111.766 66.5181 109.524 65.3515C109.208 65.1862 109.083 64.796 109.249 64.4803C109.412 64.1647 109.802 64.0398 110.12 64.2051C112.209 65.2925 114.161 66.6226 115.933 68.1723C116.082 67.8125 116.263 67.3549 116.434 66.9273C117.195 65.0062 118.239 62.3784 119.153 61.1839C119.37 60.9012 119.774 60.8453 120.06 61.0638C120.342 61.2799 120.396 61.6849 120.18 61.9701C119.375 63.022 118.328 65.6598 117.636 67.4049C117.04 68.9111 116.829 69.4169 116.631 69.6493C116.516 69.7822 116.353 69.8622 116.177 69.8731L116.162 69.8737L116.16 69.8713Z" fill="white"/>
<path d="M118.681 81.2833C118.53 81.2884 118.382 81.2414 118.26 81.1463C114.12 77.8862 109.566 75.1809 104.72 73.1033C104.392 72.9631 104.241 72.5838 104.381 72.2565C104.521 71.9293 104.903 71.7774 105.228 71.9176C109.862 73.9057 114.24 76.4557 118.249 79.507C119.437 74.545 121.715 69.8361 124.871 65.8292C125.089 65.5489 125.494 65.5003 125.777 65.7214C126.058 65.9426 126.106 66.3478 125.885 66.6281C122.639 70.7473 120.36 75.6373 119.289 80.7714C119.244 80.9912 119.087 81.1703 118.878 81.2468C118.815 81.2688 118.746 81.2836 118.679 81.2858L118.681 81.2833Z" fill="white"/>
<path d="M114.627 100.177C115.695 89.7297 122.143 79.9748 131.337 74.8992C134.144 73.3475 137.739 72.2528 140.447 73.974C142.343 75.1796 143.268 77.4948 143.473 79.7328C143.678 81.9709 143.283 84.2144 143.144 86.4567C142.865 90.8891 143.591 95.3817 145.252 99.5001" fill="#F8D1C2"/>
<path d="M114.627 100.177C115.695 89.7297 122.143 79.9748 131.337 74.8992C134.144 73.3475 137.739 72.2528 140.447 73.974C142.343 75.1796 143.268 77.4948 143.473 79.7328C143.678 81.9709 143.283 84.2144 143.144 86.4567C142.865 90.8891 143.591 95.3817 145.252 99.5001" stroke="#2B408A" stroke-width="0.269847" stroke-miterlimit="10"/>
<path d="M122.333 100.533C121.886 99.6352 121.621 98.642 121.586 97.589C121.443 93.409 124.956 89.8984 129.428 89.7463C133.9 89.5941 137.643 92.8578 137.785 97.0379C137.822 98.1182 137.614 99.1547 137.21 100.099" fill="#2B408A"/>
<path d="M122.333 100.533C121.886 99.6352 121.621 98.642 121.586 97.589C121.443 93.409 124.956 89.8984 129.428 89.7463C133.9 89.5941 137.643 92.8578 137.785 97.0379C137.822 98.1182 137.614 99.1547 137.21 100.099" stroke="#F8D1C2" stroke-width="0.269847" stroke-miterlimit="10"/>
<path d="M134.302 77.1897C133.977 77.2007 133.677 76.9877 133.589 76.6607C133.487 76.2822 133.714 75.89 134.093 75.7902C134.975 75.5543 135.865 75.4472 136.739 75.4695C137.131 75.4785 137.442 75.8053 137.433 76.2C137.424 76.5923 137.097 76.8986 136.703 76.8946C135.963 76.8752 135.21 76.9678 134.457 77.1695C134.403 77.1837 134.351 77.1905 134.297 77.1923L134.302 77.1897Z" fill="#FDF5EF"/>
<path d="M127.424 81.9557C127.266 81.9611 127.105 81.9145 126.971 81.8124C126.657 81.575 126.595 81.1281 126.832 80.8149C126.913 80.708 128.842 78.189 131.887 76.6417C132.239 76.4635 132.665 76.6028 132.846 76.9539C133.024 77.3051 132.885 77.734 132.533 77.9121C129.778 79.3132 127.987 81.6513 127.968 81.6743C127.833 81.8525 127.63 81.9487 127.424 81.9557Z" fill="#FDF5EF"/>
</g>
<mask id="mask1_719_557" style="mask-type:luminance" maskUnits="userSpaceOnUse" x="16" y="30" width="78" height="49">
<path d="M90.4683 50.895C88.977 50.4446 85.028 49.2841 79.9717 47.8015L81.7668 44.4214L83.9708 35.1234C83.9708 35.1234 75.0339 31.1384 73.6792 30.7652C72.665 30.4872 57.7977 36.0758 50.4337 39.1691C44.8013 37.5251 40.8927 36.3855 40.8927 36.3855C40.8927 36.3855 36.787 33.9726 32.9057 38.2274C29.0244 42.4823 18.0184 56.5003 18.0184 56.5003C18.0184 56.5003 14.7167 60.4402 19.886 62.3258C25.0553 64.2113 63.8826 77.417 63.8826 77.417C63.8826 77.417 73.7282 81.2049 78.4316 75.1559C83.1325 69.1069 90.7527 59.3269 90.7527 59.3269L92.9107 56.4058C92.9107 56.4058 96.3181 52.6582 90.4658 50.8951L90.4683 50.895Z" fill="white"/>
</mask>
<g mask="url(#mask1_719_557)">
<path d="M34.2472 77.0237C35.9205 67.8752 50.3043 60.3954 55.7885 57.2469C61.2728 54.0985 68.2573 53.1936 73.9915 55.8612C79.7257 58.5287 83.6692 65.1419 82.3265 71.3222" fill="#F8D1C2"/>
<path d="M34.2472 77.0237C35.9205 67.8752 50.3043 60.3954 55.7885 57.2469C61.2728 54.0985 68.2573 53.1936 73.9915 55.8612C79.7257 58.5287 83.6692 65.1419 82.3265 71.3222" stroke="#2B408A" stroke-width="0.269847" stroke-miterlimit="10"/>
<path d="M50.4539 81.0491C50.6273 76.521 52.284 72.0639 55.1105 68.5197C57.9345 64.978 61.914 62.3694 66.287 61.1912L72.1139 61.1145L83.0396 70.7671L82.7592 79.3696L50.4514 81.0492" fill="#F0AA92"/>
<path d="M53.1493 80.8706C53.2929 76.6337 55.034 72.469 57.9507 69.3905C60.8674 66.3121 64.9309 64.3506 69.1552 63.9786L75.7745 67.5786L78.4922 80.0903L53.1518 80.873" fill="#FDF5EF"/>
<path d="M78.8032 80.3327L52.8854 81.1325L52.8935 80.8619C53.0379 76.5754 54.8135 72.3301 57.7637 69.2158C60.7139 66.1014 64.8555 64.1 69.1293 63.7264L69.206 63.7189L69.2742 63.7562L75.997 67.4097L78.8032 80.3327Z" fill="#FDF5EF"/>
<path d="M71.5363 73.1479C72.0645 72.3411 71.1454 70.1894 71.0996 70.0843C70.7255 69.2213 69.8663 68.685 69.143 68.8609C68.7543 68.956 68.4788 69.2457 68.3885 69.6531C68.3175 69.973 68.3651 70.3509 68.5239 70.7152C68.6612 71.033 69.0246 71.6532 69.3642 72.1551C69.735 72.7006 70.3566 73.6172 71.1388 73.4244C71.3185 73.381 71.4466 73.2824 71.5363 73.1479Z" fill="#EB7B53" stroke="#2B408A" stroke-width="0.269847" stroke-miterlimit="10"/>
<path d="M66.6877 74.7219C66.6772 73.7573 64.7139 72.4845 64.615 72.4234C63.8214 71.917 62.8104 71.949 62.3107 72.5018C62.0405 72.7987 61.9744 73.1904 62.1266 73.5797C62.2462 73.8857 62.4965 74.1724 62.8313 74.3867C63.1229 74.5728 63.7686 74.8857 64.3319 75.1121C64.9456 75.3591 65.9717 75.7707 66.5145 75.1743C66.6389 75.0386 66.6908 74.8855 66.6902 74.7243L66.6877 74.7219Z" fill="#EB7B53" stroke="#2B408A" stroke-width="0.269847" stroke-miterlimit="10"/>
<path d="M39.784 55.9161C40.6741 53.936 41.7801 51.5169 43.9446 51.3391C44.8797 51.2627 45.8085 51.6577 46.7402 51.5566C48.5567 51.3583 49.6438 49.4063 49.9897 47.6134C50.3355 45.8206 50.2796 43.8851 51.1907 42.3037C52.1018 40.7198 54.5728 39.8519 55.7297 41.2637C56.532 42.2435 56.4112 43.9419 57.5464 44.4986C58.2527 44.8442 59.12 44.5245 59.7256 44.0226C60.3311 43.5208 60.7798 42.8531 61.3776 42.3441C63.1446 40.8353 66.1647 41.1592 67.5721 43.009C68.9795 44.8588 68.4861 47.8549 66.5583 49.1558C65.6998 49.7357 64.6713 49.9816 63.6985 50.3347C62.7257 50.6878 61.7386 51.2051 61.2335 52.1079C60.7259 53.0107 60.9383 54.3678 61.8852 54.7846C62.6306 55.1115 63.5046 54.7717 64.3014 54.9331C65.9252 55.2649 66.3735 57.6533 65.3385 58.9487C64.3035 60.2441 62.4541 60.57 60.8044 60.4227C59.1548 60.2754 57.5443 59.7497 55.8887 59.7192C54.2331 59.6887 52.3986 60.3068 51.6602 61.7905C51.2215 62.6762 51.2238 63.7651 50.6306 64.5567C49.5937 65.944 47.4852 65.651 45.7761 65.3619C43.5455 64.9838 41.2693 64.8678 39.0116 65.0041C36.8777 65.1338 34.6373 65.9988 32.5576 65.9704C35.3796 62.8058 38.0178 59.8534 39.7889 55.9159L39.784 55.9161Z" fill="#F0AA92"/>
<path d="M28.8839 67.5341C28.8371 67.2529 28.9911 66.9673 29.2677 66.8562C40.8032 62.2789 51.568 55.2447 60.3949 46.5177C60.6397 46.2762 61.0317 46.2777 61.2732 46.5225C61.5147 46.7673 61.5107 47.1594 61.2684 47.4008C52.3239 56.2435 41.4158 63.3694 29.7261 68.009C29.408 68.1364 29.0454 67.98 28.9205 67.6618C28.9042 67.6202 28.8928 67.5759 28.8838 67.5316L28.8839 67.5341Z" fill="#FDF5EF"/>
<path d="M51.285 54.8351C51.2097 54.3714 51.5972 53.9489 51.7573 53.7698C53.4554 51.9135 53.2106 48.2183 53.2068 48.1812C53.1828 47.8397 53.4381 47.5408 53.7821 47.5166C54.1236 47.4926 54.4249 47.7453 54.4465 48.0894C54.4595 48.2527 54.7043 51.876 53.0216 54.1832C53.3421 54.1252 53.7066 54.0483 54.0145 53.9832C56.0957 53.5453 58.4528 53.0483 59.4463 54.178C59.6733 54.4357 59.647 54.8285 59.3893 55.0556C59.1316 55.2826 58.7388 55.2563 58.5117 54.9986C57.9981 54.4133 55.5721 54.925 54.2692 55.2C52.587 55.5549 51.7447 55.7324 51.3781 55.0924C51.328 55.0048 51.2978 54.9191 51.285 54.8351Z" fill="#FDF5EF"/>
<path d="M41.6476 61.129C41.6196 60.9637 41.6441 60.7347 41.8442 60.4922C42.4469 59.7598 44.0595 56.3387 44.632 55.0813C44.7726 54.769 45.1425 54.6299 45.455 54.773C45.7673 54.9137 45.9039 55.2812 45.7633 55.596C45.5879 55.984 44.2813 58.8465 43.3605 60.4381C43.7702 60.3746 44.2534 60.2862 44.6577 60.2129C47.3179 59.7305 48.9839 59.4828 49.6807 60.1313C49.9318 60.3659 49.9476 60.7573 49.713 61.0084C49.4785 61.2595 49.0871 61.2753 48.836 61.0407C48.4058 60.7924 46.0218 61.2257 44.8778 61.4333C42.7773 61.8149 42.0672 61.9432 41.7327 61.3717C41.709 61.3303 41.6664 61.2449 41.6476 61.129Z" fill="#FDF5EF"/>
<path d="M50.7986 56.3649C53.5486 60.1238 52.0749 65.8794 47.5077 69.2249C42.938 72.568 37.0054 72.234 34.2555 68.4751C31.5055 64.7162 26.8341 50.1203 31.4037 46.7747C35.9734 43.4316 48.0487 52.606 50.7986 56.3649Z" fill="#F8D1C2" stroke="#2B408A" stroke-width="0.269847" stroke-miterlimit="10"/>
<path d="M45.6898 63.8202C47.9041 61.1188 47.5513 57.1684 44.9019 54.9966C42.2524 52.8249 38.3096 53.2542 36.0953 55.9555C33.881 58.6569 34.2337 62.6073 36.8832 64.7791C39.5327 66.9508 43.4755 66.5215 45.6898 63.8202Z" fill="#FFE6DC"/>
</g>
<mask id="mask2_719_557" style="mask-type:luminance" maskUnits="userSpaceOnUse" x="41" y="10" width="75" height="38">
<path d="M92.2003 46.3661C92.2003 46.3661 98.7656 48.8913 102.525 44.0526L114.252 29.0402C114.252 29.0402 118.656 23.8299 110.163 21.72C101.669 19.6102 66.9442 10.9087 66.9442 10.9087C66.9442 10.9087 61.1019 9.43799 56.8282 13.6095C52.5521 17.7785 42.2023 28.0458 42.2023 28.0458C42.2023 28.0458 39.4646 31.2794 45.0153 32.8568C50.5661 34.4341 92.1979 46.3686 92.1979 46.3686L92.2003 46.3661Z" fill="white"/>
</mask>
<g mask="url(#mask2_719_557)">
<path d="M40.9386 39.6312C42.6119 30.4827 56.9957 23.0029 62.48 19.8544C67.9642 16.706 74.9487 15.8011 80.6829 18.4686C86.4171 21.1362 90.3606 27.7494 89.0179 33.9297" fill="#F8D1C2"/>
<path d="M40.9386 39.6312C42.6119 30.4827 56.9957 23.0029 62.4799 19.8544C67.9642 16.706 74.9487 15.8011 80.6829 18.4686C86.4171 21.1362 90.3606 27.7494 89.0179 33.9297" stroke="#2B408A" stroke-width="0.269847" stroke-miterlimit="10"/>
<path d="M78.393 43.286C79.1953 37.4093 76.2177 31.1875 71.1374 28.1256C66.057 25.0636 59.1676 25.3352 54.3437 28.7887C49.5222 32.242 47.0447 38.6792 48.3085 44.4732" fill="#EB7B53"/>
<path d="M76.6382 42.6487C77.0435 38.0804 74.921 33.3699 71.229 30.6478C67.5395 27.9255 62.4102 27.2888 58.1653 29.0258C53.9205 30.7628 50.7119 34.8137 49.9879 39.3432C49.7303 40.9594 49.7695 42.6226 50.0994 44.2238" fill="#FDF5EF"/>
<path d="M55.4775 40.0817C55.3734 40.0852 55.2659 40.0591 55.1673 40.0054L53.5192 39.1015C53.2183 38.9356 53.1088 38.5598 53.2722 38.259C53.4381 37.9582 53.8139 37.8487 54.1147 38.0121L55.7628 38.916C56.0636 39.0819 56.1732 39.4577 56.0098 39.7585C55.8976 39.9607 55.6907 40.0769 55.475 40.0818L55.4775 40.0817Z" fill="#B8B8B8"/>
<path d="M58.7005 37.6924C58.3956 37.6978 58.1277 37.4787 58.0775 37.1703L57.8137 35.542C57.7601 35.204 57.9898 34.8836 58.3278 34.83C58.6633 34.7739 58.9862 35.006 59.0399 35.344L59.3036 36.9723C59.3598 37.3102 59.1276 37.6307 58.7896 37.6844C58.76 37.6903 58.7303 37.6913 58.7005 37.6924Z" fill="#EB7B53"/>
<path d="M63.8274 37.3665C63.7779 37.3682 63.7256 37.3625 63.6756 37.3518C63.3406 37.2739 63.1333 36.9411 63.2087 36.6062L63.6411 34.7335C63.719 34.3984 64.0543 34.191 64.3869 34.269C64.7219 34.3469 64.9292 34.6797 64.8513 35.0148L64.4189 36.8875C64.3541 37.17 64.1027 37.3646 63.825 37.3691L63.8274 37.3665Z" fill="#EB7B53"/>
<path d="M68.2201 37.237C68.0615 37.24 67.9008 37.1834 67.7776 37.0636C67.5313 36.8239 67.5207 36.4373 67.7603 36.191L68.9109 35.0107C69.1506 34.7644 69.5449 34.761 69.7886 34.9982C70.0349 35.2379 70.0409 35.6321 69.8011 35.876L68.6625 37.0434C68.5427 37.1665 68.3812 37.2316 68.22 37.2346L68.2201 37.237Z" fill="#EB7B53"/>
<path d="M70.8617 39.3376C70.6511 39.3422 70.4441 39.2377 70.3234 39.0458C70.1424 38.7543 70.2311 38.3717 70.5201 38.1907L71.6739 37.4693C71.9654 37.2882 72.3479 37.3769 72.5289 37.6659C72.7099 37.955 72.6213 38.34 72.3323 38.521L71.1785 39.2424C71.0789 39.3054 70.9708 39.3338 70.8617 39.3376Z" fill="#EB7B53"/>
<path d="M71.3188 37.7368C72.2027 35.5015 73.4833 33.2576 75.6029 32.1237C77.0379 31.3555 78.7235 31.1742 80.1876 30.4595C82.3372 29.4066 83.77 27.3361 85.5229 25.7037C89.6056 21.9009 95.8003 20.5317 101.103 22.2589C102.518 22.7193 103.994 23.5224 104.468 24.9302C104.935 26.3109 104.277 27.8192 103.436 29.0112C101.99 31.0598 99.9419 32.6774 97.6171 33.6123C96.21 34.1787 94.5676 34.6091 93.8187 35.9295C93.2055 37.0096 93.403 38.3647 93.0115 39.544C92.3255 41.6213 90.0125 42.6823 87.8604 43.0805C83.7781 43.8346 79.6355 43.1073 75.5278 43.1131C74.4983 43.1133 73.4675 43.1484 72.445 43.2775C71.9658 43.3384 69.8723 44.072 69.5427 43.8649C68.6457 43.31 70.9576 38.6397 71.3162 37.7344L71.3188 37.7368Z" fill="#FFE6DC"/>
<path d="M63.4423 52.586C63.4423 52.586 63.4296 52.579 63.4245 52.5742C63.0449 52.3539 62.9143 51.8672 63.1369 51.485C66.7012 45.3482 72.1657 40.2333 78.523 37.0824C80.3502 36.1768 82.2619 35.4222 84.1124 34.6895C85.9947 33.9457 87.9407 33.1775 89.7625 32.2597C93.9695 30.142 96.7697 27.5041 98.0886 24.4154C98.2608 24.0102 98.7283 23.8231 99.1335 23.9954C99.5387 24.1652 99.7258 24.6351 99.5535 25.0403C98.0856 28.4838 95.0317 31.3933 90.4782 33.684C88.5929 34.6313 86.6128 35.4156 84.6986 36.1703C82.8799 36.8895 80.9976 37.6333 79.2314 38.5095C73.1498 41.5245 67.9232 46.4155 64.5136 52.2841C64.2956 52.6587 63.8213 52.7889 63.4447 52.5834L63.4423 52.586Z" fill="white"/>
<path d="M74.4174 39.5415L76.9924 37.648C78.6864 36.4021 80.0763 34.7449 81.0093 32.8577C81.2042 32.464 81.6824 32.3014 82.076 32.4964C82.4825 32.7033 82.6323 33.1696 82.4373 33.5632C81.7572 34.9358 80.8625 36.1991 79.801 37.2994C81.1769 37.2749 82.553 37.4018 83.9144 37.6779C84.344 37.765 84.6237 38.1847 84.5367 38.6168C84.4497 39.0489 84.03 39.3261 83.5979 39.2391C81.612 38.8353 79.5884 38.7802 77.5817 39.0766L74.4198 39.5414L74.4174 39.5415Z" fill="white"/>
<path d="M84.3358 35.9495L86.1296 33.9907C87.3662 32.6414 88.4036 31.1251 89.216 29.4826C89.411 29.089 89.8892 28.9264 90.2828 29.1213C90.6713 29.3115 90.839 29.7945 90.644 30.1881C90.08 31.3286 89.4149 32.4129 88.6582 33.4309C89.9556 33.357 91.2629 33.5035 92.5182 33.8701C92.9416 33.9947 93.1824 34.4355 93.0602 34.8564C92.9382 35.2797 92.4949 35.5206 92.074 35.3984C90.3928 34.9074 88.6081 34.8739 86.911 35.3012L84.3358 35.9495Z" fill="white"/>
</g>
</g>
</g>
<defs>
<filter id="filter0_d_719_557" x="0.135938" y="0.382031" width="198.152" height="136.71" filterUnits="userSpaceOnUse" color-interpolation-filters="sRGB">
<feFlood flood-opacity="0" result="BackgroundImageFix"/>
<feColorMatrix in="SourceAlpha" type="matrix" values="0 0 0 0 0 0 0 0 0 0 0 0 0 0 0 0 0 0 127 0" result="hardAlpha"/>
<feOffset dy="4"/>
<feGaussianBlur stdDeviation="6.35"/>
<feComposite in2="hardAlpha" operator="out"/>
<feColorMatrix type="matrix" values="0 0 0 0 0 0 0 0 0 0 0 0 0 0 0 0 0 0 0.16 0"/>
<feBlend mode="normal" in2="BackgroundImageFix" result="effect1_dropShadow_719_557"/>
<feBlend mode="normal" in="SourceGraphic" in2="effect1_dropShadow_719_557" result="shape"/>
</filter>
<clipPath id="clip0_719_557">
<rect width="172.994" height="113.925" fill="white" transform="translate(11 10.882) rotate(-1.94848)"/>
</clipPath>
</defs>
</svg>
